<svg xmlns="http://www.w3.org/2000/svg" viewBox="0 0 509.62 123.5"><g id="e23c3343-2a0c-4349-8901-5b86428873b0" data-name="Ebene 2"><g id="af75cc04-c13f-4cf0-8a9a-6c894876b5ff" data-name="Ebene 1"><path d="M509.62,28.52a1.8,1.8,0,0,1-.07.31c-.17.45-1.14,1.37-1.25,1.78a23.8,23.8,0,0,0-.37,2.53,25.5,25.5,0,0,1-.37,2.54c-.28.73-1,1.06-1.25,1.78s-.1,1.82-.37,2.54-1,1.06-1.25,1.78-.11,1.78-.37,2.53-1,1.11-1.25,1.78-.13,1.8-.37,2.54a4.42,4.42,0,0,0-.17,1.06l-.12.77a6.22,6.22,0,0,1,.34,1.46c0,.62-.54,1.46-.53,2.11s.55,1.73.55,2.5a15.12,15.12,0,0,1-.53,2.11,14.83,14.83,0,0,0-.54,2.1c0,.4.56,2,.56,2.51,0,.78-.53,1.32-.53,2.1s.55,1.75.56,2.51-.54,1.33-.54,2.1.56,1.74.56,2.5a2,2,0,0,1-.08.56v-.23a5.29,5.29,0,0,0-.57,1.51c-.06.77.42,1.77.36,2.54s-.64,1.29-.7,2.06.42,1.77.36,2.53-.64,1.29-.7,2.06.42,1.78.36,2.54-.64,1.3-.7,2.06.42,1.77.36,2.54-.63,1.28-.69,2.06.41,1.78.36,2.54a.28.28,0,0,0,0,.09l0,.11,0,.13v.26l0,.19v0c.06.66-.36,1.17-.28,1.82s-.35,1.12-.26,1.81c0,.27.8,1.84.92,2.11L502,104a2.25,2.25,0,0,1,.28.6l.36,6.69c0,.19,0,.44,0,.68a1.94,1.94,0,0,0,.05.53c.18.61.81,1.64,1,2.33l.24,1.47.72,1.18h-.09c-.76.06-1.7-.22-2.43-.15s-1.29.55-2,.63-1.63-.28-2.35-.22-1.32.61-2.06.69-1.54-.33-2.24-.25-1.38.66-2.11.74-1.45-.36-2.15-.28-1.44.68-2.16.81a2.46,2.46,0,0,1-.71.28l-2.41-.1-4.36-.88h0a4.66,4.66,0,0,0-.48-.26c-.82-.2-1.72,0-2.56-.14s-1-.81-1.88-1.08c-.57-.19-1.94,0-2.56-.15s-1.14-.88-1.88-1.08-1.8,0-2.56-.14c-.61-.14-1.27-.92-1.88-1.09s-1.81.06-2.56-.14-1.19-.86-1.89-1.09a3.06,3.06,0,0,0-.87-.08l-.94,0a9,9,0,0,1-1.59.6c-.74.09-1.41-.38-2.15-.28s-1.65.75-2.42.85c-.48.06-1.74-.37-2.16-.28a22.37,22.37,0,0,0-2.41.86,24.44,24.44,0,0,1-2.42.85c-.48.07-1.8.74-2.33.84h-.09a13.9,13.9,0,0,1-2.15-.28,15.6,15.6,0,0,0-2.16-.28c-.54,0-1.83.78-2.42.86a10.66,10.66,0,0,1-1.66-.26h.63a1.54,1.54,0,0,0-.47-.15,24.1,24.1,0,0,0-2.56.21,21.64,21.64,0,0,1-2.56.22c-.54,0-1.44-.74-2-.82-.76-.1-1.77.28-2.55.21a2.83,2.83,0,0,1-.87.09l-4.23-.16-6.59-.92-2-.82H412l-2.38.43-2.53.46a23.26,23.26,0,0,1-2.52.46h0c-.49,0-1.54-.6-2-.62s-2.13.51-2.52.46a15.08,15.08,0,0,1-2.09-.62,18,18,0,0,0-2.08-.62,23.26,23.26,0,0,0-2.53.46l-2.52.46a22.68,22.68,0,0,1-2.52.45l-.21,0h0c-.53-.07-1.72-.39-1.92-.43a13.42,13.42,0,0,0-2.13-.45c-.4,0-2,.63-2.47.66-.79,0-1.34-.47-2.13-.46s-1.77.63-2.48.66-1.4-.5-2.12-.45-1.63.58-2.47.66c-.63.06-1.48-.48-2.13-.45s-1.76.57-2.48.65l1.09.22.72.15a1.91,1.91,0,0,1,.31.09c0,.07-2.17.59-2.48.65s-1.79-.46-2.12-.45c-.77,0-1.71.61-2.48.62a16.45,16.45,0,0,1-2.12-.52l-2.12-.52a16.84,16.84,0,0,0-2.12-.52,21.69,21.69,0,0,0-2.49.57l-2.49.58-2.49.57a22,22,0,0,1-2.5.58h0c-.27,0-1.89-.48-2.1-.52a14.8,14.8,0,0,0-2.11-.52,11.84,11.84,0,0,0-2.07.52,2,2,0,0,1-.34,0c-.83-.07-1.7.33-2.54.29-.63,0-1.4-.69-2-.76s-1.75.35-2.55.29-1.36-.67-2-.76c-.32,0-2.24.26-2.54.29a22.05,22.05,0,0,1-2.55.29c-.62,0-1.43-.66-2-.75s-1.91.35-2.55.29-1.29-.65-2-.76l-2.56.29h-.19l-.52.2-5.39.45,0,0-.63,0c-.14,0-2.08.94-2.35,1a14.75,14.75,0,0,1-2.17-.14,15.13,15.13,0,0,0-2.18-.15c-.41.08-2,.86-2.36,1a25.4,25.4,0,0,1-2.36,1c-.41.11-1.69-.24-2.17-.15a4.43,4.43,0,0,0-.7.25l-5.74,1-1.13.39-1.63-.74c-.43-.08-1.59-.87-2-.9a22.8,22.8,0,0,0-2.56.11l-2.56.1a23,23,0,0,1-2.56.11c-.43,0-1.51-.82-2-.9-.75-.13-1.8.24-2.56.11s-1.22-.77-2-.9a21.38,21.38,0,0,0-2.37.12h-.13c-.8,0-1.74.52-2.52.5s-1.37-.58-2.1-.57-1.65.48-2.5.5c-.63,0-1.46-.56-2.1-.57s-1.73.48-2.51.5l-2.84.58,0,0-11.61-.09-2-.94-2.56,0h-.16l-5.43-1.41-2.86-1.38c-.73-.18-1.2-.79-2-.94s-1.78.17-2.56,0l-2.56.05-1.25.06h0l-.37,0,.36,0a7.47,7.47,0,0,1-.84.4c-.52.18-1.62-.11-2.18,0-.75.21-1.52,1-2.26,1.2s-1.43-.14-2.18.05c-.32.08-2,1.06-2.26,1.2a21.92,21.92,0,0,1-2.27,1.2,17.61,17.61,0,0,1-2.17,0,14.75,14.75,0,0,0-2.18,0c-.34.09-2,1-2.26,1.2a24.78,24.78,0,0,1-2.26,1.2c-.36.13-1.76,0-2.18.05a3.58,3.58,0,0,0-.95.47l0,0-.35,0a6.86,6.86,0,0,1-1.49-.13c-.51-.17-1.36-1.07-1.83-1.18a22.28,22.28,0,0,0-2.55-.28c-.75-.08-1.69-.11-2.55-.27-.53-.1-2-.09-2.55-.27-.74-.24-1.09-.92-1.82-1.18.07,0,.69.1,1.31.16a12,12,0,0,0,1.24.11,19.63,19.63,0,0,0-1.83-1.18,18,18,0,0,0-1.83-1.18,21.55,21.55,0,0,0-2.54-.27l-2.55-.27c-.4-.05-2.09-.13-2.55-.27a17,17,0,0,1-1.83-1.19l-.47-.33a7.67,7.67,0,0,0-1.44,0c-.4.07-1.82,1-2.29,1.17s-1.66-.16-2.17,0a23.06,23.06,0,0,0-2.28,1.17c-.75.38-1.57.78-2.28,1.17l-2.28,1.17-1.23.59-6.26.58H152a11.23,11.23,0,0,0-1.14,0c-.69.17-1.51.9-2.21,1.14l-.07,0h-.19c-.78-.08-1.8.27-2.56.16-.48-.08-1.57-.84-2-.86a24.84,24.84,0,0,0-2.55.15l-2.56.16c-.29,0-2.26.21-2.56.16a15.19,15.19,0,0,1-2-.86l-2-.86a15.09,15.09,0,0,0-2-.86,23.2,23.2,0,0,0-2.56.15l-2.27.14-7.36.39-1.47-.11-2.37,1-2.37,1a23.43,23.43,0,0,0-2.37,1l-3.72.87-3-.24a14.63,14.63,0,0,1-1.88.73h-.6l-4.52-1.09c-.17-.1-.28-.18-.25-.22s2.44.35,2.56.19-1.83-.92-1.87-1.12l-2.56-.2c-.73,0-2-.22-2.55-.19s-2.38-.32-2.55-.2a16.88,16.88,0,0,0,1.86,1.13,13.47,13.47,0,0,1,1.86,1.13,6,6,0,0,1-1.43-.12l-7.13-2.36-.27-.17c-.79-.31-1-.83-1.87-1.13-.57-.2-1.93,0-2.55-.19s-1.16-.88-1.86-1.13a3.38,3.38,0,0,0-.88-.1l.24,0a9.13,9.13,0,0,1-1.66.15,17.57,17.57,0,0,1-2-.84,18.93,18.93,0,0,0-2-.85,22.33,22.33,0,0,0-2.55.18l-2.56.18a22.89,22.89,0,0,1-2.55.17,15.94,15.94,0,0,1-2-.84,14.14,14.14,0,0,0-2-.85c-.39-.09-2.08.25-2.56.18-.73-.1-1.28-.75-2-.84a13.12,13.12,0,0,0-2,.12h.36l-.52.18a23.58,23.58,0,0,1-2.45.79c-.41.08-1.66-.39-2.14-.34a23.17,23.17,0,0,0-2.44.78l-.71.22,0,0-5.5,0h0a3.3,3.3,0,0,0-.56-.07c-.84.1-1.6.65-2.44.78-.68.09-1.8.74-2.44.78a12.92,12.92,0,0,1-2.15-.34,13.66,13.66,0,0,0-2.15-.34,3,3,0,0,0-.53.14l.09,0-1.87.78a23.14,23.14,0,0,1-2.38,1c-.77.13-1.39-.29-2.16-.19s-1.4-.32-2.17-.19c-.47.08-2,.93-2.38,1a15,15,0,0,1-2.17-.2,15.36,15.36,0,0,0-2.16-.19c-.33.05-2.08.84-2.38,1s-1.95.88-2.38,1c-.78.13-1.39-.31-2.17-.19s-1.36-.29-2.16-.19c-.6.07-1.75.84-2.39,1H2.11l-.85.12.26-.76c.23-.68.9-1.12,1.09-1.81a25.47,25.47,0,0,0,.18-2.55A25.38,25.38,0,0,1,3,113.88c.18-.6,1-1.27,1.11-1.86.21-.88,0-1.68.18-2.56.15-.61.93-1.25,1.11-1.87s.1-2,.18-2.56c0,0-.27.47-.54.94l-.38.64a1.86,1.86,0,0,1-.19.29c-.08,0,.15-2.25.17-2.55l.18-2.56c.2,0,1-2,1.11-1.87s-.31,2.65-.18,2.56a14.36,14.36,0,0,0,1.12-1.87,19.63,19.63,0,0,0,1.11-1.87,23.07,23.07,0,0,0,.17-2.56l0-.55,0,.06v-.38l0,.32-.76-1.44c-.15-.29-1.11-1.93-1.2-2.27a14.54,14.54,0,0,1,0-2.17c0-.16,0-2.1,0-2.18-.34-.79-.84-1.59-1.19-2.27A25.45,25.45,0,0,0,3.72,83c-.12-.15.13,2.14,0,2.18s-1.06-2-1.2-2.27a22.73,22.73,0,0,1-1.2-2.27c-.18-.53.13-1.6,0-2.17S.2,76.64.13,76.24a14.66,14.66,0,0,1,0-2.17v-.53L0,72.79l.58-1.55a12.88,12.88,0,0,0,.76-2c0-.23-.25-2.3-.28-2.54S.73,64.51.77,64.1a15.93,15.93,0,0,1,.77-2c.06-.19.75-1.83.76-2A21.26,21.26,0,0,0,2,57.48c-.08-.79-.15-1.89-.28-2.54-.1-.5-.13-2.33-.28-2.55s-.62,2.11-.76,2A24.24,24.24,0,0,1,.4,51.88a15.9,15.9,0,0,1,.66-1.7l.06-.37a1.7,1.7,0,0,0,.14-.32c.18-.75-.09-1.79.06-2.56l1-1.92c.33-.64.68-1.28,1-1.92a15.13,15.13,0,0,1,1-1.93c.12-.1-.16,2.5,0,2.57a18.34,18.34,0,0,0,1-1.92c.05-.16.05-2.35.05-2.56,0-.86,0-1.71,0-2.57,0-.32,0-2.21,0-2.56a14.9,14.9,0,0,1,1-1.92c.07-.14,1-1.82,1-1.92.09-.85,0-1.83,0-2.56V28c-.25-.73-.54-1.74-.8-2.33A24.09,24.09,0,0,0,6,23.28c-.16-.17-.15,2.19-.3,2.15S5.05,23.2,4.84,23l.62-4.31c.1-.71.2-1.43.31-2.15a13.93,13.93,0,0,0,.3-2.15c0-.2-.74-2.21-.82-2.43L4.43,9.53A22.28,22.28,0,0,1,3.61,7.1a1.4,1.4,0,0,1,0-.21l.26-3.61,2.43,1c.49.2,1.6.78,1.77.86a16.77,16.77,0,0,0,2,.92c.29.09,2.16-.15,2.56-.08a16.31,16.31,0,0,1,2,.92c.16.07,1.8.9,2,.92a23.24,23.24,0,0,0,2.56-.08l2.56-.08c.83,0,1.83,0,2.57-.08s1.4-.05,2.11-.07l2.41.11,2.73-.37.71,0h.07L30,8.49a10.34,10.34,0,0,1-1.58.86c-.16,0-.27,0-.29.06l.17.1.46.21-.28,0c.59,0,1.4-.08,1.47-.1.75-.26,1.47-1,2.22-1.28.46-.14,1.77.05,2.17-.11A23.37,23.37,0,0,0,36.6,7,22.82,22.82,0,0,1,38.82,5.7c.55-.21,1.59.07,2.18-.12s1.48-1,2.22-1.27,1.44.09,2.17-.12c.32-.09,2-1.13,2.23-1.28a25.25,25.25,0,0,1,2.21-1.28c.66-.22,1.51.1,2.17-.11a2.2,2.2,0,0,0,.39-.17l.06,0h.34a13.3,13.3,0,0,1,2.15-.1c.75.15,1.21.79,2,.94S58.72,2,59.46,2.1s1.2.79,2,.94S63.28,2.83,64,3s1.17.75,2,.94c.6.15,1.93-.18,2.56-.06s1.31.84,2,.94A21.25,21.25,0,0,0,73,4.74l2.55-.06,1.25-.06a9.47,9.47,0,0,1,1.31,0,15.71,15.71,0,0,1,2,.85,15.41,15.41,0,0,0,2,.85c.38.1,2.08-.24,2.56-.17.76.11,1.25.7,2,.85l4.26,1.13,2.83,1.67,6.15-.42,4.82-1.25c.21,0,2.12-1,2.33-1.09a23,23,0,0,1,2.32-1.08c.41-.14,1.7.17,2.17.06.77-.17,1.55-.88,2.33-1.09s1.48.23,2.17.07,1.63-.94,2.32-1.08,1.37.21,2.18.06c.59-.1,1.69-.94,2.32-1.09a5.56,5.56,0,0,1,1.55.11h.16a2,2,0,0,0,.58.22,23.84,23.84,0,0,0,2.57-.08c.38,0,2.13-.15,2.56-.07s1.43.86,2,.92c.74.09,1.84-.21,2.56-.07.48.09,1.54.88,2,.92.75.07,1.94-.06,2.56-.07a23.33,23.33,0,0,1,2.56-.08c.95.1,1.63-.15,2.57-.07.38.28,1.64.64,2,.92s2,.79,2,.93-2.67,0-2.56.07a14.85,14.85,0,0,0,2,.93l.58.27h.08l1.48.36c.78,0,1.73-.56,2.5-.57.57,0,1.59.56,2.12.52a25.5,25.5,0,0,0,2.49-.57c.38-.08,2.06-.57,2.5-.58s1.8.56,2.11.52c.84-.11,1.8-.41,2.5-.57l2.5-.58a22.89,22.89,0,0,1,2.49-.57,17.28,17.28,0,0,1,2.12.52,13.31,13.31,0,0,0,2.11.51,23.82,23.82,0,0,0,2.49-.59c.29-.07,2.17-.6,2.5-.6a15.55,15.55,0,0,1,2.11.51,13.84,13.84,0,0,0,2.12.5c.35,0,2-.56,2.49-.59.63,0,1.47.51,2.12.5s1.88-.51,2.49-.59l-1.07-.24-.72-.18a1.33,1.33,0,0,1-.33-.09c0-.14,2.15-.46,2.5-.59s1.79-.43,2.49-.6l3.69-.88h.32l1.33-.12a3.58,3.58,0,0,1,1-.1l1.07.9s0,0,.09.08c.42.19,1.93.62,1.93.72s-2.31.08-2.55.23l4.05,1.61L206,6.33c.35,0,1-.06,1.58-.11l4.54.75,5.58.27a16.17,16.17,0,0,0,2,.79,17.77,17.77,0,0,0,2.55-.33l1.91-.27.28.24,3.36.48,3.63.22c.62.07,1.89-.41,2.54-.36s1.31.61,2.06.7,1.29.64,2.06.69S239.87,9,240.66,9s1.77-.42,2.54-.36a4.71,4.71,0,0,1,1.07.37h0a3.12,3.12,0,0,0,1.05,0A23.07,23.07,0,0,0,247.6,8a25.15,25.15,0,0,1,2.33-1.08A17,17,0,0,1,252.1,7a19.35,19.35,0,0,0,2.17.07A22.94,22.94,0,0,0,256.6,6a24.37,24.37,0,0,1,2.33-1.07c.41-.13,1.69.18,2.17.07.72-.16,1.6-.87,2.32-1.07S265,3,265.75,2.85s1.42.24,2.17.07l.19,0h.09c.73-.08,1.6-.56,2.3-.57s1.35.5,2.12.52c-.06,0-.68.14-1.28.28l-.84.2a2.12,2.12,0,0,0-.37.1l.3.1.7.17c.51.13,1,.25,1.11.25a24,24,0,0,0,2.5-.58c.38-.08,2.05-.57,2.49-.58s1.83.56,2.11.52c.86-.12,1.78-.41,2.5-.58l2.49-.58a23.2,23.2,0,0,1,2.48-.58c.15,0,2.1.48,2.12.52s-2.43.43-2.48.58a17.33,17.33,0,0,0,2.12.52c.28,0,2.1-.58,2.49-.58.77,0,1.36.53,2.13.46s1.71-.66,2.47-.71,1.52.48,2.13.41A21.92,21.92,0,0,0,300.26,2c.66-.19,1.67-.56,2.47-.71.32-.05,1.73.43,2.13.41A25.05,25.05,0,0,0,307.33,1L309.79.3c.84,0,1.26.43,2.14.41.6,0,1.82-.66,2.47-.71a7.27,7.27,0,0,1,1.72.39,1.67,1.67,0,0,0,.4.08c.77.06,1.76-.37,2.54-.35.62,0,1.41.66,2.06.71.18,0,1.15-.12,1.84-.23l2.52.11,4.22.63.61.21a14.89,14.89,0,0,0,2.05.71,24.69,24.69,0,0,0,2.54-.35l.87-.1,2.49,0,5.62,0,4,.24a5.49,5.49,0,0,1,1.22.55c-.06.09-2.69.06-2.56.16a15.1,15.1,0,0,0,2,.86,15.54,15.54,0,0,0,2,.86c.36.09,2.09-.23,2.56-.17.78.18,1.18.72,2,.86.33.06,2.26-.14,2.56-.16.85-.06,1.68-.12,2.56-.16s1.71-.11,2.55-.16a23.43,23.43,0,0,1,2.57-.17c.71.1,1.28.75,2,.86.47.07,2.16-.27,2.55-.17a14.26,14.26,0,0,1,2,.86l2,.85a15,15,0,0,0,2,.86c.72.12,1.83-.28,2.56-.17.56.09,1.47.81,2,.85A22.83,22.83,0,0,0,383,8.3a23.61,23.61,0,0,1,2.56-.16c.61.09,1.4.79,2,.85H388c.79-.09,1.44-.45,2.26-.48.63,0,1.46.58,2.1.59s1.77-.46,2.52-.49,1.6-.47,2.51-.5c.62,0,1.46.58,2.11.59s1.71-.5,2.5-.5,1.42.55,2.11.59,1.86-.51,2.5-.49,1.4.52,2.11.58c.87.08,1.23.53,2.11.59a4.17,4.17,0,0,0,1.24-.24,5.19,5.19,0,0,1,1.27-.33c.77,0,1.33.5,2.11.47s1.73-.6,2.49-.63c.49,0,1.68.52,2.11.47a24,24,0,0,0,2.5-.63A22.56,22.56,0,0,1,425,8c.63,0,1.46.5,2.11.47s1.73-.6,2.5-.63,1.34.5,2.11.47,1.72-.6,2.49-.63a12,12,0,0,1,2.12.49,15.73,15.73,0,0,0,2.1.56c.39,0,2-.53,2.48-.52.79,0,1.33.54,2.1.56.37,0,2.16-.46,2.5-.52a24.58,24.58,0,0,1,2.5-.53c.78,0,1.31.54,2.09.56s1.28.52,2.08.57c.6,0,1.86-.53,2.5-.53s1.53.6,2.08.57a23,23,0,0,0,2.51-.53c.84-.19,1.68-.25,2.52-.39s1.64-.28,2.52-.35c.48,0,2-.39,2.53-.35s1.64.72,2.07.71a13.87,13.87,0,0,0,1.8-.23L476,9.13l1.72.59,2.53-.36c.33,0,2.13-.38,2.52-.35a7,7,0,0,1,1.09.33l1,.32a12.71,12.71,0,0,0,2.08.6c.42.05,2-.5,2.54-.49s1.66.62,2.08.59A23.41,23.41,0,0,0,494,9.87l2.53-.49c.83.09,1.21.53,2.09.6.6,0,1.88-.51,2.52-.49s1.33.57,2.1.59a3,3,0,0,0,.58-.06,2.42,2.42,0,0,0,.06.62c.08.23,1.18,2.11,1.28,2.22l3.95,9c0,.68.07,1.36.11,2l.12,2.17a12.86,12.86,0,0,0,.11,2.17A1.48,1.48,0,0,0,509.62,28.52Z" style="fill:#5c6db2;fill-rule:evenodd"/></g></g></svg>