<svg xmlns="http://www.w3.org/2000/svg" viewBox="0 0 515.68 127.94"><g id="fbc6b974-a139-4761-b837-1c9af4476793" data-name="Ebene 2"><g id="e17e63d5-8b11-4a03-b7b0-e79a3ac9b69f" data-name="Ebene 1"><path d="M175.89,119.35s0,0,0,0l-.13.06Z" style="fill:#1d1d1b;fill-rule:evenodd"/><path d="M176.1,119.19h-.36a.45.45,0,0,1,.14.11Z" style="fill:#1d1d1b;fill-rule:evenodd"/><path d="M222.87,116.66l.37,0h0Z" style="fill:#1d1d1b;fill-rule:evenodd"/><path d="M10.26,29.37h0v0Z" style="fill:#1d1d1b;fill-rule:evenodd"/><polygon points="10.84 96.97 10.82 97.28 10.84 97.34 10.84 96.97" style="fill:#1d1d1b;fill-rule:evenodd"/><path d="M507.54,9.53a1.94,1.94,0,0,0,0,.24c.23.09.46.19.69.27Z" style="fill:#1d1d1b;fill-rule:evenodd"/><path d="M442.29,118c-.53,0-1.82.78-2.41.86a10.76,10.76,0,0,1-1.67-.26h.63a1.46,1.46,0,0,0-.47-.15,24.13,24.13,0,0,0-2.55.21,22,22,0,0,1-2.56.22c-.54,0-1.44-.74-2-.82-.77-.1-1.78.28-2.56.21a2.8,2.8,0,0,1-.86.09l-4.24-.16-6.59-.92-2-.82h-.33l-2.38.43-2.52.46a23.26,23.26,0,0,1-2.52.46c.51,0,1.61.64,2.08.62.77,0,1.88-.36,2.52-.46.39-.06,2.09-.47,2.53-.46l.28,0h.08a16.94,16.94,0,0,0,1.74.76,4.86,4.86,0,0,1,1.19-.1l5,.86,5.06.09a2.66,2.66,0,0,0,.42.14c.69.11,1.85-.3,2.56-.21s1.29.74,2,.82,1.71-.29,2.56-.22c.62.06,1.37.74,2,.82a4.53,4.53,0,0,0,1.35-.11h-.16a4.86,4.86,0,0,1,1.14-.4c.67-.1,1.46.35,2.15.28.33,0,2.13-.75,2.42-.85a23.55,23.55,0,0,1,2.42-.86,14,14,0,0,1-2.16-.28A15.4,15.4,0,0,0,442.29,118Z" style="fill:#1d1d1b;fill-rule:evenodd"/><path d="M335.27,119.44c-.66,0-1.36-.67-2-.76-.33,0-2.25.26-2.55.29a24.55,24.55,0,0,1-2.54.3c-.63,0-1.43-.67-2-.76s-1.9.35-2.54.29-1.29-.65-2-.76l-2.55.29h-.19l-.52.2h0l-5.39.45,0,0-.62,0c-.15,0-2.09,1-2.36,1a14.84,14.84,0,0,1-2.17-.14,15,15,0,0,0-2.17-.15,25.34,25.34,0,0,0-2.36,1c-.58.24-1.64.79-2.36,1-.42.11-1.7-.24-2.17-.15a4.12,4.12,0,0,0-.71.25h0l-5.74,1-1.12.39-1.63-.74c-.44-.08-1.59-.87-2-.9a22.8,22.8,0,0,0-2.56.11l-2.56.1a22.9,22.9,0,0,1-2.56.11c-.42,0-1.51-.82-2-.9-.76-.13-1.81.24-2.56.11s-1.23-.77-2-.9a21.55,21.55,0,0,0-2.38.12h-.13c-.79,0-1.73.52-2.51.5s-1.38-.58-2.1-.57-1.66.48-2.51.5c-.62,0-1.45-.56-2.1-.57s-1.73.48-2.51.5l-2.83.58,0,0-11.6-.09-2-.94-2.56,0h-.16l-5.42-1.41h0l-2.86-1.38c-.74-.18-1.21-.79-2-.94s-1.79.17-2.56,0l-2.57,0-1.24.06a6.77,6.77,0,0,1-.85.4c-.51.18-1.62-.11-2.18,0-.74.21-1.51,1-2.26,1.2s-1.43-.14-2.18,0c-.31.08-2,1.06-2.26,1.2a21.74,21.74,0,0,1-2.26,1.2,17.77,17.77,0,0,1-2.18,0,14.62,14.62,0,0,0-2.17,0,25.44,25.44,0,0,0-2.26,1.2,25,25,0,0,1-2.27,1.2c-.35.13-1.75,0-2.18,0a3.4,3.4,0,0,0-.94.47l0,0-.36,0a6.92,6.92,0,0,1-1.49-.13c-.5-.17-1.36-1.07-1.82-1.18a25,25,0,0,0-2.56-.28c-.75-.08-1.69-.11-2.55-.27-.53-.1-2-.09-2.54-.27-.74-.24-1.09-.92-1.83-1.18.07,0,.7.1,1.31.16a12.23,12.23,0,0,0,1.24.11,18.89,18.89,0,0,0-1.82-1.18,19.19,19.19,0,0,0-1.83-1.18,21.49,21.49,0,0,0-2.55-.27l-2.55-.27c-.4,0-2.09-.13-2.55-.27a18,18,0,0,1-1.83-1.19L175,116h.16a8.54,8.54,0,0,0-1.6,0c-.39.07-1.81,1-2.28,1.17s-1.66-.15-2.17,0a21,21,0,0,0-2.28,1.17c-.76.38-1.57.78-2.29,1.17l-2.27,1.17-1.23.59h0l-6.27.58h-.16a11.33,11.33,0,0,0-1.15,0c-.69.17-1.5.9-2.21,1.14l-.07,0H151c-.78-.08-1.8.27-2.56.16-.48-.08-1.57-.84-2-.86a25,25,0,0,0-2.56.15l-2.56.16c-.29,0-2.26.21-2.55.16a15.19,15.19,0,0,1-2-.86l-2-.86a15.23,15.23,0,0,0-2-.86,23,23,0,0,0-2.55.15l-2.28.14h0l-7.36.39-1.47-.11-2.37,1-2.37,1a25.54,25.54,0,0,0-2.37,1l-3.72.87-3-.24a14.4,14.4,0,0,1-1.87.73h-.61l-4.51-1.09c-.18-.1-.29-.18-.26-.22s2.44.35,2.56.19-1.83-.92-1.86-1.12l-2.56-.2c-.74,0-2-.22-2.56-.19s-2.38-.32-2.55-.2A16.88,16.88,0,0,0,93,123.44a12.36,12.36,0,0,1,1.86,1.13,6,6,0,0,1-1.43-.12l-7.12-2.36h0l-.28-.17c-.79-.31-1-.83-1.86-1.13-.57-.19-1.94,0-2.56-.19s-1.15-.88-1.86-1.13a3.33,3.33,0,0,0-.88-.1l.25,0a9.31,9.31,0,0,1-1.67.15,17.57,17.57,0,0,1-2-.84,18.76,18.76,0,0,0-2-.85,22.17,22.17,0,0,0-2.55.18l-2.56.18a23.08,23.08,0,0,1-2.56.17,15.79,15.79,0,0,1-2-.84,14.3,14.3,0,0,0-2-.85c-.39-.09-2.08.25-2.56.18-.72-.1-1.27-.75-2-.84a13.12,13.12,0,0,0-2,.12h.35l-.52.18a21.87,21.87,0,0,1-2.44.79c-.42.08-1.66-.39-2.15-.34a23.94,23.94,0,0,0-2.44.78l-.7.22,0,0-5.49,0h0a3.37,3.37,0,0,0-.57-.07c-.84.1-1.6.65-2.44.78-.67.09-1.79.74-2.44.78a13.09,13.09,0,0,1-2.15-.34,13.72,13.72,0,0,0-2.14-.34,2.77,2.77,0,0,0-.53.14l.08,0-1.86.78c-.37.14-1.95.88-2.38,1-.77.12-1.4-.3-2.17-.2S23.8,119.91,23,120c-.48.08-2,.93-2.38,1a16.54,16.54,0,0,1-2.17-.19,14.07,14.07,0,0,0-2.17-.2c-.33,0-2.08.84-2.38,1s-1.95.88-2.38,1c-.77.13-1.39-.31-2.16-.19S8,122,7.22,122.14c-.6.07-1.74.84-2.38,1H4.78l-.85.12.25-.76c.23-.68.9-1.12,1.1-1.81a25.38,25.38,0,0,0,.17-2.55,25.45,25.45,0,0,1,.18-2.57c.17-.6,1-1.27,1.11-1.86.21-.88,0-1.68.17-2.56.15-.61.94-1.25,1.12-1.87s.1-2,.17-2.56l-.54.94-.38.64a1.54,1.54,0,0,1-.19.29c-.08,0,.15-2.25.17-2.55l.18-2.56c.2,0,1-2,1.11-1.87s-.3,2.65-.17,2.56a14.43,14.43,0,0,0,1.11-1.87,17.74,17.74,0,0,0,1.11-1.87,23.15,23.15,0,0,0,.18-2.56l0-.55-.77-1.44c-.15-.29-1.1-1.93-1.19-2.27a13.31,13.31,0,0,1,0-2.17c0-.16,0-2.1,0-2.18-.34-.79-.84-1.59-1.2-2.27a25.45,25.45,0,0,0-1.2-2.26c-.11-.15.13,2.14,0,2.18s-1-2-1.19-2.27A20.83,20.83,0,0,1,4,82.33c-.19-.53.12-1.6,0-2.17s-1.13-1.87-1.2-2.27a13.31,13.31,0,0,1,0-2.17v-.53l-.08-.75.57-1.55a13.9,13.9,0,0,0,.77-2c0-.23-.26-2.3-.29-2.54s-.32-2.15-.28-2.55a15.55,15.55,0,0,1,.76-2c.07-.19.75-1.83.76-2a23.59,23.59,0,0,0-.28-2.56c-.09-.79-.16-1.88-.29-2.54A24.18,24.18,0,0,0,4.11,54c-.13-.19-.61,2.11-.76,2a24.49,24.49,0,0,1-.28-2.55,15.9,15.9,0,0,1,.66-1.7l0-.37a2,2,0,0,0,.15-.32c.18-.75-.1-1.79,0-2.56.34-.63.69-1.29,1-1.92l1-1.92a15.13,15.13,0,0,1,1-1.93c.13-.1-.15,2.5,0,2.57a15.73,15.73,0,0,0,1-1.92c.05-.16.05-2.35.05-2.56l.06-2.56a24.6,24.6,0,0,1,.05-2.57,13.76,13.76,0,0,1,1-1.92c.07-.14,1-1.82,1-1.92.09-.85,0-1.83,0-2.56v.31c-.25-.73-.53-1.74-.79-2.33s-.63-2.24-.82-2.42-.15,2.19-.31,2.15-.62-2.23-.82-2.43l.61-4.31c.11-.71.21-1.43.31-2.15A13.86,13.86,0,0,0,8.74,16c0-.2-.75-2.21-.82-2.43L7.1,11.18a22.24,22.24,0,0,1-.83-2.43,2.07,2.07,0,0,1,0-.21l.26-3.61L9,5.92c.48.2,1.6.78,1.76.86a17.78,17.78,0,0,0,2,.92c.28.09,2.15-.15,2.56-.08a17.06,17.06,0,0,1,2,.92c.16.07,1.79.9,2,.92a23.33,23.33,0,0,0,2.56-.08l2.56-.08c.83,0,1.82,0,2.56-.08S28.3,9.17,29,9.15h0l2.41.11,2.73-.37h0a2.57,2.57,0,0,1,.78,0,24.85,24.85,0,0,1,2.21-1.28c.06,0,.61-.06,1.14-.08l.71,0h.33c0,.19-2.07,1-2.23,1.27l-2.16.12L32.7,10.14a10.61,10.61,0,0,1-1.57.86h.4l-.47,0,.07,0a.6.6,0,0,0-.3.06l.18.1.45.21-.28,0c.59,0,1.4-.08,1.47-.1.75-.26,1.48-1,2.23-1.28.45-.14,1.77.05,2.16-.11a24.93,24.93,0,0,0,2.23-1.28,22.82,22.82,0,0,1,2.22-1.28c.55-.21,1.59.07,2.17-.12.74-.23,1.49-1,2.22-1.27s1.44.09,2.18-.12c.31-.09,2-1.13,2.22-1.28A23.12,23.12,0,0,1,52.5,3.29c.65-.23,1.5.09,2.17-.12A2.57,2.57,0,0,0,55.06,3l.06,0h.34a13.13,13.13,0,0,1,2.14-.1c.75.15,1.21.79,2,.94s1.82-.2,2.56-.06,1.2.79,2,.94,1.86-.21,2.55-.06,1.17.75,2,.94c.59.15,1.92-.18,2.56-.06s1.31.84,2,.94a21.25,21.25,0,0,0,2.55-.06l2.55-.06,1.25-.06a9.38,9.38,0,0,1,1.3,0,15.87,15.87,0,0,1,2,.85,14.67,14.67,0,0,0,2,.85c.39.1,2.08-.24,2.57-.17.75.11,1.25.7,2,.85l4.25,1.13,2.83,1.67,6.16-.42,4.82-1.25c.21,0,2.11-1,2.33-1.09A23,23,0,0,1,112,7.56c.4-.14,1.7.17,2.17.06.76-.17,1.55-.88,2.32-1.09s1.49.23,2.18.07,1.62-.94,2.31-1.08,1.37.21,2.18.06c.6-.1,1.69-.94,2.32-1.08a5.17,5.17,0,0,1,1.55.1h.16a2,2,0,0,0,.59.22,23.57,23.57,0,0,0,2.56-.08c.39,0,2.13-.15,2.56-.07s1.43.86,2,.92c.74.09,1.84-.21,2.56-.07.48.09,1.54.88,2,.92.76.07,1.94-.06,2.56-.07a23.33,23.33,0,0,1,2.56-.08c1,.1,1.63-.15,2.57-.07a15.71,15.71,0,0,1-2-.93,14.48,14.48,0,0,0-2-.92c-.71-.15-1.84.21-2.56.07s-1.22-.78-2-.92-1.81.21-2.56.07-1.21-.78-2-.92a23.88,23.88,0,0,0-2.56.07c-.69,0-1.75.14-2.57.08a7.84,7.84,0,0,1-1.36-.66l-1.17,0a2.83,2.83,0,0,0-.66,0c-.31.07-2,1-2.31,1.09a22.94,22.94,0,0,1-2.33,1.08A19.25,19.25,0,0,1,119,4.3a15.28,15.28,0,0,0-2.17-.07,25,25,0,0,0-2.33,1.09c-.17.08-2.21,1.07-2.32,1.08A14.52,14.52,0,0,1,110,6.34c-.1-.13,2.3-.93,2.32-1.09s-2,.09-2.18-.07l-2.31,1.09a25.44,25.44,0,0,0-2.33,1.09l-2.43,1-4,.38-3.7-.38-3-.9-2-.85a21,21,0,0,0-2-.85,18.59,18.59,0,0,0-2-.85c-.59-.12-1.92.27-2.56.17s-1.21-.72-2-.85-1.82.3-2.56.16c-.45-.09-1.56-.9-2-.94a21,21,0,0,0-2.55.06l-2.55.06-2.55.06a23.55,23.55,0,0,1-2.55.06c-.65-.12-1.32-.78-2-.94s-1.92.18-2.55.06-1.24-.76-2-.94c-.54-.14-1.94.16-2.55.06a17.84,17.84,0,0,1-2-.94l-.4-.21L54.32.86A9.21,9.21,0,0,0,52.6,1a24.81,24.81,0,0,0-2.22,1.28c-.6.34-1.48.95-2.22,1.28-.3.13-1.79,0-2.18.11s-2,1.13-2.22,1.28a21.69,21.69,0,0,1-2.22,1.28c-.21.08-2,.1-2.17.12a13.71,13.71,0,0,0-2.17.11c-.32.1-2,1.13-2.23,1.28a3,3,0,0,1-.33.19L30,8.14c-.75.06-1.79,0-2.56.08-.73-.18-1.21-.78-2-.92-.48-.09-2.18.19-2.57.08a15.3,15.3,0,0,1-2-.92l-2-.93a17.26,17.26,0,0,0-2-.92c-.39-.07-2.22.07-2.57.08-.74,0-1.69.13-2.55.09-.54,0-2,.18-2.57.08l-.2-.07L5.61,3.37,5.14,8.69a13,13,0,0,0-.3,1.94,22,22,0,0,0,.82,2.42c.19.58.67,1.71.82,2.44.07.37-.34,1.72-.31,2.15,0,.6.75,1.79.82,2.43s-.35,1.39-.3,2.15c0-.06-.2-.66-.4-1.25L6,20.17a2.92,2.92,0,0,0-.15-.38A17,17,0,0,0,5.56,22a15.22,15.22,0,0,0-.31,2.15,25.61,25.61,0,0,0,.82,2.43c.28.81.55,1.62.82,2.42.1.26.25.67.4,1.09a.06.06,0,0,0,0,0c0-.05,0-.12,0-.18l0-1.18a10.82,10.82,0,0,1,0,1.18v.26l0,0c-.09.41-.88,1.46-1,1.88-.17.58.1,1.94,0,2.57-.11.45-1,1.51-1,1.92a22.37,22.37,0,0,0,0,2.56c0,.86,0,1.71,0,2.56a22.24,22.24,0,0,1-.06,2.56A16.72,16.72,0,0,1,4,46a14.84,14.84,0,0,0-1,1.91c-.15.63.12,2,0,2.56a2.56,2.56,0,0,1-.36.72l-.08.52A3.81,3.81,0,0,0,2,53c-.08.76.37,1.78.29,2.55s-.69,1.27-.77,2,.32,1.81.29,2.55c0,0,.18-.55.37-1,.09-.25.18-.5.26-.68a1.67,1.67,0,0,1,.13-.31c.08,0,.25,2.25.28,2.55a24.18,24.18,0,0,1,.29,2.55,17.86,17.86,0,0,1-.77,2l-.76,2a15.72,15.72,0,0,0-.76,2c-.07.4.31,2.06.29,2.55s-.7,1.4-.77,2a1.93,1.93,0,0,0,0,.34l.07,1.38.1.22a19.83,19.83,0,0,1,1.08,2c.23.8,1,1.47,1.19,2.27a15.89,15.89,0,0,1,0,2.17,15.89,15.89,0,0,0,0,2.17,23,23,0,0,0,1.2,2.27L5.3,89c.35.65.87,1.47,1.2,2.26.1.25,0,1.84,0,2.18s1,2,1.2,2.27.5.88.81,1.46a2,2,0,0,0,.35-.66h0l0,1.46a5.71,5.71,0,0,0-.38-.79,4.12,4.12,0,0,0-.76,1.21c-.13.46,0,2.18-.17,2.55a13.59,13.59,0,0,1-1.11,1.87,15.94,15.94,0,0,0-1.12,1.87,22.91,22.91,0,0,0-.17,2.56L5,109.73c0,.34-.07,2.2-.17,2.56a14.22,14.22,0,0,1-1.12,1.87A21.53,21.53,0,0,0,2.64,116a17.74,17.74,0,0,0-1.11,1.87c-.22.75,0,1.79-.18,2.56,0-.07.29-.54.56-1,.14-.22.27-.44.37-.61a1.4,1.4,0,0,1,.19-.26c.07,0-.15,2.21-.18,2.56a5.9,5.9,0,0,1-.41.69l-1.88,3,5.22.62a11.15,11.15,0,0,0,1.36.12,24.08,24.08,0,0,0,2.38-1,23.14,23.14,0,0,1,2.38-1,18.07,18.07,0,0,1,2.17.19,15,15,0,0,0,2.16.19c.3,0,2-.87,2.38-1a18.44,18.44,0,0,1,2.17.19,14.14,14.14,0,0,0,2.17.19c.67-.09,1.69-.84,2.37-1s1.65.31,2.17.19a22.25,22.25,0,0,0,2.38-.95,25.1,25.1,0,0,1,2.38-1l.31,0-.23,0a12.44,12.44,0,0,0,1.84.34,15.64,15.64,0,0,1,2.15.34,14.86,14.86,0,0,0,2.15.35c.63-.06,1.82-.66,2.43-.79-.11,0-2-.31-2.14-.34a15.48,15.48,0,0,1-2.15-.34,25.59,25.59,0,0,1,2.44-.78c.52-.19,1.13-.37,1.7-.55h0l3.18-.55,1.08.19a11.17,11.17,0,0,0-1.37.47,25.59,25.59,0,0,0-2.44.78c0,.07,2.28.29,2.15.34.71-.27,1.7-.51,2.44-.78l2.14.34a14.89,14.89,0,0,0,2.15.34c.39,0,2.12-.68,2.45-.78.71-.23,1.59-.59,2.44-.79.28-.06.82-.27,1.34-.46h-.84a5.36,5.36,0,0,1,1.15-.05,17.16,17.16,0,0,1,2,.85l-1.27.07-.88.06-.41,0a1.4,1.4,0,0,0,.29.15l.67.28c.48.21,1,.41,1,.42a22.67,22.67,0,0,0,2.55-.18l2.56-.18,2.56-.17a22,22,0,0,1,2.55-.18c.44,0,1.52.77,2,.84s2.17-.27,2.56-.17a15.46,15.46,0,0,1,2,.84,14.84,14.84,0,0,0,2,.85c.39,0,2.15-.15,2.53-.18l-.54-.11h0c.31,0,2.24.09,2.56.19.79.26,1.1.85,1.85,1.13l2.39.18,9.29,2.83h0l1.58,1a16.21,16.21,0,0,0,1.85,1.13c.24.07,2.41.21,2.56.19a14.8,14.8,0,0,0-1.31-.8l3.75-.5h.88a4.49,4.49,0,0,1,1.2.07c.75-.09,1.42.31,2.17.17a8.73,8.73,0,0,0,1-.36l1.25.5,0,0a1,1,0,0,0,.22,0h0c.51.06,1.77.15,2,.13s2.15-.89,2.37-1a24.71,24.71,0,0,1,2.37-1c.41-.12,1.69.25,2.17.16.75-.13,1.6-.8,2.37-1s1.41.3,2.16.17c.07,0,.67-.25,1.25-.49l.63-.27,3.77-1.35.6,0c.39,0,2.13-.22,2.56-.16.76.12,1.24.75,2,.86s1.76-.26,2.56-.15a15.09,15.09,0,0,1,2,.86,19.1,19.1,0,0,0,2,.86,22.83,22.83,0,0,0,2.56-.16c.67,0,1.75-.19,2.56-.16.36,0,1.57.8,2,.86s2-.17,2.55-.15l.94,0,1-.07h0l1.44-.77,2.09-1.07h0l6.18-1.3a2.2,2.2,0,0,1,.64,0c.69-.39,1.58-.79,2.28-1.18.83-.14,1.32.18,2.17,0,.6-.13,1.66-1,2.29-1.17.07,0,.61,0,1.14,0h.72a1.15,1.15,0,0,1,.31,0,24.66,24.66,0,0,1-2.28,1.17l-2.28,1.17c.83-.15,1.32.17,2.17,0,.53-.12,1.72-1,2.29-1.17s1.55.15,2.17,0a24.36,24.36,0,0,0,2.28-1.17l.3-.14c-.32,0-1.09-.11-1.69-.19l1.68,0c-.32-.22-1.06-.58-1.44-.82h1.57c-.2,0-.32,0-.31,0h0c-.44-.07-.91-.16-1.2-.18h1.44c-.15.08-.22.13-.24.17a3.6,3.6,0,0,0,1,.1c.64.4,1.17.79,1.83,1.19a16.36,16.36,0,0,0,1.82,1.18c.54.18,2.07.07,2.55.27.66.27,1.13,1,1.83,1.18.46.15,2.18.11,2.55.27A15.58,15.58,0,0,1,189,123.7a16.06,16.06,0,0,0,1.83,1.19c.43.13,2.16.23,2.55.27l2.55.27c.53,0,1.64.09,2.34.22l1.05.2.5-.19.19-.08c.38-.14,1.74.06,2.17,0,.59-.14,1.64-1,2.27-1.2s1.73.12,2.17,0a21.49,21.49,0,0,0,2.26-1.2c.67-.35,1.47-.86,2.27-1.2.5-.22,1.72-1,2.26-1.2s1.53.16,2.18,0a17.61,17.61,0,0,1,2.17,0,16.09,16.09,0,0,0,2.18,0c.75-.21,1.5-1,2.26-1.2l-1.13,0h-.72a1.57,1.57,0,0,1-.32,0,2.23,2.23,0,0,1,.33-.2l.74-.4c.55-.29,1.11-.58,1.19-.6a7.09,7.09,0,0,1,1.41-.06l-1.11.07.67.36a20,20,0,0,0,2,.94,21.53,21.53,0,0,0,2.56-.05l2.56,0,1.84,0,5.24,2.13a4.35,4.35,0,0,0,1.36.69,24.39,24.39,0,0,0,2.57,0l2.56,0,.16,0,14.08.74c.35,0,2.07-.49,2.51-.5.63,0,1.45.56,2.1.58s1.74-.48,2.51-.51,1.76-.52,2.51-.51c.49,0,1.67.61,2.1.58a9.55,9.55,0,0,0,1-.17l-.37,0,1.52-.1,2.56-.11a21.08,21.08,0,0,1,2.56-.1,19.86,19.86,0,0,1,2,.9,15.58,15.58,0,0,0,2,.9c.34.09,2.12-.17,2.56-.11.62.08,1.34.79,2,.9s1.79-.2,2.56-.11l5.12-.21,5.84-1.48a4,4,0,0,0,1.37.11c.6-.08,1.73-.88,2.37-1s1.43.25,2.17.15,1.43.29,2.16.15,1.61-.86,2.37-1,1.41.29,2.17.15a3,3,0,0,0,.71-.25h0l5.36-1.66a2.24,2.24,0,0,1,.82.06l.28,0-.25,0a8.28,8.28,0,0,0,1.75.69c.77.08,1.78-.36,2.55-.29s1.28.68,2,.76,1.78-.33,2.55-.29c.59,0,1.42.69,2,.76s2-.28,2.55-.29c.84,0,1.84-.21,2.55-.29l2.55-.29a19.45,19.45,0,0,1,2.55-.29c-.63,0-1.4-.69-2.05-.76S336.07,119.5,335.27,119.44Z" style="fill:#1d1d1b;fill-rule:evenodd"/><path d="M402.62,117.62a15.5,15.5,0,0,1-2.09-.62,16.93,16.93,0,0,0-2.08-.62,22.63,22.63,0,0,0-2.52.46l-2.53.46a22.27,22.27,0,0,1-2.52.45c.49,0,1.66.65,2.09.62a23.34,23.34,0,0,0,2.52-.45,22,22,0,0,1,2.52-.46,13.94,13.94,0,0,1,2.09.62,20.27,20.27,0,0,0,2.08.62,25.19,25.19,0,0,0,2.52-.46,22.62,22.62,0,0,1,2.53-.46c-.48,0-1.57-.6-2.09-.62S403,117.67,402.62,117.62Z" style="fill:#1d1d1b;fill-rule:evenodd"/><path d="M344.81,119.09a12.3,12.3,0,0,0-2.07.52h.1a3.16,3.16,0,0,1-.43,0c-.83-.07-1.71.33-2.54.29a18.07,18.07,0,0,1,2,.75l.83.34h.06a6.52,6.52,0,0,0,1.25.28c.41,0,2.16-.5,2.5-.58s2.15-.57,2.5-.57c-.21,0-1.91-.48-2.11-.52A15.29,15.29,0,0,0,344.81,119.09Z" style="fill:#1d1d1b;fill-rule:evenodd"/><path d="M390.65,117.72c-.52-.07-1.72-.39-1.92-.43a13.28,13.28,0,0,0-2.12-.45c-.4,0-2,.63-2.48.66-.78,0-1.34-.47-2.12-.46s-1.78.63-2.48.66-1.4-.5-2.12-.45-1.64.58-2.48.66c-.62.06-1.47-.48-2.12-.45s-1.76.57-2.48.65l1.09.22.71.15.32.09c0,.07-2.18.59-2.48.66s-1.8-.47-2.12-.46c-.77,0-1.72.61-2.49.62a16.86,16.86,0,0,1-2.12-.52l-2.12-.52a17.12,17.12,0,0,0-2.11-.52,21.87,21.87,0,0,0-2.5.57L354,119l-2.49.57a21.79,21.79,0,0,1-2.49.58c.78,0,1.33.53,2.11.52.49,0,2.1-.61,2.5-.58a15.67,15.67,0,0,1,2.12.52,15.14,15.14,0,0,0,2.11.52,24,24,0,0,0,2.5-.57c.38-.08,2.05-.57,2.49-.58.64,0,1.5.56,2.12.52.78,0,1.73-.55,2.49-.6s1.35.49,2.12.45,1.72-.62,2.48-.65,1.44.5,2.12.45a23.08,23.08,0,0,0,2.49-.66l2.48-.66a22.29,22.29,0,0,1,2.48-.66c.54-.05,1.57.45,2.13.45s1.83-.63,2.48-.65,1.37.49,2.13.45,1.54-.53,2.26-.64h.23l-.2,0Z" style="fill:#1d1d1b;fill-rule:evenodd"/><path d="M515.65,29.35a5.67,5.67,0,0,1-.13-1.5L513,23.4l-.5-.86-3.44-8a14.29,14.29,0,0,0-.12-2.17c-.15-.59-1.08-1.61-1.28-2.22a1.76,1.76,0,0,1-.07-.4,3.08,3.08,0,0,0-.76-.21c-.5,0-2,.51-2.52.49-.78,0-1.32-.57-2.09-.59s-1.74.49-2.52.49a17.13,17.13,0,0,1-2.09-.59,16.62,16.62,0,0,0-2.09-.6c-.48,0-2.1.42-2.52.49a25,25,0,0,1-2.52.49c-.79,0-1.31-.55-2.09-.59a12.08,12.08,0,0,1-2.07-.6,18.64,18.64,0,0,0-2.07-.71,23.05,23.05,0,0,0-2.53.35,22.56,22.56,0,0,0-2.52.35c-.21.08,2.11.6,2.07.71a6.37,6.37,0,0,1-1.65.21l-3.73-.82a3.94,3.94,0,0,0-1.29-.46c-.88,0-1.65.38-2.53.35-.62,0-1.43-.66-2.07-.71s-1.78.42-2.53.36-1.3-.65-2.08-.71c-.48,0-2.12.42-2.52.35a19.93,19.93,0,0,1-2.08-.59,21.45,21.45,0,0,0-2.09-.56,23.46,23.46,0,0,0-2.53.52c-.71.15-2,.34-2.51.53-.17.06,2.08.47,2.09.56l-.37.09-.84.18c-.61.13-1.24.26-1.31.26-.73,0-1.35-.57-2.09-.57a16.86,16.86,0,0,1-2.1-.56l-2.1-.56a17,17,0,0,0-2.11-.57c-.47,0-2.13.45-2.52.53l-2.5.52c-.83.16-1.66.36-2.5.58a23.15,23.15,0,0,1-2.49.64,16.7,16.7,0,0,1-2.11-.48,15.91,15.91,0,0,0-2.11-.47c-.4,0-2,.62-2.5.64-.78,0-1.33-.48-2.11-.48s-1.79.61-2.49.64-1.34-.5-2.11-.47-1.72.6-2.5.63-1.36-.51-2.1-.47-1.67.58-2.5.62c-.63,0-1.46-.58-2.1-.59s-1.74.47-2.5.49-1.75.51-2.51.5-1.33-.57-2.1-.59-1.74.51-2.51.5-1.33-.54-2.1-.59a13.83,13.83,0,0,1-2.09-.59l-2.1-.59a17.94,17.94,0,0,0-2.09-.59c-.44,0-2.14.43-2.51.5l-1,.2.25,0-1.52.1-2.56.16a24.4,24.4,0,0,1-2.55.17c-.39,0-1.57-.77-2-.86-.59-.12-1.92.26-2.56.17s-1.23-.73-2-.86-1.81.28-2.55.17-1.25-.74-2-.86-1.79.28-2.55.17-1.23-.73-2-.86-1.83.24-2.56.17-1.36-.76-2-.86-1.82.28-2.56.16-1.23-.74-2-.86c-.47-.07-2.17.27-2.56.16a13.51,13.51,0,0,1-2-.85l-2-.86-4.33.28-9.15-.77h0l-.9-.27c-.23-.05-2.2.36-2.55.35-.62,0-1.41-.66-2.05-.71a12.5,12.5,0,0,0-1.26.14h0l-3.95.18L326,.77h0a4.76,4.76,0,0,1-1.25-.4c-.78,0-1.78.4-2.54.34s-1.3-.65-2.06-.7a4.47,4.47,0,0,0-1.26.17h-.27a4.52,4.52,0,0,1-1.24.36c-.75,0-1.38-.46-2.13-.41s-1.68.66-2.46.71-1.41-.47-2.13-.41-1.61.61-2.46.71c-.62.07-1.48-.45-2.12-.41s-1.83.6-2.47.71c.37-.06,1.69.43,2.13.41-.78.09-1.7.66-2.47.71-.07,0-.61-.09-1.13-.19s-1-.21-1-.22c.15-.21,2.17-.5,2.46-.71-.7,0-1.42-.47-2.12-.41s-1.69.66-2.46.71c-.49,0-1.7-.48-2.12-.41-.75.11-1.87.55-2.48.7A24.22,24.22,0,0,1,292,2.6c-.71,0-1.42-.49-2.12-.51s-1.84.57-2.48.57-1.38-.48-2.12-.51c-.56,0-1.87.55-2.49.58a18.08,18.08,0,0,1-2.11-.52,14.8,14.8,0,0,0-2.11-.52,23.82,23.82,0,0,0-2.49.58c-.38.08-2.05.57-2.49.58-.64,0-1.49-.56-2.1-.52a3.29,3.29,0,0,0-.66.12l-.51.07a8.92,8.92,0,0,1-1.71.83c-.75.16-1.43-.25-2.17-.08s-1.58.91-2.33,1.08c-.6.13-1.62-.24-2.17-.08a20.27,20.27,0,0,0-2.33,1.08c-.62.29-1.55.81-2.33,1.08-.31.1-1.78-.16-2.17-.08s-2,1-2.32,1.08a22.77,22.77,0,0,1-2.33,1.07c-.66.17-1.51-.18-2.18-.07a8.42,8.42,0,0,0-1.7.83l.47,0a2.73,2.73,0,0,1-.66.06c-.76,0-1.33-.6-2.06-.69s-1.3-.65-2-.7-1.77.41-2.54.36-1.28-.64-2-.7-1.75.4-2.54.36c.06,0,.57.17,1.07.34l.68.24.3.12a8.64,8.64,0,0,1-1.93.25l-7-.84L228,7.93a13.79,13.79,0,0,0-2-.7c-.41-.07-2,.4-2.54.36s-1.61-.78-2-.78A19.89,19.89,0,0,0,219,7l-7.91-.6a6.62,6.62,0,0,1-1.39-.51c-.63-.09-1.41-.75-2-.8a8.28,8.28,0,0,0-1.29.08l-3.93-.93-.31-.13-1-.39a10.59,10.59,0,0,0-1.75.15l-.47,0-.77.21c-.38.08-2.06.58-2.5.59s-1.83-.54-2.11-.5c-.85.12-1.78.42-2.49.59l-2.5.6c-.28.07-2.18.6-2.49.59a13.93,13.93,0,0,1-2.11-.5L181.8,5a18,18,0,0,0-2.11-.51,20.65,20.65,0,0,0-2.49.6c-.83.19-1.64.41-2.5.59l-2.49.57c-.39.08-2.06.57-2.5.58-.74,0-1.38-.49-2.11-.52L168.87,6l.83-.19a3.1,3.1,0,0,0,.39-.11A16.66,16.66,0,0,0,168,5.16l-2.11-.52-2.49.57c-.78.18-1.86.37-2.5.58-.48.15-2.29.4-2.5.57s2.17.37,2.12.52-2.27.56-2.5.58c-.53,0-1.55-.53-2.11-.52-.37,0-2.25.6-2.5.57A14.12,14.12,0,0,1,151.28,7c-.07-.15,2.45-.42,2.5-.58a18.62,18.62,0,0,0-2.11-.52A5.67,5.67,0,0,0,151,6l.57,0-1.91.08c-.35,0-2.16.15-2.56.08.39.28,1.65.64,2,.92s2,.79,2,.93-2.67-.05-2.55.07a14.08,14.08,0,0,0,2,.93l.59.27h.07l1.49.36c.78,0,1.73-.56,2.5-.57.56,0,1.58.56,2.11.52.71-.06,1.91-.45,2.5-.57.38-.08,2.06-.57,2.49-.58s1.81.56,2.12.52c.83-.11,1.79-.41,2.49-.57l2.5-.58a22.55,22.55,0,0,1,2.5-.57,17.58,17.58,0,0,1,2.11.52,13.59,13.59,0,0,0,2.11.51,24,24,0,0,0,2.5-.59c.29-.07,2.17-.6,2.49-.6a14.86,14.86,0,0,1,2.11.51,14.43,14.43,0,0,0,2.12.5c.35,0,2-.56,2.49-.59.63,0,1.48.51,2.12.5s1.88-.51,2.49-.59l-1.06-.24-.73-.17a1.19,1.19,0,0,1-.32-.1c.05-.14,2.15-.46,2.49-.59.49-.2,1.8-.43,2.49-.6l3.69-.88h.33l1.32-.12a3.71,3.71,0,0,1,.95-.1l1.07.9s0,0,.1.08h0a19.05,19.05,0,0,1,1.92.72c-.08.17-2.31.08-2.54.23l4,1.61L208.67,8c.36,0,1-.06,1.58-.11h0l4.55.75,5.58.27a15.44,15.44,0,0,0,2,.79A17.59,17.59,0,0,0,225,9.35l1.92-.27.28.24,3.36.48,3.63.22c.61.07,1.88-.41,2.54-.36s1.3.61,2,.7,1.29.64,2.06.69,1.75-.38,2.54-.36,1.76-.42,2.54-.36a4.66,4.66,0,0,1,1.06.37h0a3.06,3.06,0,0,0,1,0,24.37,24.37,0,0,0,2.33-1.07,23.8,23.8,0,0,1,2.32-1.08,17.23,17.23,0,0,1,2.18.08,19.19,19.19,0,0,0,2.17.07,21.79,21.79,0,0,0,2.32-1.08,24.37,24.37,0,0,1,2.33-1.07c.41-.13,1.7.18,2.18.07.72-.16,1.6-.87,2.32-1.07s1.6-.92,2.33-1.08,1.42.24,2.17.07l.18-.05h.09c.74-.08,1.61-.56,2.31-.57s1.35.5,2.11.52c0,0-.67.14-1.28.28l-.83.2a2.09,2.09,0,0,0-.38.1,1.41,1.41,0,0,0,.31.1l.69.17c.51.13,1,.25,1.11.25A22.88,22.88,0,0,0,277.4,5c.38-.08,2.06-.57,2.49-.58s1.83.56,2.12.52c.85-.12,1.78-.41,2.49-.58L287,3.76a24.4,24.4,0,0,1,2.48-.58c.15,0,2.11.48,2.13.52s-2.44.43-2.49.58a18.53,18.53,0,0,0,2.13.52c.27,0,2.1-.58,2.49-.58.76,0,1.35.53,2.12.46S297.56,4,298.32,4s1.53.48,2.13.41a21.34,21.34,0,0,0,2.47-.71c.66-.19,1.68-.56,2.47-.71.32,0,1.74.43,2.14.41s2.17-.62,2.46-.71L312.46,2c.84,0,1.26.43,2.13.41.61,0,1.82-.66,2.47-.71a7.16,7.16,0,0,1,1.72.39h0a1.77,1.77,0,0,0,.4.08c.77.06,1.76-.37,2.54-.35.63,0,1.42.66,2.06.71.18,0,1.15-.12,1.85-.23l2.51.11,4.22.63.61.21a15.52,15.52,0,0,0,2.06.71,25.07,25.07,0,0,0,2.54-.35l.86-.1h0l2.5,0,5.62,0,4,.24a5,5,0,0,1,1.22.55c-.05.09-2.68.06-2.56.16a15.92,15.92,0,0,0,2,.86,14.79,14.79,0,0,0,2,.86c.37.09,2.09-.23,2.56-.17.78.18,1.18.72,2,.86.33.06,2.26-.14,2.56-.16.85,0,1.68-.12,2.57-.16s1.7-.11,2.55-.16A23.08,23.08,0,0,1,368,6.17c.72.1,1.28.75,2,.86.48.07,2.17-.27,2.56-.17a15.37,15.37,0,0,1,2,.86l2,.85a14.47,14.47,0,0,0,2,.86c.71.12,1.83-.28,2.55-.17s1.47.81,2,.85A22.53,22.53,0,0,0,385.7,10a23.77,23.77,0,0,1,2.56-.16c.61.09,1.41.79,2,.85h.38c.79-.09,1.44-.45,2.27-.48.63,0,1.45.58,2.1.59s1.77-.46,2.51-.49c.91,0,1.6-.47,2.52-.5.62,0,1.45.58,2.1.59s1.71-.5,2.5-.5,1.42.55,2.11.59,1.86-.51,2.51-.49,1.39.52,2.1.58c.87.08,1.23.53,2.12.59a4.23,4.23,0,0,0,1.24-.24,5.13,5.13,0,0,1,1.26-.33c.77,0,1.33.5,2.11.47s1.74-.6,2.49-.63c.49,0,1.69.52,2.11.47a24,24,0,0,0,2.5-.63,23.35,23.35,0,0,1,2.5-.64c.62,0,1.46.5,2.11.47s1.72-.6,2.49-.63,1.35.5,2.11.47,1.73-.6,2.5-.63a11.66,11.66,0,0,1,2.11.49,16.15,16.15,0,0,0,2.1.56c.4,0,2-.53,2.49-.52.78,0,1.32.54,2.1.56.37,0,2.16-.46,2.49-.52a25.17,25.17,0,0,1,2.5-.53c.79,0,1.32.54,2.09.56s1.28.52,2.09.57c.59,0,1.86-.53,2.5-.53s1.52.6,2.08.57A23.31,23.31,0,0,0,462,10c.84-.19,1.68-.25,2.53-.39s1.63-.28,2.52-.35c.47,0,2-.39,2.52-.35s1.64.72,2.07.71a13.65,13.65,0,0,0,1.8-.23l5.23,1.42,1.72.59,2.52-.36c.34,0,2.14-.38,2.52-.35a7,7,0,0,1,1.09.33l1,.32a13.15,13.15,0,0,0,2.09.6c.41.05,2-.5,2.53-.49s1.66.62,2.09.59a23.21,23.21,0,0,0,2.53-.49l2.53-.49c.83.09,1.22.53,2.09.6.61,0,1.88-.51,2.53-.49s1.32.57,2.09.59a2.93,2.93,0,0,0,.58-.06,4.9,4.9,0,0,0,0-1.55,1.67,1.67,0,0,0-.08-.2l1.86,1.34c-.54.06-1.16.3-1.73.41a2,2,0,0,0,.07.62,25.47,25.47,0,0,0,1.28,2.22l3.95,9h0l.1,2L512,27.7a13.93,13.93,0,0,0,.11,2.16,1.48,1.48,0,0,0,.13.31c.08-.44.11-1.09.17-1.6v1.87l-.16-.27a1.8,1.8,0,0,1-.07.31c-.17.45-1.14,1.37-1.25,1.78a23.6,23.6,0,0,0-.37,2.54c0,.34-.23,2.16-.37,2.53-.27.73-1,1.06-1.25,1.78s-.1,1.82-.37,2.54-1,1.06-1.25,1.78-.1,1.78-.37,2.53-1,1.11-1.25,1.78-.13,1.8-.36,2.54a4.44,4.44,0,0,0-.18,1.06l-.12.77a5.37,5.37,0,0,1,.34,1.46c0,.62-.53,1.46-.53,2.11s.55,1.73.56,2.5a15.1,15.1,0,0,1-.54,2.11,13.65,13.65,0,0,0-.53,2.1c0,.4.56,2,.56,2.51,0,.78-.53,1.32-.54,2.1s.56,1.75.56,2.51-.54,1.33-.53,2.1.55,1.74.56,2.5a2,2,0,0,1-.09.56v-.23a5.61,5.61,0,0,0-.57,1.51c-.05.77.42,1.77.36,2.54s-.64,1.29-.7,2.06.42,1.77.37,2.53-.64,1.29-.7,2.06.41,1.78.36,2.54-.65,1.3-.7,2.06.42,1.77.36,2.54-.64,1.28-.7,2.06.42,1.78.36,2.54c.06-.78.63-1.28.7-2.06a14.17,14.17,0,0,1,.7-2.06,15.49,15.49,0,0,0,.7-2.06c0-.39-.32-2.19-.36-2.54a22.84,22.84,0,0,1-.36-2.54c.05-.7.66-1.36.69-2.06s.65-1.35.7-2.06-.38-1.75-.36-2.53-.41-1.78-.36-2.54.57-1.23.69-1.93v0c0-.8.5-1.33.54-2.11,0-.61-.56-1.86-.56-2.5s.53-1.34.53-2.11-.52-1.72-.56-2.5.54-1.46.54-2.11-.58-1.81-.56-2.5c0-.85.5-1.28.53-2.11,0-.6-.55-1.86-.56-2.5s.49-1.4.54-2.11.42-1.16.51-1.9V52h0l.09-.19c.24-.56.14-1.94.37-2.54s1-1.08,1.25-1.78.09-1.81.37-2.54c.17-.45,1.13-1.36,1.25-1.78a23.25,23.25,0,0,0,.37-2.54,19.09,19.09,0,0,1,.37-2.53c.15-.5,1-1.25,1.25-1.78.27-.72.12-1.79.36-2.53s.1-1.82.37-2.54,1-1,1.25-1.78l.07-.13a14.24,14.24,0,0,1,0-1.54,9.16,9.16,0,0,1,.93,1.68l0,0,0,.07a1.49,1.49,0,0,0-.06.64c0,.05.22-.19.41-.52l0-.06Z" style="fill:#1d1d1b;fill-rule:evenodd"/><path d="M514.44,29.27l0,.06c0,.18,0,.33,0,.43Z" style="fill:#1d1d1b;fill-rule:evenodd"/><polygon points="503.36 97.66 503.32 97.21 503.31 97.47 503.36 97.66" style="fill:#1d1d1b;fill-rule:evenodd"/><path d="M503.31,97.08v0Z" style="fill:#1d1d1b;fill-rule:evenodd"/><path d="M503.09,99.53c.08.72-.36,1.12-.26,1.81a22.75,22.75,0,0,0,.91,2.11c.32.73.63,1.46.94,2.19a2.52,2.52,0,0,1,.29.6l.35,6.69h0a4.79,4.79,0,0,0,0,1.21c.18.61.81,1.64,1,2.33l.24,1.47.71,1.18h-.09c-.76.06-1.7-.22-2.43-.15s-1.29.55-2,.63-1.62-.28-2.34-.22-1.33.61-2.06.69-1.54-.33-2.25-.25-1.38.66-2.1.74-1.45-.36-2.15-.28-1.44.68-2.17.81a2.33,2.33,0,0,1-.71.28l-2.41-.1-4.35-.87h0c-.25-.14-.44-.25-.48-.26-.83-.2-1.73,0-2.56-.14s-1.06-.81-1.88-1.08c-.58-.19-1.94,0-2.56-.14s-1.15-.89-1.89-1.09-1.79,0-2.56-.14c-.61-.14-1.26-.92-1.88-1.09s-1.81.06-2.56-.14-1.19-.86-1.89-1.09a3,3,0,0,0-.86-.08l-.95,0a9,9,0,0,1-1.58.6c-.75.09-1.41-.38-2.16-.28s-1.64.75-2.42.85c-.48.06-1.73-.37-2.15-.28a22.58,22.58,0,0,0-2.42.86,22.76,22.76,0,0,1-2.42.85c-.51.08-2,.83-2.41.85.61-.1,1.53.33,2.15.28s1.78-.77,2.42-.85,1.47.38,2.16.28c.85-.13,1.55-.71,2.41-.86.62-.1,1.52.36,2.16.28s1.68-.71,2.42-.85a15.57,15.57,0,0,0,2-.75h.06l.5,0a2.24,2.24,0,0,1,.44.07c.61.14,1.27.91,1.88,1.08s1.79,0,2.56.15,1.27.88,1.89,1.08,1.94,0,2.55.14,1.15.89,1.89,1.09,1.8,0,2.56.14,1.26.92,1.88,1.09,1.8,0,2.56.14a8.73,8.73,0,0,1,1.68.12h0l4.71.7a15.14,15.14,0,0,0,2.13.27c.46,0,1.75-.77,2.25-.83.73-.09,1.46.35,2.22.25s1.46-.71,2.19-.79,1.56.32,2.3.22,1.4-.67,2.14-.75,1.69.28,2.4.17,1.29-.58,2.1-.7c.58-.08,1.82.2,2.47.11s1.32-.54,2.06-.65l-1.07,0L507.42,118v-1.23a4.51,4.51,0,0,0,0-.79c-.16-.69-.8-1.78-1-2.47a3.52,3.52,0,0,1-.19-.41l-.39-6.6h0a2.19,2.19,0,0,0,0-.34c-.08-.58-.83-1.71-.93-2.29s.34-1.36.23-1.85a20.47,20.47,0,0,0-.9-2.24c-.12-.32-.75-1.64-.86-2.09v0C503.42,98.37,503,98.88,503.09,99.53Z" style="fill:#1d1d1b;fill-rule:evenodd"/></g></g></svg>