<svg xmlns="http://www.w3.org/2000/svg" viewBox="0 0 510.55 120.45"><g id="b263fe8c-8592-418f-a737-e6ed9f8a805a" data-name="Ebene 2"><g id="b4e434bc-6909-4357-9560-b8204ef9a578" data-name="Ebene 1"><path d="M510.55,113.26a22.77,22.77,0,0,1-.65,2.56c-.07.3-.48,1.59-.61,2.28a14.11,14.11,0,0,1-2.18-.39l-3.09.55c-.44.09-3,.46-3.1.56s2.5.36,2.6.54c-.54.21-2.67.34-3.1.56-.2.1,2.53.41,2.6.53l-19.26-.76-2.46-1c-.74-.3-1.53-.69-2.46-1a25.21,25.21,0,0,0-2.46-1c-.73-.16-2.36.14-3.15,0-.94-.16-1.51-.81-2.46-1s-2.22.17-3.14,0c-.56-.1-2-.94-2.46-1-.95-.09-2.35,0-3.14,0h-1.31l-2.85,1-3,1a31.47,31.47,0,0,1-3,1c-.8.15-1.83-.23-2.64-.13s-2.19.89-3,1-1.73-.25-2.64-.14c-.69.08-2.23.89-3,1a24.48,24.48,0,0,1-2.64-.14l-.57,0,1,.06a9.26,9.26,0,0,0-1.36-.75c-.49-.16-2.67-.39-3.11-.46-.83-.12-2.14-.22-3.11-.45-.39-.09-1.83-1.17-2.29-1.33s-2.74-.4-3.11-.46c-.65-.09-2.34-.24-3.11-.45-.27-.07-2.08-1.2-2.29-1.33a20.08,20.08,0,0,0-2.29-1.33c-.38-.13-2.77-.41-3.11-.45l-.19,0-.9-.14-.11,0a28.87,28.87,0,0,0-2.87.64c0,.08,2.62.35,2.62.43h0l-3.08.67a4.12,4.12,0,0,1-1,.24l-7.65-.35.36-.08c.9-.24,2.1-.45,3.06-.68.44-.1,3-.57,3.07-.68s-2.62-.37-2.62-.43c-.88.24-2.13.44-3.05.67-.93,0-1.65-.47-2.59-.43-.6,0-2.58.69-3.07.67a21.32,21.32,0,0,1-2.6-.43l-2.59-.44c-.37-.07-2.08-.44-2.59-.47s-2.66.46-3.08.54c-.89.15-2,.42-3.06.53-.67.07-2.39.54-3.09.54s-2.08-.59-2.59-.55c-.93.06-2.31.4-3.07.53s-2.19.48-3.09.54c-.47,0-2.06-.53-2.59-.56a16.36,16.36,0,0,0-2.41.46l-.29,0a4.24,4.24,0,0,1-.67.14c-.95.08-1.7-.37-2.63-.32.07,0,.82-.2,1.56-.39l1-.28.47-.14a23.87,23.87,0,0,0-2.64-.32,24.91,24.91,0,0,0-2.63-.32c-.57.06-2.58.69-3,.82l-3,.81c-.7.19-2.16.68-3,.81-.49.08-2.08-.34-2.64-.31-.74,0-2.24.74-3,.81-.57,0-2.13-.4-2.63-.32a30.46,30.46,0,0,0-3,.85l-3,.87c-.5.14-2.39.78-3,.86a24,24,0,0,1-2.64-.27,22.84,22.84,0,0,0-2.64-.27c-.79.08-2.29.82-3,.87-.94.06-1.7-.37-2.64-.27s-2.09.76-3,.86a7.28,7.28,0,0,1-1.88-.24l1.33,0a3.81,3.81,0,0,0-.72-.25c-.89-.17-2.24.07-3.14-.06.05,0,.66.25,1.26.51l.81.35a3,3,0,0,1,.37.18c0,.07-2.78-.06-3.15-.07-.53,0-2.5,0-3.14-.07a25.93,25.93,0,0,1-2.44-1l-2.43-1a21.55,21.55,0,0,0-2.44-1c-.49-.13-2.55,0-3.14-.07-.77-.12-1.66-.88-2.44-1-.95-.19-2.18.11-3.14-.06l-.21,0-.66-.11-.38.06c-.95.15-1.88.67-2.84.76a22.74,22.74,0,0,1-2.62-.35,25.24,25.24,0,0,0-2.62-.34c-.6.06-2.56.66-3,.78l-3,.78c-.87.23-2,.6-3,.79-.33.06-2.19-.37-2.62-.35s-2.69.69-3,.78a27.21,27.21,0,0,1-3.05.73c-.9.06-1.71-.46-2.62-.41-.59,0-2.55.71-3,.7a20.05,20.05,0,0,1-2.6-.41c-.32-.05-2.19-.44-2.61-.42-.6,0-2.57.6-3.06.71l-3.05.7c-.4.09-2.6.69-3.06.71a16.47,16.47,0,0,1-2.61-.45c-.76-.14-1.64-.38-2.6-.47a25.21,25.21,0,0,0-2.61-.48c-1,0-2.09.58-3.07.62.08,0,.74.11,1.37.22l.86.17.38.09c0,.09-2.66.55-3.08.62-.15,0-2.3-.49-2.6-.48-.54,0-2.6.54-3.07.63s-2.48.6-3.08.62a23.62,23.62,0,0,1-2.6-.48c-.66-.12-1.56-.37-2.42-.46l.65.06a3.86,3.86,0,0,0-.65-.06h-.05l-.13,0h-.06l.19,0c-.82,0-2,0-2.39-.1s-2.12-1-2.4-1.13a20.89,20.89,0,0,0-2.4-1.12c-.81-.21-2.3,0-3.13-.18s-1.76-1-2.41-1.12c-.86-.15-2.39-.12-3.13-.17-.48,0-2.62-.06-3.14-.18-.95-.22-1.47-.88-2.4-1.12a8.76,8.76,0,0,1-1.59-.72l-.92-.09c-.38-.1-.7-.19-.89-.22a23.54,23.54,0,0,0-2.58-.58c-.78,0-2.33.46-3.1.51.19,0,2.41.53,2.59.58a24.28,24.28,0,0,1,2.58.57c-.05.11-2.67.43-3.1.52-1,.18-2.13.33-3.1.51a10.86,10.86,0,0,1-1.88.28L183,116l.1-.18c.91-.13,1.77-.29,2.64-.44s2.4-.32,3.09-.51c.44-.11,3-.38,3.11-.51s-2.6-.51-2.6-.57c-.91.19-2.16.32-3.09.51l-2.06-.46,1.43-2.51c.52-.9,1-1.81,1.56-2.72.38-.65,1-2,1.57-2.73a6.23,6.23,0,0,1,1.22-1l.41-.66a5.4,5.4,0,0,0,.68-.87c.26-.54.63-2.6.89-3a19.91,19.91,0,0,1,1.64-2.08,22.21,22.21,0,0,0,1.64-2.08c.21-.44.76-2.61.88-3s.7-2.65.89-3c.47-.91,1.15-1.22,1.64-2.08l1.54-5.25.23-.78,5.22-6.63L201.91,77l1.54-5.24-6.35,6.06-2.83,1.94-3.33,4.13-.37.16a22.1,22.1,0,0,1-2.46,1c-.18,0,2.3-2,2.28-2.18s-2.27,1.08-2.47,1l-2.46,1a24.5,24.5,0,0,0-2.45,1c-.26.17-2.17,2-2.28,2.17.12,0,2.28-.9,2.46-1a23.34,23.34,0,0,1,2.46-1c.19,0-2.29,2.05-2.27,2.18s2.32-1.12,2.46-1-2.3,2-2.28,2.17,2.44-1.18,2.47-1a1.73,1.73,0,0,1-.41.45l-4.51,1.52c-.22-.11-2.12,1-2.46,1-.72.44-1.51.48-2.23.86h0l-3.88,1.55-.31.12.73-.4c-.5.1-.93.2-1,.23s-2.41,1.54-2.65,1.69c-.64.41-1.81,1.27-2.65,1.69-.47.24-2.05.26-2.6.49-.87.36-1.77,1.29-2.65,1.69s-1.73.13-2.6.49c-.08,0-.75.45-1.4.87l-.87.56c-.24.15-.39.26-.39.26l-3,1.91c-.43.27-1.11.72-1.62,1.06l-.51.29-.55.54c-.34.33-1.79,1.89-2.24,2.2-.78.54-1.66.48-2.44,1s-1.44,1.63-2.25,2.2a24.47,24.47,0,0,1-2.44,1,25,25,0,0,0-2.45,1c-.57.42-1.83,1.8-2.24,2.2-.59.58-1.47,1.57-2.25,2.2-.34.29-2,.72-2.44,1a11.09,11.09,0,0,0-1.26,1.21c-.67-.09-1.33-.15-1.89-.23l-1.42-.2-8.88-3a2.67,2.67,0,0,1-.54-.33c-1-.1-2.12-.31-3.1-.43a7.53,7.53,0,0,1-1.47-.89l-.62-.1a3.78,3.78,0,0,0-.91-.17c-.75-.06-2.32.46-3.12.44l-1.36-.31-.84-.21a1.72,1.72,0,0,1-.37-.12c.11-.11,2.62-.37,3.11-.44l3.12-.44c-1-.1-1.5-.55-2.57-.63-.67,0-2.39.44-3.12.44s-1.78-.61-2.57-.63c-.5,0-2.68.38-3.11.44l-.28,0a3.73,3.73,0,0,1,.3-.76c.48-.74,1.31-1.2,1.75-2,.29-.52.77-2.55,1-3a22,22,0,0,1,1.75-2,23.63,23.63,0,0,0,1.75-2c.27-.49.88-2.52,1-3,.35-1,.7-2,1-3,.13-.39.34-1,.54-1.64l.13-.29a12.13,12.13,0,0,1,.36-1.37c.16-.47,1.28-1.68,1.51-2.18.31-.67.39-2.32.7-3.06s1.32-1.63,1.51-2.18a31,31,0,0,0,.69-3.06c.21-.9.4-2,.71-3.07.19-.64.42-2.42.7-3.07s1.2-1.39,1.5-2.17A26.17,26.17,0,0,1,119,72.63a22.79,22.79,0,0,0,1.5-2.17,4,4,0,0,0,.24-.83l-.63,1a14.94,14.94,0,0,1,1.16-1.93c-.2.17-1.34,1-1.84,1.32l.47-.75a1.92,1.92,0,0,1-.21.27s0-.1.08-.33l-.2.31c.44-.72,1.18-1.86,1.26-2A21.9,21.9,0,0,1,123,66.05c.24-.18,1.9-1.26,2.15-1.55.43-.49,1.4-2.19,1.69-2.65l1.68-2.65,1.95-3.06,2.87-1.76,2-2.93a4.52,4.52,0,0,1,.91-.64c.08.19-1.64,2.33-1.69,2.65.71-.69,1.45-.8,2.15-1.54.29-.3,1.49-2.34,1.69-2.65L140,46.61l0,0-.69-.92L144,42.34l-6.13,1.3-.76-1a11.26,11.26,0,0,1-1.51,1l-12.11,5.47a12.94,12.94,0,0,0-2,.44c-.4.14-2.11,1.51-2.6,1.75-.69.34-1.86.23-2.59.55s-1.76,1.33-2.62,1.75a10.51,10.51,0,0,0-1.38,1l.19-.08a6.39,6.39,0,0,1-1.29.67c-.56.19-2.15.09-2.63.29-.86.36-2.1,1.13-2.77,1.49l-2.77,1.49c-.49.26-2.13,1.26-2.77,1.49-.33.12-2.35.26-2.63.29a21.84,21.84,0,0,0-2.64.29c-.42.11-2.25,1.3-2.76,1.49a4.27,4.27,0,0,1-1.29.15l-.44.22a4.71,4.71,0,0,0-1.28.46c-.8.5-1.54,1.56-2.33,2.11L83.68,67.8l-7.22,4.78h1.69l-.74.8c-.82.39-1.44.34-2.31.83-.65.37-1.66,1.68-2.33,2.11s-1.68.51-2.46,1-1.67.47-2.44,1-1.49,1.65-2.28,2.18-1.66.46-2.45,1-1.48,1.6-2.26,2.18c.36,0,2.22-1.1,2.44-1s-.54.57-1.14,1.11L57.3,86.33a4.55,4.55,0,0,1-1.16.47c-.79.49-1.66.46-2.45,1s-1.5,1.62-2.3,2.14-1.69.42-2.49.92S47.36,92.42,46.59,93c-.6.41-1.85.52-2.49.92S42.35,95.55,41.78,96c-.81.63-1.67,1.52-2.32,2.11l-2.32,2.12a30.86,30.86,0,0,1-2.33,2.11l0,0h0c-.43.31-1.94,1.16-2.16,1.28a24.14,24.14,0,0,0-2.26,1.38c-.36.35-1.62,2.18-1.88,2.52s-1.4,2-1.81,2.45a.43.43,0,0,1-.07.07c-.71.65-1.56.72-2.26,1.38-.44.41-1.5,2.21-1.88,2.52a20,20,0,0,1-2.27,1.38,24.05,24.05,0,0,0-2.25,1.38,6.87,6.87,0,0,0-.6.73l-1.48.59c-.45.16-2.42,1-2.95,1.11-.78.15-1.9-.23-2.65-.06-.94.22-2,.94-2.94,1.11a2.59,2.59,0,0,1-.62,0,1.53,1.53,0,0,0,.07-.29c.12-.94-.28-2.19-.16-3.14s.78-1.66.87-2.5c.06-.64-.13-2.61-.16-3.14l-.15-3.14c0-.59-.22-2.4-.16-3.14s.75-1.82.87-2.51-.26-2.34-.16-3.13.76-1.59.87-2.51-.28-2.18-.16-3.13c.07-.6.84-2,.87-2.51,0-.3,0-.64,0-1h0c.25-.71.52-1.47.68-1.94s.86-2.52,1.11-3a21.7,21.7,0,0,1,1.79-2,26.21,26.21,0,0,0,1.79-2c.35-.64.88-2.37,1.11-2.94s.83-2.48,1.1-3,1.53-1.43,1.79-2c.43-.84.81-2.19,1.11-2.93.17-.45.83-2.48,1.1-3,.48-.81,1.29-1.17,1.79-1.95a.91.91,0,0,1,.05-.22c.06-.29.21-.77.37-1.25l3.55-4.8.62-3.17L27.77,53l.48-.68c.38-.78.44-2.24.81-3s1.23-1.31,1.59-2.12.4-2.07.81-3a5.46,5.46,0,0,1,1-1.3l.23-.08c.62-.23,2-1.44,2.62-1.73l.28-.09L34.66,40a3.84,3.84,0,0,0,.46-.11L34,38.77a2.12,2.12,0,0,0-.11.21,1.39,1.39,0,0,0-.06.19l-.86-.86a22.15,22.15,0,0,0-1.45,1.87,12.06,12.06,0,0,0-.36,1.22l-1,.69c-.45.3-2,1.46-2.62,1.74s-1.88.25-2.59.53-1.9,1.42-2.63,1.73-1.81.18-2.59.54c-1,.44-1.65,1.26-2.62,1.73-.7.33-1.87.21-2.6.53s-1.8,1.32-2.62,1.74c-1,.5-1.61,1.24-2.62,1.73-.7.33-1.87.22-2.6.53S4.9,54.21,4,54.62a24.37,24.37,0,0,1-2.49.5l-1.23.4.12-1.13v-.12C.48,53.53,0,52,0,51.16c0-.95.61-1.63.65-2.57S.23,46.43.23,45.46c0-.77.62-1.77.65-2.56,0-.95-.42-2.15-.42-3.12A4.13,4.13,0,0,1,.3,38.69L.63,33,1,28.39C1,27.82.61,25.82.66,25.14c.09-1,.68-1.59.76-2.55s-.34-2.34-.25-3.33.67-1.5.74-2.44-.3-2.41-.21-3.39.64-1.43.7-2.33-.22-2.36-.15-3.46c.06-.8.58-1.44.64-2.23a5.47,5.47,0,0,0,0-.71l.32-2.34L4.08.22A8.93,8.93,0,0,0,5.85,0L9,.55l4.1,0,5.49.57.81.17c.86.08,2.35-.39,3.26-.33s2.15.72,2.84.73c.93,0,2.52-.24,3.32-.29l1.46-.15H30A15.34,15.34,0,0,1,31.77,1h0c.95,0,1.61.55,2.56.56a20.6,20.6,0,0,1,2.6.57,22.22,22.22,0,0,0,2.58.56c.48,0,2.67-.46,3.1-.53s2.56-.53,3.1-.53c.87,0,1.73.58,2.59.56s1.72.56,2.59.57,2.13-.5,3.09-.53,2.15-.56,3.1-.56,1.63.53,2.59.53,1.63.5,2.59.53c.75,0,2.3-.55,3.09-.56,1,0,1.64.54,2.6.54s2.13-.52,3.09-.57c.77,0,1.8.54,2.59.54s2.24-.58,3.09-.56a3.88,3.88,0,0,1,1.15.2h-.13a4.8,4.8,0,0,0,1.48.18c.74,0,2.22-.8,3-.88s1.77.31,2.64.26c1.06-.06,1.55.34,2.64.26.74-.05,2.23-.79,3-.88s1.73.37,2.64.26,2.06-.77,3-.88c.59-.06,2.12.36,2.64.27.9-.17,2.23-.65,3-.87H102c.67,0,2.32,0,3.14.15.63.11,1.73,1,2.4,1.11.93.21,2.19,0,3.14.15s2.22-.06,3.14.15,1.47.88,2.41,1.11a24.32,24.32,0,0,1,2.41,1.11c0,.16-3-.29-3.14-.16s2.34.91,2.4,1.11l6.28.3,1.58.08,3.86-1.08L138,3.44a4.53,4.53,0,0,0,.5,0c.74-.06,2.21-.81,3-.9s1.78.29,2.64.25c.61,0,2.32-.82,3-.9,1-.11,1.68.35,2.63.25h.09c.89.3,2.19.17,3.1.45A25.63,25.63,0,0,1,155.25,4a25.63,25.63,0,0,0,2.29,1.34c.58.18,2.6.37,3.11.45s2.6.29,3.11.46c.92.31,1.38,1,2.29,1.34a19.83,19.83,0,0,1,2.29,1.33,25.06,25.06,0,0,0,2.29,1.34,25.23,25.23,0,0,0,2.86.41l.27,0,.24,0c.76-.13,2.66-.38,3.1-.55.25-.1-2.65-.42-2.59-.54a21.5,21.5,0,0,1,2.77-.46l1.44.31,2.64.39a4.79,4.79,0,0,0,1.43.29c1.08,0,2-.51,3.09-.55.77,0,1.8.54,2.59.54s2.18-.55,3.1-.55,1.63.54,2.6.54c.59,0,2.6-.59,3.09-.55l.44,0h0c.77.06,1.65.24,2.19.31.24,0,2.37.36,2.63.32.83-.11,2.38-.63,3-.8.86-.23,2.43-.57,3-.81.2-.08-2.61-.24-2.63-.32l.45-.14,1-.27c.74-.2,1.5-.39,1.59-.4.91-.07,1.72.42,2.63.33a23,23,0,0,1,2.64.32l2.62.33a25.24,25.24,0,0,0,2.63.32,19.25,19.25,0,0,0,2.24-.58h-.18l.83-.11,3.12-.36,3.12-.35c.54-.06,2.45-.38,3.12-.36.37,0,2.28.63,2.56.71a21,21,0,0,0,2.56.7c.49.07,2.53-.39,3.12-.35,1,.06,1.61.62,2.57.7s2.25-.4,3.11-.36,1.63.55,2.58.55,2.16-.55,3.11-.55,1.66.56,2.59.55,2.08-.51,3.1-.54c.78,0,1.79.54,2.59.54s2.15-.5,3.1-.54,2.17-.55,3.1-.55,1.65.55,2.6.55a5,5,0,0,0,1.09-.16h-.09a9.77,9.77,0,0,1,2-.14c.95.12,1.57.72,2.51.87a20.12,20.12,0,0,1,2.5.86l2.51.86a22,22,0,0,0,2.5.87c.54.06,2.68-.13,3.14-.16l3.14-.15,3.14-.16c.57,0,1.61-.14,2.46-.16h.3l.08-.05.6-.31c.44-.2,2.1-.24,2.62-.42.7-.23,1.95-1.33,2.69-1.61.9-.34,1.72-.08,2.62-.42s1.83-1.28,2.69-1.61,1.74-.08,2.62-.42,1.81-1.28,2.7-1.62S312,4.37,312.94,4s1.87-1.26,2.7-1.62a5.14,5.14,0,0,1,1.54-.23c.89.26,2.22.1,3.09.38s1.4,1,2.32,1.28c.57.17,2.66.2,3.12.39A20,20,0,0,1,328,5.51l2.32,1.29.6.07,3.22.75,5.11.41,7.8-.41h0l1.34,0c.27,0,2.51-1,2.93-1.15.75-.18,1.86.18,2.65,0,.28,0,2.78-1,2.92-1.14s-2.68.1-2.65,0a2.58,2.58,0,0,1,.83-.36L364.32,3a7.61,7.61,0,0,1,1.09,0c.12.13-2.88,1-2.92,1.15s2.51-.13,2.65,0a4.27,4.27,0,0,0,.54-.18,7.42,7.42,0,0,1,1.62.19c.9.27,1.42,1,2.33,1.26s2.21.09,3.13.36,1.43,1,2.32,1.26,2.21.08,3.13.35,1.47,1,2.33,1.26,2.1.1,3.12.36c.75.19,1.57,1,2.33,1.26a26.83,26.83,0,0,0,2.79.3l.83.1.25-.11.31-.13c.84-.21,1.81.08,2.65-.17s1.9-1.09,2.83-1.35c.58-.16,2.15,0,2.65-.17.88-.31,2.14-1,2.84-1.35.42-.2,2.29-1.2,2.83-1.35.84-.25,1.8,0,2.64-.17s2.07-1.14,2.84-1.35,1.75,0,2.65-.17a9.59,9.59,0,0,0,1.72-.83l-.57.08a7.55,7.55,0,0,1,1.21-.18,23.24,23.24,0,0,1,2.58.61,25.29,25.29,0,0,0,2.58.6c.52,0,2.65-.42,3.1-.48s2.57-.49,3.11-.48c.79,0,1.82.61,2.58.6,1,0,2.16-.5,3.1-.48s1.65.58,2.59.6,2-.44,2.95-.47c.73.17,1.68.83,2.35.9s2.51,0,3.14-.07c.84,0,2.14-.13,3.14-.07.4,0,2,.85,2.48.93s2.77-.06,3.14-.07,2.55-.15,3.15-.07c.82.11,1.66.77,2.48.93s2.35-.19,3.14-.07a3.44,3.44,0,0,1,.86.26l.34,0A8.29,8.29,0,0,0,463,7c.91,0,1.69.46,2.62.41s2.11-.65,3.06-.7,1.67.46,2.62.42,2.06-.62,3-.71c-.12,0-.74-.09-1.35-.18l-.86-.15L471.73,6a21.8,21.8,0,0,1,2.77-.6l4.16-.18,4.61.24c.53.09,1.31.28,2,.35l-.56,0a4.14,4.14,0,0,0,.43.13c.5.13,2.53-.1,3.14,0s1.93.94,2.46,1a24.84,24.84,0,0,0,2.73,0l2.37.76,5.41.17,3.37,2c0,.15,0,.29,0,.39s0,.6,0,1l-.87,1.63a.23.23,0,0,0-.05-.13l-.15.37c0,.11-.08.24-.14.38s-.1.3-.16.45c-.22.61-.43,1.24-.44,1.3-.08.81.1,2.45.12,3.14,0,.47.19,2.6.11,3.14s-.88,2.14-.89,2.49c0,1.06.08,2.24.12,3.14V28l.67,2.72c.09.34.74,2.67.75,3a20.4,20.4,0,0,1-.37,2.62L503,39.05c0,.26-.41,2.31-.37,2.62.08.74.61,2.46.75,3l.75,3.05c.24,1,.45,1.81.68,2.75l0,.15c0,.09.06.2.09.3.14.46.9,2.45,1,3,.13.91-.26,1.75-.19,2.64,0-.05-.23-.79-.47-1.52-.12-.36-.23-.73-.32-1s-.16-.46-.17-.46-.16,2.32-.19,2.63l-.18,2.63,1,3c.3.93.67,2.23,1,3,.23.57.76,2.76,1,3s0-2.69.18-2.64a2.49,2.49,0,0,1,.17.44c.08.26.2.6.31,1,.23.71.46,1.46.49,1.6.12.64-.28,2-.19,2.63.06.44,1,2.68.94,3a19.62,19.62,0,0,1-.29,2.64c-.14.1-.68-3-.84-3a9.14,9.14,0,0,0-.17,1.21c-.07.63-.13,1.3-.12,1.43s.76,2.74.84,3c.12.42.8,2.52.84,3a22.26,22.26,0,0,1-.29,2.63,24.22,24.22,0,0,0-.29,2.64c.08.89.76,2.11.85,3s-.39,1.69-.29,2.63a26.39,26.39,0,0,0,.78,2.66c-.05.93-.61,1.6-.65,2.54,0,.5.36,2.69.42,3.11.11.83.37,2.12.42,3.12,0,.4-.62,2.08-.65,2.57s.37,2.74.42,3.11C510.21,110.67,510.56,112.6,510.55,113.26Z" style="fill:#92d2e2;fill-rule:evenodd"/></g></g></svg>