<svg xmlns="http://www.w3.org/2000/svg" viewBox="0 0 513.93 124.51">
  <path d="M512.24,115.29a22.77,22.77,0,0,1-.65,2.56c-.07.3-.48,1.59-.61,2.28a14.11,14.11,0,0,1-2.18-.39l-3.09.55c-.44.09-3,.46-3.1.56s2.5.36,2.6.54c-.54.21-2.67.34-3.1.56-.2.1,2.53.41,2.6.53l-19.26-.76-2.46-1c-.74-.3-1.53-.69-2.46-1a25.21,25.21,0,0,0-2.46-1c-.73-.16-2.36.14-3.15,0-.94-.16-1.51-.81-2.46-1s-2.22.17-3.14,0c-.56-.1-2-.94-2.46-1-.95-.09-2.35,0-3.14,0h-1.31l-2.85,1-3,1a31.47,31.47,0,0,1-3,1c-.8.15-1.83-.23-2.64-.13s-2.19.89-3,1-1.73-.25-2.64-.14c-.69.08-2.23.89-3,1a24.48,24.48,0,0,1-2.64-.14l-.57,0,1,.06a9.26,9.26,0,0,0-1.36-.75c-.49-.16-2.67-.39-3.11-.46-.83-.12-2.14-.22-3.11-.45-.39-.09-1.83-1.17-2.29-1.33s-2.74-.4-3.11-.46c-.65-.09-2.34-.24-3.11-.45-.27-.07-2.08-1.2-2.29-1.33a20.08,20.08,0,0,0-2.29-1.33c-.38-.13-2.77-.41-3.11-.45l-.19,0-.9-.14-.11,0a28.87,28.87,0,0,0-2.87.64c0,.08,2.62.35,2.62.43h0l-3.08.67a4.12,4.12,0,0,1-1,.24L403.2,116l.36-.08c.9-.24,2.1-.45,3.06-.68.44-.1,3-.57,3.07-.68s-2.62-.37-2.62-.43c-.88.24-2.13.44-3.05.67-.93,0-1.65-.47-2.59-.43-.6,0-2.58.69-3.07.67a21.32,21.32,0,0,1-2.6-.43l-2.59-.44c-.37-.07-2.08-.44-2.59-.47s-2.66.46-3.08.54c-.89.15-2,.42-3.06.53-.67.07-2.39.54-3.09.54s-2.08-.59-2.59-.55c-.93.06-2.31.4-3.07.53s-2.19.48-3.09.54c-.47,0-2.06-.53-2.59-.56a16.36,16.36,0,0,0-2.41.46l-.29,0a4.24,4.24,0,0,1-.67.14c-.95.08-1.7-.37-2.63-.32.07,0,.82-.2,1.56-.39l1-.28.47-.14a23.87,23.87,0,0,0-2.64-.32,24.91,24.91,0,0,0-2.63-.32c-.57.06-2.58.69-3,.82l-3,.81c-.7.19-2.16.68-3,.81-.49.08-2.08-.34-2.64-.31-.74,0-2.24.74-3,.81-.57,0-2.13-.4-2.63-.32a30.46,30.46,0,0,0-3,.85l-3,.87c-.5.14-2.39.78-3,.86a24,24,0,0,1-2.64-.27,22.84,22.84,0,0,0-2.64-.27c-.79.08-2.29.82-3,.87-.94.06-1.7-.37-2.64-.27s-2.09.76-3,.86a7.28,7.28,0,0,1-1.88-.24l1.33,0a3.81,3.81,0,0,0-.72-.25c-.89-.17-2.24.07-3.14-.06.05,0,.66.25,1.26.51l.81.35a3,3,0,0,1,.37.18c0,.07-2.78-.06-3.15-.07-.53,0-2.5,0-3.14-.07a25.93,25.93,0,0,1-2.44-1l-2.43-1a21.55,21.55,0,0,0-2.44-1c-.49-.13-2.55,0-3.14-.07-.77-.12-1.66-.88-2.44-1-.95-.19-2.18.11-3.14-.06l-.21,0-.66-.11-.38.06c-.95.15-1.88.67-2.84.76a22.74,22.74,0,0,1-2.62-.35,25.24,25.24,0,0,0-2.62-.34c-.6.06-2.56.66-3,.78l-3,.78c-.87.23-2,.6-3,.79-.33.06-2.19-.37-2.62-.35s-2.69.69-3,.78a27.21,27.21,0,0,1-3.05.73c-.9.06-1.71-.46-2.62-.41-.59,0-2.55.71-3.05.7a20.05,20.05,0,0,1-2.6-.41c-.32-.05-2.19-.44-2.61-.42-.6,0-2.57.6-3.06.71l-3.05.7c-.4.09-2.6.69-3.06.71a16.47,16.47,0,0,1-2.61-.45c-.76-.14-1.64-.38-2.6-.47A25.21,25.21,0,0,0,242,120c-1,0-2.09.58-3.07.62.08,0,.74.11,1.37.22l.86.17a2.89,2.89,0,0,1,.38.09c0,.09-2.66.55-3.08.62-.15,0-2.3-.49-2.6-.48-.54,0-2.6.54-3.07.63s-2.48.6-3.08.62a23.62,23.62,0,0,1-2.6-.48c-.66-.12-1.56-.37-2.42-.46l.65.06a3.86,3.86,0,0,0-.65-.06h0l-.13,0h-.06l.19,0c-.82,0-2,0-2.39-.1s-2.12-1-2.4-1.13a20.89,20.89,0,0,0-2.4-1.12c-.81-.21-2.3,0-3.13-.18s-1.76-1-2.41-1.12c-.86-.15-2.39-.12-3.13-.17-.48,0-2.62-.06-3.14-.18-1-.22-1.47-.88-2.4-1.12a8.76,8.76,0,0,1-1.59-.72l-.92-.09c-.38-.1-.7-.19-.89-.22a23.54,23.54,0,0,0-2.58-.58c-.78,0-2.33.46-3.1.51.19,0,2.41.53,2.59.58a24.28,24.28,0,0,1,2.58.57c-.05.11-2.67.43-3.1.52-1,.18-2.13.33-3.1.51a10.86,10.86,0,0,1-1.88.28l-6.54.27.1-.18c.91-.13,1.77-.29,2.64-.44s2.4-.32,3.09-.51c.44-.11,3-.38,3.11-.51s-2.6-.51-2.6-.57c-.91.19-2.16.32-3.09.51l-2.06-.46,1.43-2.51c.52-.9,1-1.81,1.56-2.72.38-.65,1-2,1.57-2.73a6.23,6.23,0,0,1,1.22-1l.41-.66a5.4,5.4,0,0,0,.68-.87c.26-.54.63-2.6.89-3a19.91,19.91,0,0,1,1.64-2.08,22.21,22.21,0,0,0,1.64-2.08c.21-.44.76-2.61.88-3s.7-2.65.89-3c.47-.91,1.15-1.22,1.64-2.08l1.54-5.25.23-.78,5.22-6.63L203.6,79l1.54-5.24-6.35,6.06L196,81.74l-3.33,4.13-.37.16a22.1,22.1,0,0,1-2.46,1c-.18,0,2.3-2,2.28-2.18s-2.27,1.08-2.47,1l-2.46,1a24.5,24.5,0,0,0-2.45,1c-.26.17-2.17,2-2.28,2.17.12,0,2.28-.9,2.46-1a23.34,23.34,0,0,1,2.46-1c.19,0-2.29,2.05-2.27,2.18s2.32-1.12,2.46-1-2.3,2-2.28,2.17,2.44-1.18,2.47-1a1.73,1.73,0,0,1-.41.45l-4.51,1.52c-.22-.11-2.12,1-2.46,1-.72.44-1.51.48-2.23.86h0l-3.88,1.55-.31.12.73-.4c-.5.1-.93.2-1,.23s-2.41,1.54-2.65,1.69c-.64.41-1.81,1.27-2.65,1.69-.47.24-2.05.26-2.6.49-.87.36-1.77,1.29-2.65,1.69s-1.73.13-2.6.49c-.08,0-.75.45-1.4.87l-.87.56c-.24.15-.39.26-.39.26l-3,1.91c-.43.27-1.11.72-1.62,1.06l-.51.29-.55.54c-.34.33-1.79,1.89-2.24,2.2-.78.54-1.66.48-2.44,1s-1.44,1.63-2.25,2.2a24.47,24.47,0,0,1-2.44,1,25,25,0,0,0-2.45,1c-.57.42-1.83,1.8-2.24,2.2-.59.58-1.47,1.57-2.25,2.2-.34.29-2,.72-2.44,1a11.09,11.09,0,0,0-1.26,1.21c-.67-.09-1.33-.15-1.89-.23l-1.42-.2-8.88-3a2.67,2.67,0,0,1-.54-.33c-.95-.1-2.12-.31-3.1-.43a7.53,7.53,0,0,1-1.47-.89l-.62-.1a3.78,3.78,0,0,0-.91-.17c-.75-.06-2.32.46-3.12.44l-1.36-.31-.84-.21a1.72,1.72,0,0,1-.37-.12c.11-.11,2.62-.37,3.11-.44l3.12-.44c-1-.1-1.5-.55-2.57-.63-.67,0-2.39.44-3.12.44s-1.78-.61-2.57-.63c-.5,0-2.68.38-3.11.44l-.28,0a3.73,3.73,0,0,1,.3-.76c.48-.74,1.31-1.2,1.75-2,.29-.52.77-2.55,1-3a22,22,0,0,1,1.75-2,23.63,23.63,0,0,0,1.75-2c.27-.49.88-2.52,1-3,.35-1,.7-2,1-3,.13-.39.34-1,.54-1.64l.13-.29a12.13,12.13,0,0,1,.36-1.37c.16-.47,1.28-1.68,1.51-2.18.31-.67.39-2.32.7-3.06s1.32-1.63,1.51-2.18a31,31,0,0,0,.69-3.06c.21-.9.4-2,.71-3.07.19-.64.42-2.42.7-3.07s1.2-1.39,1.5-2.17a26.17,26.17,0,0,1,1.52-2.18,22.79,22.79,0,0,0,1.5-2.17,4,4,0,0,0,.24-.83l-.63,1A14.94,14.94,0,0,1,123,70.76c-.2.17-1.34,1-1.84,1.32l.47-.75a1.92,1.92,0,0,1-.21.27s0-.1.08-.33l-.2.31c.44-.72,1.18-1.86,1.26-2a21.9,21.9,0,0,1,2.16-1.54c.24-.18,1.9-1.26,2.15-1.55.43-.49,1.4-2.19,1.69-2.65l1.68-2.65,1.95-3.06L135,56.41l2-2.93a4.52,4.52,0,0,1,.91-.64c.08.19-1.64,2.33-1.69,2.65.71-.69,1.45-.8,2.15-1.54.29-.3,1.49-2.34,1.69-2.65l1.69-2.66,0,0-.69-.92,4.63-3.32-6.13,1.3-.76-1a11.26,11.26,0,0,1-1.51,1L125.17,51.1a12.94,12.94,0,0,0-2,.44c-.4.14-2.11,1.51-2.6,1.75-.69.34-1.86.23-2.59.55s-1.76,1.33-2.62,1.75a10.51,10.51,0,0,0-1.38,1l.19-.08a6.39,6.39,0,0,1-1.29.67c-.56.19-2.15.09-2.63.29-.86.36-2.1,1.13-2.77,1.49l-2.77,1.49c-.49.26-2.13,1.26-2.77,1.49-.33.12-2.35.26-2.63.29a21.84,21.84,0,0,0-2.64.29c-.42.11-2.25,1.3-2.76,1.49a4.27,4.27,0,0,1-1.29.15l-.44.22a4.71,4.71,0,0,0-1.28.46c-.8.5-1.54,1.56-2.33,2.11l-3.24,2.92-7.22,4.78h1.69l-.74.8c-.82.39-1.44.34-2.31.83-.65.37-1.66,1.68-2.33,2.11s-1.68.51-2.46,1-1.67.47-2.44,1S68.07,82,67.28,82.49s-1.66.46-2.45,1-1.48,1.6-2.26,2.18c.36,0,2.22-1.1,2.44-1s-.54.57-1.14,1.11L59,88.36a4.55,4.55,0,0,1-1.16.47c-.79.49-1.66.46-2.45,1s-1.5,1.62-2.3,2.14-1.69.42-2.49.92S49.05,94.45,48.28,95c-.6.41-1.85.52-2.49.92S44,97.58,43.47,98c-.81.63-1.67,1.52-2.32,2.11l-2.32,2.12a30.86,30.86,0,0,1-2.33,2.11l0,0h0c-.43.31-1.94,1.16-2.16,1.28A24.14,24.14,0,0,0,32,107.08c-.36.35-1.62,2.18-1.88,2.52s-1.4,2-1.81,2.45a.43.43,0,0,1-.07.07c-.71.65-1.56.72-2.26,1.38-.44.41-1.5,2.21-1.88,2.52a20,20,0,0,1-2.27,1.38,24.05,24.05,0,0,0-2.25,1.38,6.87,6.87,0,0,0-.6.73l-1.48.59c-.45.16-2.42,1-2.95,1.11-.78.15-1.9-.23-2.65-.06-.94.22-2,.94-2.94,1.11a2.59,2.59,0,0,1-.62,0,1.53,1.53,0,0,0,.07-.29c.12-.94-.28-2.19-.16-3.14s.78-1.66.87-2.5c.06-.64-.13-2.61-.16-3.14l-.15-3.14c0-.59-.22-2.4-.16-3.14s.75-1.82.87-2.51-.26-2.34-.16-3.13.76-1.59.87-2.51-.28-2.18-.16-3.13c.07-.6.84-2,.87-2.51,0-.3,0-.64,0-1h0c.25-.71.52-1.47.68-1.94s.86-2.52,1.11-2.95a21.7,21.7,0,0,1,1.79-2,26.21,26.21,0,0,0,1.79-2c.35-.64.88-2.37,1.11-2.94s.83-2.48,1.1-3,1.53-1.43,1.79-2c.43-.84.81-2.19,1.11-2.93.17-.45.83-2.48,1.1-3,.48-.81,1.29-1.17,1.79-1.95a.91.91,0,0,1,.05-.22c.06-.29.21-.77.37-1.25l3.55-4.8.62-3.17.55-3.19.48-.68c.38-.78.44-2.24.81-3S32,50,32.34,49.21s.4-2.07.81-3a5.46,5.46,0,0,1,1-1.3l.23-.08c.62-.23,1.95-1.44,2.62-1.73l.28-.09-.93-.92a3.84,3.84,0,0,0,.46-.11L35.66,40.8a2.12,2.12,0,0,0-.11.21,1.39,1.39,0,0,0-.06.19l-.86-.86a22.15,22.15,0,0,0-1.45,1.87,12.06,12.06,0,0,0-.36,1.22l-1,.69c-.45.3-2,1.46-2.62,1.74s-1.88.25-2.59.53S24.7,47.81,24,48.12s-1.81.18-2.59.54c-1,.44-1.65,1.26-2.62,1.73-.7.33-1.87.21-2.6.53s-1.8,1.32-2.62,1.74c-1,.5-1.61,1.24-2.62,1.73-.7.33-1.87.22-2.6.53S6.59,56.24,5.7,56.65a24.37,24.37,0,0,1-2.49.5L2,57.55l.12-1.13V56.3c.06-.74-.45-2.32-.42-3.11,0-.95.61-1.63.65-2.57s-.42-2.16-.42-3.13c0-.77.62-1.77.65-2.56,0-1-.42-2.15-.42-3.12A4.13,4.13,0,0,1,2,40.72l.33-5.65.32-4.65c.08-.57-.34-2.57-.29-3.25.09-1,.68-1.59.76-2.55s-.34-2.34-.25-3.33.67-1.5.74-2.44-.3-2.41-.21-3.39S4,14,4.09,13.13c.08-1.05-.22-2.36-.15-3.46.06-.8.58-1.44.64-2.23a5.47,5.47,0,0,0,0-.71l.32-2.34.86-2.14A8.93,8.93,0,0,0,7.54,2l3.13.55,4.1,0,5.49.57.81.17c.86.08,2.35-.39,3.26-.33s2.15.72,2.84.73c.93,0,2.52-.24,3.32-.29L32,3.3h-.24A15.34,15.34,0,0,1,33.46,3h0c.95,0,1.61.55,2.56.56a20.6,20.6,0,0,1,2.6.57,22.22,22.22,0,0,0,2.58.56c.48,0,2.67-.46,3.1-.53s2.56-.53,3.1-.53c.87,0,1.73.58,2.59.56s1.72.56,2.59.57,2.13-.5,3.09-.53,2.15-.56,3.1-.56,1.63.53,2.59.53,1.63.5,2.59.53c.75,0,2.3-.55,3.09-.56,1,0,1.64.54,2.6.54s2.13-.52,3.09-.57c.77,0,1.8.54,2.59.54s2.24-.58,3.09-.56a3.88,3.88,0,0,1,1.15.2h-.13a4.8,4.8,0,0,0,1.48.18c.74,0,2.22-.8,3-.88s1.77.31,2.64.26c1.06-.06,1.55.34,2.64.26.74,0,2.23-.79,3-.88s1.73.37,2.64.26,2.06-.77,3-.88c.59-.06,2.12.36,2.64.27.9-.17,2.23-.65,3-.87h.21c.67,0,2.32,0,3.14.15.63.11,1.73,1,2.4,1.11.93.21,2.19,0,3.14.15s2.22-.06,3.14.15S117,4.52,118,4.75a24.32,24.32,0,0,1,2.41,1.11c0,.16-3-.29-3.14-.16s2.34.91,2.4,1.11l6.28.3,1.58.08,3.86-1.08,8.33-.64a4.53,4.53,0,0,0,.5,0c.74-.06,2.21-.81,3-.9s1.78.29,2.64.25c.61,0,2.32-.82,3-.9.95-.11,1.68.35,2.63.25h.09c.89.3,2.19.17,3.1.45A25.63,25.63,0,0,1,156.94,6a25.63,25.63,0,0,0,2.29,1.34c.58.18,2.6.37,3.11.45s2.6.29,3.11.46c.92.31,1.38,1,2.29,1.34A19.83,19.83,0,0,1,170,10.9a25.06,25.06,0,0,0,2.29,1.34,25.23,25.23,0,0,0,2.86.41l.27,0,.24,0c.76-.13,2.66-.38,3.1-.55.25-.1-2.65-.42-2.59-.54A21.5,21.5,0,0,1,179,11.1l1.44.31,2.64.39a4.79,4.79,0,0,0,1.43.29c1.08,0,2-.51,3.09-.55.77,0,1.8.54,2.59.54s2.18-.55,3.1-.55,1.63.54,2.6.54c.59,0,2.6-.59,3.09-.55l.44.05h0c.77.06,1.65.24,2.19.31.24,0,2.37.36,2.63.32.83-.11,2.38-.63,3-.8.86-.23,2.43-.57,3-.81.2-.08-2.61-.24-2.63-.32l.45-.14,1-.27c.74-.2,1.5-.39,1.59-.4.91-.07,1.72.42,2.63.33a23,23,0,0,1,2.64.32l2.62.33a25.24,25.24,0,0,0,2.63.32,19.25,19.25,0,0,0,2.24-.58h-.18l.83-.11,3.12-.36,3.12-.35c.54-.06,2.45-.38,3.12-.36.37,0,2.28.63,2.56.71a21,21,0,0,0,2.56.7c.49.07,2.53-.39,3.12-.35,1,.06,1.61.62,2.57.7s2.25-.4,3.11-.36S249,11,250,11s2.16-.55,3.11-.55,1.66.56,2.59.55,2.08-.51,3.1-.54c.78,0,1.79.54,2.59.54s2.15-.5,3.1-.54,2.17-.55,3.1-.55,1.65.55,2.6.55a5,5,0,0,0,1.09-.16h-.09a9.77,9.77,0,0,1,2-.14c.95.12,1.57.72,2.51.87a20.12,20.12,0,0,1,2.5.86l2.51.86a22,22,0,0,0,2.5.87c.54.06,2.68-.13,3.14-.16l3.14-.15,3.14-.16c.57,0,1.61-.14,2.46-.16h.3l.08,0,.6-.31c.44-.2,2.1-.24,2.62-.42.7-.23,1.95-1.33,2.69-1.61.9-.34,1.72-.08,2.62-.42s1.83-1.28,2.69-1.61,1.74-.08,2.62-.42,1.81-1.28,2.7-1.62,1.71-.08,2.61-.41,1.87-1.26,2.7-1.62a5.14,5.14,0,0,1,1.54-.23c.89.26,2.22.1,3.09.38s1.4,1,2.32,1.28c.57.17,2.66.2,3.12.39a20,20,0,0,1,2.31,1.27L332,8.83l.6.07,3.22.75,5.11.41,7.8-.41h0l1.34,0c.27,0,2.51-1,2.93-1.15.75-.18,1.86.18,2.65,0,.28-.05,2.78-1,2.92-1.14s-2.68.1-2.65,0a2.58,2.58,0,0,1,.83-.36L366,5.06a7.61,7.61,0,0,1,1.09,0c.12.13-2.88,1-2.92,1.15s2.51-.13,2.65,0a4.27,4.27,0,0,0,.54-.18,7.42,7.42,0,0,1,1.62.19c.9.27,1.42,1,2.33,1.26s2.21.09,3.13.36,1.43,1,2.32,1.26,2.21.08,3.13.35,1.47,1,2.33,1.26,2.1.1,3.12.36c.75.19,1.57,1,2.33,1.26a26.83,26.83,0,0,0,2.79.3l.83.1.25-.11.31-.13c.84-.21,1.81.08,2.65-.17s1.9-1.09,2.83-1.35c.58-.16,2.15,0,2.65-.17.88-.31,2.14-1,2.84-1.35.42-.2,2.29-1.2,2.83-1.35.84-.25,1.8,0,2.64-.17s2.07-1.14,2.84-1.35,1.75,0,2.65-.17a9.59,9.59,0,0,0,1.72-.83l-.57.08a7.55,7.55,0,0,1,1.21-.18,23.24,23.24,0,0,1,2.58.61,25.29,25.29,0,0,0,2.58.6c.52,0,2.65-.42,3.1-.48s2.57-.49,3.11-.48c.79,0,1.82.61,2.58.6,1,0,2.16-.5,3.1-.48s1.65.58,2.59.6,2-.44,2.95-.47c.73.17,1.68.83,2.35.9s2.51,0,3.14-.07c.84,0,2.14-.13,3.14-.07.4,0,2,.85,2.48.93s2.77-.06,3.14-.07,2.55-.15,3.15-.07c.82.11,1.66.77,2.48.93s2.35-.19,3.14-.07a3.44,3.44,0,0,1,.86.26l.34,0a8.29,8.29,0,0,0,1.72.32c.91,0,1.69.46,2.62.41s2.11-.65,3.06-.7,1.67.46,2.62.42,2.06-.62,3-.71c-.12,0-.74-.09-1.35-.18l-.86-.15L473.42,8a21.8,21.8,0,0,1,2.77-.6l4.16-.18,4.61.24c.53.09,1.31.28,2,.35l-.56,0a4.14,4.14,0,0,0,.43.13c.5.13,2.53-.1,3.14,0s1.93.94,2.46,1a24.84,24.84,0,0,0,2.73,0l2.37.76,5.41.17,3.37,2c0,.15,0,.29,0,.39s0,.6,0,1l-.87,1.63a.23.23,0,0,0-.05-.13l-.15.37c0,.11-.08.24-.14.38s-.1.3-.16.45c-.22.61-.43,1.24-.44,1.3-.08.81.1,2.45.12,3.14,0,.47.19,2.6.11,3.14s-.88,2.14-.89,2.49c0,1.06.08,2.24.12,3.14v.89l.67,2.72c.09.34.74,2.67.75,3a20.4,20.4,0,0,1-.37,2.62l-.37,2.63c0,.26-.41,2.31-.37,2.62.08.74.61,2.46.75,3l.75,3c.24,1,.45,1.81.68,2.75l0,.15c0,.09.06.2.09.3.14.46.9,2.45,1,3,.13.91-.26,1.75-.19,2.64,0,0-.23-.79-.47-1.52-.12-.36-.23-.73-.32-1s-.16-.46-.17-.46-.16,2.32-.19,2.63l-.18,2.63,1,3c.3.93.67,2.23,1,3,.23.57.76,2.76,1,3s0-2.69.18-2.64a2.49,2.49,0,0,1,.17.44c.08.26.2.6.31,1,.23.71.46,1.46.49,1.6.12.64-.28,2-.19,2.63.06.44,1,2.68.94,3a19.62,19.62,0,0,1-.29,2.64c-.14.1-.68-3-.84-3a9.14,9.14,0,0,0-.17,1.21c-.07.63-.13,1.3-.12,1.43s.76,2.74.84,3c.12.42.8,2.52.84,3a22.26,22.26,0,0,1-.29,2.63,24.22,24.22,0,0,0-.29,2.64c.08.89.76,2.11.85,3s-.39,1.69-.29,2.63a26.39,26.39,0,0,0,.78,2.66c-.05.93-.61,1.6-.65,2.54,0,.5.36,2.69.42,3.11.11.83.37,2.12.42,3.12,0,.4-.62,2.08-.65,2.57s.37,2.74.42,3.11C511.9,112.7,512.25,114.63,512.24,115.29Z" style="fill:red;fill-rule:evenodd"/>
  <path d="M137,45.58h0L124.9,51.05h0a12.79,12.79,0,0,0-2,.43c-.41.15-2.12,1.51-2.61,1.75-.69.34-1.86.23-2.59.55s-1.76,1.34-2.61,1.76a9.16,9.16,0,0,0-1.39,1l.2-.08a7,7,0,0,1-1.3.67c-.56.18-2.14.09-2.63.29-.86.36-2.09,1.12-2.77,1.49l-2.77,1.49c-.49.26-2.13,1.25-2.77,1.48-.33.13-2.34.26-2.63.3a20,20,0,0,0-2.64.29c-.42.11-2.25,1.3-2.76,1.48a4,4,0,0,1-1.29.16l-.44.22a4.86,4.86,0,0,0-1.27.45c-.81.51-1.54,1.57-2.34,2.11L85.1,69.78h0l-7.22,4.78h1.69l-.74.8a20.92,20.92,0,0,0-2.31.83c-.65.37-1.66,1.68-2.33,2.1s-1.67.51-2.46,1-1.67.47-2.44,1S67.8,81.91,67,82.44s-1.66.45-2.45,1S63.07,85,62.29,85.6c.34,0,2.24-1.09,2.45-1s-.53.57-1.14,1.1h0l-4.88,2.59a4.81,4.81,0,0,1-1.15.47c-.8.48-1.67.45-2.45,1s-1.51,1.62-2.31,2.13-1.68.42-2.49.93S48.78,94.39,48,94.93c-.6.42-1.84.52-2.49.93S43.77,97.53,43.2,98c-.81.64-1.67,1.53-2.32,2.12l-2.32,2.11c-.43.39-1.73,1.71-2.32,2.12.64-.44,1.81-.5,2.48-.93s1.51-1.57,2.33-2.12,1.76-.49,2.48-.92c.35-.21,2-1.86,2.32-2.11s1.78-1.76,2.32-2.12,1.83-.55,2.49-.93S52.31,93.5,53,93.08s1.68-.46,2.49-.93L57.75,90,59,88.81h.62l5.3-3c.16-.07,2-2,2.27-2.17a21.32,21.32,0,0,1,2.45-1,22.47,22.47,0,0,0,2.45-1c.43-.29,2-1.87,2.27-2.18.56-.52,1.58-1.56,2.32-2.11.43-.31,2-.6,2.5-.91.33-.21,1.48-1.31,2-1.84h0l.27-.27,0,0L84,71.79,86.61,70h0l2-.75c.46-.28,2.1-.63,2.48-.91a27.94,27.94,0,0,0,2.16-2l-.09,0,.2-.11,2.76-1.48c.68-.37,1.91-1.13,2.77-1.49.49-.2,2.08-.11,2.64-.29.9-.3,1.87-1.19,2.76-1.49s1.74,0,2.64-.29,1.85-1.16,2.77-1.49,1.85-1.19,2.77-1.49a9.73,9.73,0,0,1,2-.17l0,0a2.78,2.78,0,0,0,.6-.19c.94-.43,1.66-1.29,2.6-1.75.69-.34,1.87-.23,2.6-.55s1.74-1.33,2.6-1.75l4.5-3,5.89-2.14,3.61-2.57,1.63-.38.48-.11.26-.05-.76-1A10.47,10.47,0,0,1,137,45.58Z" />
  <polygon points="139.28 45.62 140.78 47.63 145.41 44.32 139.28 45.62" />
  <path d="M96.65,117.2l.76,1.29.36-1.1-.19-.31Z" />
  <path d="M119.2,70.58s0-.06.07-.1v0Z" />
  <path d="M98,116.76l.3-.83-1.59-.4.9,1.55.29,0Z" />
  <path d="M97.87,117.06l-.1.33,1.11,1.9.5-.59c.15-.17.58-.61,1-1a17.8,17.8,0,0,0-2.41-.59Z" />
  <path d="M101.54,115.58l0-.08a24.44,24.44,0,0,1-2.54-.59,26,26,0,0,1,2.84-.41,3.18,3.18,0,0,1,.31-.76c.47-.73,1.3-1.2,1.74-2,.3-.53.77-2.56,1-3a20.59,20.59,0,0,1,1.74-2,25.31,25.31,0,0,0,1.75-2c.27-.5.89-2.52,1-3l1-3c.12-.39.33-1,.53-1.65l.14-.28a10.6,10.6,0,0,1,.35-1.38c.16-.46,1.28-1.67,1.51-2.17.32-.68.39-2.33.7-3.07s1.32-1.62,1.51-2.18c.29-.83.54-2.35.7-3.05.2-.9.39-2,.7-3.07.19-.64.43-2.43.7-3.07s1.2-1.39,1.51-2.17a24.55,24.55,0,0,1,1.51-2.18,25,25,0,0,0,1.51-2.18,4.91,4.91,0,0,0,.23-.82l-.63,1a14.24,14.24,0,0,1,1.19-1.95c-.07.08-1.34,1-1.87,1.35l.47-.76a1.86,1.86,0,0,1-.2.27,1.31,1.31,0,0,1,.07-.32l-.44.72c.31-.56,1.4-2.26,1.51-2.37A21.36,21.36,0,0,1,124.4,68c.24-.18,1.9-1.26,2.15-1.55.43-.49,1.4-2.2,1.69-2.65l1.69-2.65,1.94-3.06,2.87-1.76,2-2.93a4.07,4.07,0,0,1,.91-.64c.08.18-1.64,2.32-1.69,2.65.71-.7,1.45-.81,2.15-1.54.29-.3,1.49-2.34,1.69-2.66l1.69-2.65,0,0-.69-.93-.2.14L138.83,49l-1.69,2.65-.28.44-4.52,4.44L129,59c-.66.66-1.52.85-2.16,1.55s-1.06,1.91-1.69,2.65l-1.68,2.65c-.36.56-1.17,2-1.69,2.65s-1.67,1-2.15,1.54a4.62,4.62,0,0,0-.36.48,13.55,13.55,0,0,1-.49,2.35c-.36.89-1.12,1.32-1.51,2.18-.16.37-.61,2.7-.69,3.07-.13.53-.46,2.44-.7,3.06-.14.34-1.35,1.94-1.51,2.18a20.12,20.12,0,0,0-1.51,2.18c-.18.4-.62,2.68-.7,3-.17.74-.41,2.21-.7,3.07-.15.45-1.29,1.7-1.51,2.18a17.15,17.15,0,0,0-.52,2.43l0,.09a3.64,3.64,0,0,1-.25.61c-.33.57-1.49,1.46-1.75,2-.38.79-.81,2.29-1,3-.3.87-.62,2-1,3-.26.61-.7,2.35-1,3-.47.84-1.27,1.16-1.75,2,0-.08.31-.81.56-1.52.13-.36.25-.71.34-1s.15-.45.15-.47a23.72,23.72,0,0,0-1.75,2,25,25,0,0,0-1.75,2c-.3.57-.87,2.47-1,3l-.75,2.14.23,0C98.76,115.82,101.12,115.73,101.54,115.58Z" />
  <path d="M132.94,123.42l-.48,0-.13.14Z" />
  <polygon points="203.33 78.92 201.82 84.06 207.04 77.44 203.33 78.92" />
  <path d="M198.52,79.75h0l-2.83,1.94-3.33,4.13L192,86a20,20,0,0,1-2.46,1c-.18,0,2.3-2,2.28-2.17s-2.27,1.07-2.47,1l-2.45,1a20,20,0,0,0-2.46,1c-.26.17-2.17,2-2.28,2.17s2.27-.91,2.46-1a22.26,22.26,0,0,1,2.47-1c.18,0-2.3,2-2.28,2.17s2.32-1.11,2.46-1-2.3,2-2.27,2.17,2.43-1.18,2.46-1-.17.22-.41.45l-4.51,1.51c-.22-.1-2.12,1-2.46,1-.72.44-1.5.48-2.23.87v0L174,95.67h0l-.31.12.73-.4c-.5.1-.93.19-1,.23s-2.41,1.54-2.65,1.69c-.64.41-1.81,1.27-2.64,1.69-.48.24-2.06.26-2.61.49-.87.36-1.77,1.29-2.65,1.69s-1.73.13-2.6.49c-.08,0-.75.45-1.4.86l-.87.57c-.24.15-.38.26-.38.26l-3,1.91h0l-1.62,1-.51.29-.54.54c-.35.33-1.8,1.9-2.25,2.21-.78.53-1.66.48-2.44,1s-1.44,1.62-2.25,2.2a24.47,24.47,0,0,1-2.44,1,25,25,0,0,0-2.45,1c-.56.41-1.83,1.79-2.24,2.19-.59.59-1.47,1.58-2.24,2.21-.35.28-2,.72-2.45,1a10.22,10.22,0,0,0-1.26,1.21c.41,0,.83.11,1.23.2l.48.07-2.34.38.63-.65-1.89-.23-1.42-.2-8.87-3c-.35-.19-.59-.32-.54-.32-1-.1-2.13-.32-3.11-.43a7.54,7.54,0,0,1-1.47-.9l-.62-.09a3.66,3.66,0,0,0-.91-.18c-.75,0-2.31.47-3.11.44-.09,0-.74-.15-1.37-.3l-.84-.22a1.62,1.62,0,0,1-.36-.11c.11-.11,2.61-.37,3.11-.44l3.11-.44c-1-.11-1.5-.56-2.57-.63-.67,0-2.38.43-3.12.44s-1.77-.61-2.57-.63c-.5,0-2.68.38-3.11.44l-.28,0c-.1.31-.2.66-.3,1,0,0,.05,0,0,0s0,0-.07,0a6.79,6.79,0,0,1-.41,1.14,6.94,6.94,0,0,1-.76.93l.16,0a22.53,22.53,0,0,0,2.57.63c.5.06,2.52-.46,3.12-.44s1.91.65,2.57.63c.82,0,2.45-.35,3.11-.44l2-.27.15,0,1.16.16,3.11.43,1.23.19h0l2.72,1.34,3.67.63,2.26.76a3,3,0,0,1,1,.57c0,.16-3-.55-3.11-.43a1.66,1.66,0,0,0,.32.21l.74.44c.56.31,1.14.63,1.23.66.86.29,2.22.18,3.12.44a5.63,5.63,0,0,0,1.05.16,6.13,6.13,0,0,1,1-1c.49-.34,2-.69,2.45-1,.72-.58,1.69-1.67,2.24-2.2l2.24-2.21c.26-.25,1.93-2,2.24-2.2a22.24,22.24,0,0,1,2.45-1l2.45-1a25.33,25.33,0,0,0,2.44-1c.49-.35,1.89-1.86,2.24-2.21l1.3-1.27.15-.09,1.12-.71,2.65-1.69c-.33-.08-2.42.64-2.61.49s2.64-1.52,2.65-1.69l3.93-1.93,1.33-.25a25,25,0,0,1,2.6-.49c0,.13-2.25,1.43-2.65,1.69l-2.65,1.69,5.21-1,2.65-1.69,2.65-1.69c.74-.47,2.15-1.28,2.65-1.69.18-.15-2.61.59-2.61.49s2.47-1.42,2.65-1.69a6.16,6.16,0,0,1,1.12-.72l1.08-.45,2.34-1.41c0,.21-2.15,1.87-2.27,2.17l4.92-2a3.36,3.36,0,0,1,.39-.41l6.8-3.73,2.28-2.17c.65-.62,1.82-1.64,2.27-2.17.18-.21.79-.74,1.34-1.23h0a5.18,5.18,0,0,0,.93-.94h-.07l3.67-4,5.28-2.11,1.54-5.23Z" />
  <path d="M176.6,118.08l1.46,3,.49-.91-1.09-2.26Z" />
  <path d="M190.24,116.86c.44-.12,3-.38,3.11-.51s-2.77-.54-2.59-.58c-.91.2-2.16.33-3.1.52l-2.06-.46-.13.22c-.17.29-.58,1.08-1,1.76.91-.14,1.77-.3,2.64-.44S189.55,117,190.24,116.86Z" />
  <path d="M179.69,118.11a8.08,8.08,0,0,1,.59-1c.57-.7,1.5-.94,2.08-1.64.06-.08.15-.22.24-.37h-.11c-.48,0-2.7.44-3.11.51-.82.13-1.82.36-2.79.47l.87,1.81c.32-.05.63-.09.9-.11A5.46,5.46,0,0,1,179.69,118.11Z" />
  <path d="M185.6,115.83c.48-.84,1-1.67,1.44-2.51l1.56-2.72a30.52,30.52,0,0,1,1.56-2.73,5.87,5.87,0,0,1,1.22-1l.41-.67a4.26,4.26,0,0,0,.68-.87c.26-.53.63-2.59.89-3a19.7,19.7,0,0,1,1.64-2.07,23.6,23.6,0,0,0,1.64-2.08c.22-.44.76-2.61.88-3s.7-2.66.89-3c.47-.9,1.15-1.21,1.64-2.07l1.54-5.25.23-.79-.52.66-1.12,1.42c-.52.9-1.12,1.13-1.64,2.08-.36.66-.53,2.3-.88,3s-1.2,1.27-1.65,2.08c-.33.61-.56,2.33-.88,3-.18.38-1.45,1.84-1.64,2.09s-1.52,1.8-1.64,2.08c-.31.7-.71,2.41-.89,3l-.61,2.06-.21.35-.5.86c-.26.45-1.17,2.24-1.56,2.73-.25.31-1.84,1.45-2.08,1.64a21,21,0,0,0-2.08,1.64,25.92,25.92,0,0,0-1.32,2.36,23.91,23.91,0,0,1,2.47.56Z" />
  <path d="M224.35,121.47h0Z" />
  <path d="M224.16,121.46h0Z" />
  <path d="M224.39,121.48l.65,0A5.93,5.93,0,0,0,224.39,121.48Z" />
  <path d="M438.78,123.75l.37,0s-.1-.06-.16-.08l-.19,0Z" />
  <polygon points="508.91 8.91 508.9 8.9 508.9 8.91 508.91 8.91" />
  <path d="M31.54,44.07c-.45.3-2,1.46-2.62,1.73a21.47,21.47,0,0,1,2.6-.53l.59-.1c.12-.45.27-1.13.44-1.79Z" />
  <path d="M35,42.15a7.3,7.3,0,0,1,.27-1l-.86-.86a19.93,19.93,0,0,0-1.44,1.87,11.23,11.23,0,0,0-.37,1.22,18.31,18.31,0,0,1,1.61-1A3.5,3.5,0,0,1,35,42.15Z" />
  <path d="M34.47,44a3.77,3.77,0,0,1-.59.81l.23-.07c.63-.23,2-1.44,2.62-1.73a1.54,1.54,0,0,1,.28-.09L36.08,42c-.37.06-.75.09-1.13.15A8.34,8.34,0,0,1,34.47,44Z" />
  <path d="M23.71,48.07c-.8.35-1.82.17-2.6.53-1,.45-1.65,1.27-2.62,1.74-.7.33-1.87.21-2.6.53s-1.79,1.32-2.62,1.73c-1,.5-1.61,1.25-2.62,1.74-.7.33-1.87.21-2.59.53-.89.38-1.73,1.32-2.63,1.73a24.37,24.37,0,0,1-2.49.49l-1.23.41.12-1.14v-.12c.06-.73-.45-2.32-.42-3.11,0-1,.62-1.62.65-2.57s-.42-2.15-.42-3.12c0-.77.62-1.77.65-2.56,0-1-.42-2.16-.42-3.12a5.27,5.27,0,0,1-.16-1.09h0L2.05,35l.32-4.65c.08-.56-.34-2.56-.29-3.24.09-1,.68-1.59.76-2.55s-.34-2.34-.25-3.33.67-1.5.74-2.44-.3-2.41-.21-3.39.64-1.44.71-2.33C3.9,12,3.6,10.71,3.67,9.62c.06-.8.58-1.44.64-2.23a5.47,5.47,0,0,0,0-.71h0l.32-2.34L5.5,2.2A9.76,9.76,0,0,0,7.27,2l3.13.55,4.1,0L20,3.12h0a7.87,7.87,0,0,0,.81.16c.86.08,2.35-.38,3.26-.32s2.15.71,2.84.73c.93,0,2.53-.24,3.32-.29l1.46-.15h-.24A13.19,13.19,0,0,1,33.2,3a6.13,6.13,0,0,1-1.76-.42h.28a3.88,3.88,0,0,0-.89-.2c-1.13-.11-1.72-.66-2.88-.76-.47,0-3.05.28-3.45.32l-3.37.34a8.93,8.93,0,0,1-1.64.17L9.75,1.06H9.68L8.54.9A32.05,32.05,0,0,0,5.32.45C4.24.46,3.21.88,2.17.91c.24.13,3.2.27,3.21.42s-3.27.37-3.07.4l2,.32L3.67,5.78h0l-.09.32C3.46,7,3,7.4,2.89,8.39S3.07,11,3,11.93s-.63,1.39-.74,2.4.24,2.51.15,3.49-.67,1.51-.77,2.52.3,2.45.22,3.43-.69,1.61-.78,2.62.32,2.35.27,3.35a10.07,10.07,0,0,1,.15,1.71,1.94,1.94,0,0,1,0,.24v5L1,40.46H1c-.09.37-.16.68-.16.73,0,1.06.41,2.08.42,3.13s-.56,1.5-.65,2.57C.52,47.63,1,49.21,1,50c0,1-.61,1.62-.65,2.57s.43,2.16.42,3.12a2.56,2.56,0,0,1-.1.64L0,58.78l3.42-.63a9.7,9.7,0,0,0,2-.35c.88-.38,1.75-1.34,2.63-1.73s1.75-.21,2.6-.53c.69-.27,1.89-1.42,2.62-1.74s1.74-.15,2.59-.53,1.74-1.35,2.62-1.73c.55-.24,2.13-.29,2.6-.53.82-.44,2-1.32,2.62-1.74.43-.29,2-1.46,2.62-1.73S28.41,46,28.92,45.8c-.69.33-1.88.26-2.59.53S24.43,47.75,23.71,48.07Z" />
  <path d="M36.54,41.89l-1.15-1.14a2.12,2.12,0,0,0-.11.21l-.06.19.86.85A3.43,3.43,0,0,0,36.54,41.89Z" />
  <path d="M20.05,75.46c.43-.84.81-2.19,1.11-2.94.17-.44.83-2.48,1.1-2.94.48-.81,1.29-1.17,1.79-2a1.49,1.49,0,0,1,.05-.21v0c.06-.3.22-.79.38-1.29L28,61.35l.62-3.16L29.19,55h0a8.07,8.07,0,0,0,.48-.69c.38-.77.44-2.23.81-3s1.23-1.3,1.59-2.12.41-2.07.81-3a6,6,0,0,1,1-1.31,14.22,14.22,0,0,1-1.77.36v0c-.18.64-.51,2.28-.82,3S30,49.71,29.7,50.36c-.4.86-.43,2.14-.81,3A8,8,0,0,1,28.45,55h0a5.58,5.58,0,0,0-.37,1.43l0,0-1,4.3-2.73,4.55,0,.07h0c-.41.56-.91,1.28-1,1.42l-.19.25.07-.12-1.58,1.72-1.11,2.94c-.37,1-.73,2-1.1,3-.25.66-.71,2.16-1.11,2.94C18.59,76.87,19.79,76,20.05,75.46Z" />
  <path d="M36.2,104.34l0,0,0,0c-.35.28-2,1.19-2.21,1.33A22.19,22.19,0,0,0,31.75,107c-.36.34-1.62,2.17-1.88,2.52s-1.56,2.22-1.88,2.52c.18-.19,2.05-1.24,2.26-1.38a23,23,0,0,0,2.27-1.38c.7-.66,1.17-1.84,1.88-2.52s1.12-1.72,1.81-2.45l0,0Z" />
  <polygon points="36.22 104.33 36.2 104.34 36.22 104.33 36.22 104.33" />
  <path d="M36.21,104.34l0,0h0Z" />
  <path d="M23.85,116a22.64,22.64,0,0,1-2.26,1.38,22.92,22.92,0,0,0-2.26,1.38,6,6,0,0,0-.6.73l.45-.18-.52.27.07-.09-1.48.59c-.45.16-2.41,1-2.95,1.11-.77.14-1.89-.23-2.64-.06-.94.21-2,.93-2.94,1.11a2.63,2.63,0,0,1-.62,0,4.13,4.13,0,0,1-.22.65L7,122.13c.35,0,.7.1,1.06.11a2.3,2.3,0,0,0,.06-.28c.12-.94-.27-2.2-.16-3.14s.78-1.66.87-2.5c.06-.64-.13-2.61-.16-3.14L8.56,110c0-.6-.22-2.4-.16-3.14s.75-1.83.87-2.51S9,102,9.11,101.26c.12-.93.76-1.59.87-2.51s-.28-2.19-.16-3.14c0,.37-.77,2.23-.86,2.51a21.07,21.07,0,0,0-.87,2.5c-.1.48.23,2.55.16,3.14-.12,1-.73,1.55-.87,2.5s.27,2.28.16,3.15-.77,1.61-.87,2.5.25,2.09.16,3.14c-.07.76-.77,1.71-.87,2.5s.22,2.25.16,3.14c0,0,.21-.67.42-1.29l.3-.84c.08-.23.14-.38.14-.37s.16,2.75.16,3.13a10,10,0,0,1-.5,1.44l-.21.55.86,0a6.33,6.33,0,0,0,1.13,0c.94-.17,2-.93,2.94-1.1a20.74,20.74,0,0,1,2.65.06l2.65,0a25.59,25.59,0,0,0,2.65.06c.12,0,.28-.07.49-.14l.78-.25.23-.29c.51-.64,1.29-1.79,1.55-2.14l1.88-2.51,1.87-2.52c.43-.57,1.29-1.89,1.88-2.52-.71.65-1.55.72-2.26,1.38C25.29,113.86,24.24,115.66,23.85,116Z" />
  <path d="M10.68,92.11l0,.06,0-.07h0c.25-.72.52-1.48.69-2s.85-2.52,1.1-3a23.29,23.29,0,0,1,1.79-1.95,24.39,24.39,0,0,0,1.79-2c.35-.63.88-2.37,1.11-2.94s.83-2.48,1.1-2.94c-.27.53-1.46,1.4-1.79,2s-.82,2.54-1.1,2.94a21.26,21.26,0,0,1-1.79,2,26.39,26.39,0,0,0-1.79,2c-.31.56-.92,2.45-1.11,3l-.93,2.48-.11.3v0l0,.48c0,.55.21,2.48.15,3.14.08-.59.84-2,.87-2.51C10.7,92.81,10.7,92.47,10.68,92.11Z" />
  <path d="M511.09,123.43l.67-.67-.81-.22C511,122.93,511.07,123.28,511.09,123.43Z" />
  <path d="M510.56,86.73a19.91,19.91,0,0,0-.29,2.64c.07.88.75,2.11.84,3s-.38,1.69-.29,2.63a27,27,0,0,0,.78,2.65v0c0-.1,0-.2,0-.31l0,.4a.19.19,0,0,1,0-.07c-.05.93-.61,1.6-.65,2.54,0,.51.36,2.7.42,3.12.11.83.37,2.11.42,3.12,0,.4-.62,2.08-.65,2.57s.37,2.74.42,3.11c.07.53.43,2.46.42,3.11a25.33,25.33,0,0,1-.66,2.57c-.07.3-.47,1.59-.6,2.27.26.05.43.1.41.15a1.58,1.58,0,0,1-.45.12s0,0,0,0c0,.17,0,.52.09.93.37,0,1.39-.25,2.14-.39a10.71,10.71,0,0,0,.57-2c0-.89-.47-2.24-.42-3.11s.57-1.56.65-2.57c.06-.75-.45-2.32-.42-3.12s.64-1.75.65-2.56-.35-2.5-.42-3.12c-.06-.47-.44-2.57-.42-3.11,0-.71.66-1.9.65-2.57a7.86,7.86,0,0,0-.18-1.35v.12a8.5,8.5,0,0,1-.47-1.71c-.06-.6.38-2.11.29-2.64-.16-.92-.64-2.28-.85-3s-.69-2.14-.84-3c-.19-1.16-.63-1.88-.84-3A22.44,22.44,0,0,1,510.56,86.73Z" />
  <path d="M513.12,123.48l.7-.7a6.26,6.26,0,0,1-.81.14C513.05,123.11,513.09,123.29,513.12,123.48Z" />
  <path d="M512.83,121.7l.95-1h-.06l-.82.15a3.5,3.5,0,0,0-.09.55A1.94,1.94,0,0,0,512.83,121.7Z" />
  <path d="M510.63,121.31a21.34,21.34,0,0,1-2.6-.53,17,17,0,0,1,2.65-.44,1.76,1.76,0,0,1,0-.27,12.93,12.93,0,0,1-2.19-.39l-3.09.56c-.44.09-3,.45-3.1.56s2.5.35,2.6.53c-.54.22-2.67.34-3.09.56-.21.11,2.52.42,2.59.54l-19.26-.76-2.46-1c-.74-.3-1.53-.7-2.46-1-.74-.22-1.57-.79-2.46-1-.73-.16-2.36.15-3.14,0-1-.17-1.52-.81-2.47-1s-2.22.16-3.14,0c-.56-.1-2-.94-2.46-1-.95-.09-2.35,0-3.14,0h-1.31l-2.85,1-3,1c-.48.16-2.37.91-3,1-.81.14-1.84-.23-2.65-.14s-2.19.9-3,1c-.94.15-1.73-.24-2.65-.13-.69.07-2.23.88-3,1a24.69,24.69,0,0,1-2.64-.13l-1.1-.09,1.52.1a10,10,0,0,0-1.36-.76c-.49-.16-2.67-.39-3.11-.45-.83-.12-2.13-.23-3.11-.45-.39-.09-1.83-1.17-2.29-1.33s-2.74-.4-3.11-.46c-.65-.09-2.33-.24-3.11-.45-.26-.07-2.08-1.21-2.29-1.33a20.71,20.71,0,0,0-2.29-1.34c-.38-.13-2.76-.4-3.11-.45l-.19,0-.9-.15-.11,0c-.7.15-2.84.54-2.87.63s2.8.38,2.61.44a2.52,2.52,0,0,1,.32-.07l.65.08c.65.06,2.4.29,2.78.4.07,0,.65.35,1.21.68l.75.44a1.69,1.69,0,0,1,.33.22c-.13.14-2.8-.55-3.11-.46l-2-1.16-.61-.07-.33-.06-3.08.68a3.81,3.81,0,0,1-1,.23h0l-7.66-.34.36-.09c.9-.24,2.1-.44,3.07-.67.43-.11,3-.57,3.06-.68s-2.78-.39-2.6-.44c-.89.24-2.15.44-3.07.68-.92,0-1.65-.48-2.59-.44-.6,0-2.58.7-3.07.68a19.27,19.27,0,0,1-2.59-.44l-2.6-.43c-.37-.07-2.08-.44-2.59-.47s-2.66.46-3.08.53c-.89.16-2,.43-3.06.54-.67.07-2.39.54-3.09.54s-2.08-.6-2.59-.56c-.93.07-2.31.41-3.07.54s-2.19.47-3.09.53c-.47,0-2.06-.53-2.59-.55a15.35,15.35,0,0,0-2.41.46l-.29,0a4.24,4.24,0,0,1-.67.14c-.95.08-1.69-.37-2.63-.32.07,0,.82-.2,1.56-.4l1-.27.47-.15a24.58,24.58,0,0,0-2.63-.31,23,23,0,0,0-2.64-.32c-.57.06-2.58.69-3,.81l-3,.82c-.7.18-2.15.67-3,.81-.49.07-2.08-.34-2.64-.32-.74,0-2.24.75-3,.82-.58,0-2.14-.41-2.64-.32a25.89,25.89,0,0,0-3,.85l-3,.86c-.51.15-2.4.79-3,.87-.42.05-2.3-.24-2.64-.27a22.89,22.89,0,0,0-2.63-.27c-.8.08-2.29.82-3,.86-.93.06-1.7-.37-2.64-.27s-2.09.77-3,.87a6.76,6.76,0,0,1-1.87-.25l1.32,0a2.79,2.79,0,0,0-.72-.25c-.89-.18-2.24.06-3.14-.07.05,0,.66.26,1.26.51l.81.36c.22.1.37.16.37.17s-2.77-.06-3.15-.06-2.5,0-3.14-.07a24.65,24.65,0,0,1-2.43-1l-2.44-1a19.22,19.22,0,0,0-2.44-1c-.49-.13-2.55,0-3.14-.07-.77-.12-1.66-.89-2.44-1-.95-.19-2.18.11-3.14-.07l-.2,0-.67-.1-.38.06c-1,.14-1.88.66-2.84.75a22.32,22.32,0,0,1-2.61-.34c-.32,0-2.21-.38-2.63-.35-.6.06-2.56.66-3,.79l-3,.78c-.87.22-2,.59-3,.78-.32.06-2.18-.37-2.62-.34s-2.68.69-3,.78a27.21,27.21,0,0,1-3.05.73c-.9,0-1.71-.46-2.61-.42-.6,0-2.56.72-3.06.71a19.94,19.94,0,0,1-2.6-.42,24.61,24.61,0,0,0-2.61-.41c-.6,0-2.57.59-3.06.7l-3,.71c-.39.09-2.6.68-3.06.7a17.73,17.73,0,0,1-2.61-.44c-.76-.14-1.64-.39-2.6-.48a24.53,24.53,0,0,0-2.6-.48c-1,0-2.1.59-3.08.63a13.68,13.68,0,0,1,1.37.22l.86.16a2.09,2.09,0,0,1,.38.1c0,.09-2.66.54-3.07.62-.16,0-2.31-.49-2.61-.48-.53,0-2.6.54-3.07.62s-2.48.61-3.08.63a26.24,26.24,0,0,1-2.6-.48c-.66-.12-1.57-.38-2.44-.46s-2.07,0-2.42-.11-2.11-1-2.4-1.12a19.33,19.33,0,0,0-2.4-1.12c-.81-.22-2.3,0-3.13-.18s-1.76-1-2.41-1.12c-.86-.16-2.39-.12-3.13-.18-.48,0-2.62-.05-3.14-.17-.94-.22-1.47-.88-2.4-1.12a10.4,10.4,0,0,1-1.59-.72l-.92-.09-.88-.23a23.8,23.8,0,0,0-2.59-.57c-.78,0-2.33.45-3.1.51.15,0,2.41.53,2.59.58a22,22,0,0,1,2.59.57c-.06.11-2.67.43-3.1.51-1,.19-2.13.33-3.11.51a10.38,10.38,0,0,1-1.88.29l-6.54.27.1-.18-.47.07c-.16,0-.48.09-.85.16h0l.2-.35a5.3,5.3,0,0,1-.51.41l.31-.06-.39.11.08-.05a14,14,0,0,1-1.94.29,5.8,5.8,0,0,1-1.25-.28c-.39.69-.83,1.52-1,1.78l-.17.3,1,2.13.17-.26c.2-.3.51-.91.82-1.5h1.59l4.39-1.5,5.06-.14,2.67-.73a5.42,5.42,0,0,1,1.14-.18c.84,0,2.3-.54,3.1-.51a11.89,11.89,0,0,1,1.93.4l.41,0,.6.3a21.77,21.77,0,0,0,2.4,1.13c.36.09,2.77.14,3.14.17s2.61,0,3.14.18c.94.21,1.47.87,2.4,1.12s1.46.9,2.4,1.12c.58.14,2.67,0,3.14.18a19.5,19.5,0,0,1,2.4,1.12,20.7,20.7,0,0,0,2.39,1.12,13.14,13.14,0,0,0,1.53.12h-.11l1.58-.35c.47-.09,2.54-.61,3.08-.63,1,0,1.63.49,2.6.48s1.61.47,2.61.48c.74,0,2.28-.6,3.08-.62s1.69.51,2.61.48c.61,0,2.56-.53,3.07-.63s2.54-.61,3.08-.62c.78,0,1.86.54,2.6.47,1.12-.11,2-.61,3.07-.71.77-.07,1.82.46,2.61.41s2.43-.59,3.07-.7l-1.3-.19-.9-.14-.41-.08c0-.08,2.7-.62,3.05-.71l3.06-.7c.12.18,2.69.23,2.62.41s-3.22.62-3.06.71a22.46,22.46,0,0,0,2.62.41,24.81,24.81,0,0,0,2.62.41c.63-.05,2.55-.59,3.06-.7l3.05-.71c.38-.09,2.61-.75,3.05-.78a22.66,22.66,0,0,1,2.61.35c.2,0,2.52.36,2.63.34,1.05-.19,2.15-.55,3.05-.78s2.5-.56,3-.78c.21-.09-2.61-.25-2.62-.35s2.68-.69,3-.78c.62-.16,2.26-.68,3-.78s1.89.4,2.62.34,2.55-.78,3-.78h.32l.72,0h0c.76.27,1.61.72,2.13,1l2.44,1a20.09,20.09,0,0,0,2.44,1c.28.07,2.83.06,3.13.06s2.66,0,3.15.07a24.52,24.52,0,0,1,2.44,1c.22.1,2.18,1,2.43,1a30.88,30.88,0,0,0,3.14.07c.72,0,1.64.07,2.35.06h-.5c.32-.08.56-.16.77-.23.58-.21,2.79-.67,3-.87s-2.69-.11-2.63-.27,2.64-.78,3-.87,2.25.31,2.64.27c.94-.1,2.06-.73,3-.86l2.64.27,2.63.27a22.35,22.35,0,0,1,2.64.27c.16.08-3,.75-3,.87a25.86,25.86,0,0,0,2.64.27c.2,0,2.76-.79,3-.87l3-.86c.38-.12,2.6-.79,3-.82a22,22,0,0,1,2.64.31c.19,0,2.51.34,2.63.32,1-.2,2.17-.58,3-.81s2.26-.55,3-.82c.58-.19,2.8-.61,3-.81s-2.7-.16-2.64-.32,2.78-.6,3-.81l5.27.64,1.22.14h.16l1.39.3a21.76,21.76,0,0,0,2.59.56c.24,0,2.81-.49,3.09-.54l3.09-.54c.61-.1,2.33-.5,3.08-.53.31,0,2.34.49,2.6.55a22.09,22.09,0,0,0,2.6.55c.36,0,2.58-.53,3.08-.53s2.29.5,2.6.54,2.38.46,2.6.43c.91-.1,2.34-.51,3.07-.67l2.77-.61,3.17.14,7,.93,1.47-.58a25.44,25.44,0,0,1,2.67-.61,3.65,3.65,0,0,1,.86.13l.18,0a8.1,8.1,0,0,0,1.53.91,30.68,30.68,0,0,0,3.11.45c.61.09,2.37.25,3.11.46s1.57,1.09,2.29,1.33c.91.3,2.2.16,3.11.45s1.4,1,2.29,1.34c.38.13,2.75.4,3.11.45.52.07,2.5.27,3.11.45A21.64,21.64,0,0,1,439,123.7c.9-.21,1.92-.83,2.79-1s1.71.28,2.64.14,2.06-.88,3-1,1.7.28,2.64.14,2.11-.9,3-1,1.64.25,2.64.13c.74-.08,2.19-.89,3-1s1.83.29,2.64.14a13.75,13.75,0,0,0,1.39-.43h.19l1.69-.05h3.14c.49,0,2.56-.09,3.14,0a22.51,22.51,0,0,1,2.46,1,21.7,21.7,0,0,0,2.46,1c.48.12,2.55-.11,3.15,0,.93.17,1.55.79,2.46,1h1.37l1.48.56L495,123l9,.53c.26,0,2.81-.5,3.1-.56.75-.13,2.17-.48,3.09-.55a2.7,2.7,0,0,1,.82.13c-.07-.4-.14-.84-.19-1.24Z" />
  <path d="M511.76,122.76a4.55,4.55,0,0,0,1,.18l.29,0a7.82,7.82,0,0,1-.18-1.22Z" />
  <path d="M38.38,4.09A20.32,20.32,0,0,0,41,4.65c.49,0,2.67-.46,3.1-.52s2.56-.53,3.1-.53c.87,0,1.73.57,2.59.56s1.72.56,2.59.56,2.13-.49,3.09-.53,2.15-.55,3.1-.56,1.63.53,2.59.54,1.63.5,2.59.53c.75,0,2.3-.56,3.09-.56,1,0,1.65.54,2.6.53s2.13-.52,3.09-.56c.77,0,1.8.54,2.59.53s2.24-.57,3.09-.56a3.81,3.81,0,0,1,1.15.21h-.13a5.19,5.19,0,0,0,1.48.17c.74,0,2.22-.79,3-.88s1.77.31,2.64.27c1.06-.06,1.56.33,2.64.26.75-.06,2.23-.79,3-.88s1.73.37,2.64.26,2.07-.77,3-.88c.6-.06,2.12.36,2.64.26.9-.16,2.23-.64,3-.86h.21c.67,0,2.32,0,3.14.15.63.11,1.73.95,2.4,1.1.93.21,2.19,0,3.14.16s2.22-.06,3.14.15,1.47.88,2.41,1.1a24.32,24.32,0,0,1,2.41,1.11c0,.16-3-.28-3.14-.15s2.34.9,2.41,1.1l6.27.31,1.58.08h0l3.86-1.08,8.33-.65a2.92,2.92,0,0,0,.5,0c.74,0,2.22-.8,3-.89s1.78.29,2.64.24c.61,0,2.33-.82,3-.89.95-.11,1.68.34,2.63.24h.09c.9.31,2.19.18,3.11.46a26.06,26.06,0,0,1,2.29,1.34A23.08,23.08,0,0,0,159,7.26c.57.19,2.59.38,3.1.46s2.6.29,3.11.46c.92.3,1.38,1,2.29,1.33a21.38,21.38,0,0,1,2.29,1.34,26.44,26.44,0,0,0,2.29,1.33,25.54,25.54,0,0,0,2.86.42l.27,0,.25,0c.75-.13,2.66-.38,3.09-.55.25-.1-2.64-.43-2.59-.54a21.5,21.5,0,0,1,2.77-.46l1.44.31,2.64.38a4.82,4.82,0,0,0,1.43.3c1.08,0,2-.51,3.09-.55.77,0,1.8.54,2.6.54s2.17-.56,3.09-.55,1.64.54,2.6.54c.59,0,2.6-.59,3.09-.55a3.71,3.71,0,0,1,.44,0h0c.78.05,1.65.24,2.19.31.24,0,2.38.36,2.63.32.83-.12,2.38-.63,3-.81.86-.22,2.43-.56,3-.8.21-.08-2.6-.24-2.63-.32a4.45,4.45,0,0,1,.45-.14l1-.27c.73-.2,1.5-.39,1.58-.4.91-.08,1.73.41,2.63.32a25.36,25.36,0,0,1,2.64.33l2.63.32a25,25,0,0,0,2.62.33,19.25,19.25,0,0,0,2.24-.58H223l.83-.11L227,9.67l3.12-.35c.54-.07,2.45-.38,3.12-.36a25.72,25.72,0,0,1,2.56.71,21.51,21.51,0,0,0,2.56.7c.49.07,2.53-.39,3.12-.36,1,.06,1.62.63,2.57.71s2.25-.4,3.11-.36,1.64.54,2.58.54,2.16-.54,3.11-.54,1.66.56,2.59.55,2.09-.51,3.1-.55c.78,0,1.79.55,2.59.55s2.15-.5,3.1-.55,2.17-.54,3.1-.54,1.65.55,2.6.55a4.87,4.87,0,0,0,1.09-.16h-.09a9.78,9.78,0,0,1,2.05-.13c.94.12,1.57.71,2.5.86a20.06,20.06,0,0,1,2.5.87l2.51.86a25,25,0,0,0,2.5.87c.54.06,2.69-.14,3.14-.16l3.14-.16,3.14-.15c.57,0,1.62-.14,2.46-.17h.31l.07,0c.22-.12.42-.23.6-.31.44-.21,2.1-.24,2.62-.42.7-.24,1.95-1.33,2.69-1.61.9-.35,1.72-.09,2.62-.42s1.83-1.29,2.7-1.62,1.73-.07,2.61-.41,1.82-1.28,2.7-1.62,1.71-.08,2.61-.41,1.87-1.27,2.7-1.62a5.15,5.15,0,0,1,1.55-.24h0l-.17-.07,1.1,0a4.9,4.9,0,0,1-.89.12c.88.26,2.21.11,3.08.38s1.4,1,2.32,1.28c.57.18,2.66.21,3.12.39a20.62,20.62,0,0,1,2.31,1.28l2.32,1.28.6.08,3.22.74,5.12.41,7.79-.41h0l1.34,0c.28,0,2.51-1.05,2.93-1.15.75-.18,1.87.18,2.65,0,.28-.06,2.78-1.06,2.92-1.15s-2.68.1-2.65,0a2.61,2.61,0,0,1,.83-.37h0L365.74,5h0a7.84,7.84,0,0,1,1.1,0c.11.13-2.89,1-2.93,1.15s2.51-.14,2.65,0A4.27,4.27,0,0,0,367.1,6c-.28,0-.57,0-.85-.06l.94,0-.09,0a6.79,6.79,0,0,1,1.62.19c.91.27,1.42,1,2.33,1.26s2.21.08,3.13.35,1.43,1,2.33,1.26,2.2.09,3.12.36,1.47,1,2.33,1.26c1,.28,2.1.09,3.12.35.75.19,1.57,1,2.33,1.26a22.51,22.51,0,0,0,2.79.3l.83.11.25-.12.31-.13a1.4,1.4,0,0,1-.33.07l-.87.09-.17-.09c-.58-.29-1.59-1-2-1.13a16.21,16.21,0,0,0,2.28.21l.42,0,.09-.05a4.77,4.77,0,0,1,.8-.32c.08,0,.75-.08,1.39-.12l.87,0h.37c-.14.25-2.52,1.07-2.83,1.35.84-.2,1.81.08,2.65-.16s1.9-1.1,2.83-1.35c.58-.16,2.15,0,2.65-.17.88-.32,2.14-1,2.84-1.35.42-.21,2.29-1.2,2.83-1.36.84-.24,1.81,0,2.65-.16s2.07-1.14,2.83-1.35,1.75,0,2.65-.17a10.37,10.37,0,0,0,1.73-.83l-.58.08a6.68,6.68,0,0,1,1.21-.18,25.75,25.75,0,0,1,2.58.6,20.89,20.89,0,0,0,2.58.6c.52,0,2.65-.41,3.1-.48s2.57-.49,3.11-.48c.79,0,1.82.62,2.58.61,1,0,2.16-.5,3.11-.48s1.64.58,2.58.6,2-.44,3-.47l-.13,0h0l.29,0h-.15c.73.17,1.68.83,2.35.9s2.52-.06,3.14-.07c.84,0,2.14-.14,3.14-.07.41,0,2,.84,2.48.93s2.77-.07,3.14-.07,2.55-.16,3.15-.08c.82.12,1.67.78,2.48.94s2.35-.2,3.14-.08a3.45,3.45,0,0,1,.86.27h.34a7.69,7.69,0,0,0,1.72.33c.91,0,1.69.46,2.62.41s2.12-.65,3.06-.7,1.67.46,2.62.41,2.08-.63,3.07-.7c-.08,0-.74-.09-1.37-.19l-.87-.14a2,2,0,0,1-.38-.08,21.15,21.15,0,0,1,2.76-.6l4.16-.18,4.61.23c.53.1,1.31.28,2,.36l-.56,0,.43.13c.5.13,2.53-.1,3.14,0s1.93.94,2.46,1a24.83,24.83,0,0,0,2.73,0l2.38.76,5.4.17,3.37,2h0c0,.15,0,.29,0,.39s0,.6,0,1l-.87,1.63a.32.32,0,0,0,0-.13,2,2,0,0,0-.15.37l-.14.38h0l-.17.45c-.22.61-.43,1.24-.44,1.29-.07.82.1,2.46.12,3.14,0,.48.19,2.61.12,3.15s-.89,2.13-.9,2.49c0,1.05.09,2.23.12,3.14V30l.67,2.72c.09.34.74,2.67.75,3.05a20.4,20.4,0,0,1-.37,2.62L504.41,41c0,.26-.4,2.32-.37,2.63.08.73.61,2.46.75,3.05.25,1,.5,2,.75,3s.45,1.81.68,2.75l0,.15.1.29c.14.46.89,2.46,1,3,.13.91-.26,1.74-.18,2.64,0-.06-.24-.8-.47-1.52l-.33-1a4.13,4.13,0,0,0-.17-.47,24.11,24.11,0,0,0-.18,2.63l-.19,2.64,1,3c.3.93.67,2.23,1,3,.23.57.76,2.76,1,3s0-2.68.18-2.63a1.91,1.91,0,0,1,.17.43c.08.26.2.61.32,1,.22.71.45,1.45.48,1.6.13.63-.28,1.94-.18,2.62.05.45,1,2.69.93,3a19.6,19.6,0,0,1-.29,2.65c-.13.1-.68-3-.84-3a8.53,8.53,0,0,0-.17,1.21c-.07.63-.13,1.29-.12,1.43s.77,2.74.84,3,.8,2.52.85,3c.15-.55.11-2.16.29-2.63a26.51,26.51,0,0,1,.29-2.64c.11,0,.76,3.19.84,3a21.4,21.4,0,0,0,.29-2.64c.09-.87.19-1.75.29-2.64-.13-1-.75-2.08-.9-3-.09-.69.31-2,.19-2.64-.17-.86-.75-2.29-1-3-.14-.46-.89-2.46-1-3s.28-2.27.19-2.64c-.25-1-.7-2.16-1-3-.32-1-.64-2-1-3-.17-.53-.85-2.31-1-3a4.15,4.15,0,0,1,0-.84v-.06c.11-.7.26-1.6.29-1.78a21.46,21.46,0,0,0,.37-2.62c0-.51-.65-2.64-.75-3.06s-.73-2.65-.75-3a20.4,20.4,0,0,1,.37-2.62,21.07,21.07,0,0,0,.37-2.63c0-.44-.69-2.5-.75-3.05-.08-.77.42-1.83.37-2.62a6.66,6.66,0,0,0-.26-1.21v.08c-.05-.7-.13-1.46-.11-1.91l-.26.73c-.14.39-.31.84-.43,1.08v.09a5,5,0,0,1-.06.71,1.94,1.94,0,0,1-.22-.69V29.7c0-.82,0-2.13,0-2.43-.11-.63-.09-2.26-.12-3.14-.06-1.53-.12-3.06-.17-4.6l1.79-4a1.58,1.58,0,0,0,.05.43L509,11l-.08-2.11h0l-2-.66-11.15-.42h0l-2.26-.91a22.69,22.69,0,0,0-2.45-1c-.5-.09-2.72,0-3.15,0h-1.37l-.91.21h0l-8.36.1h0l-.62-.07c-.77,0-2.26.66-3.07.7s-1.68-.42-2.62-.41S469.32,6,468.37,6s-2.09.63-3.06.7-1.83.52-2.7.67h-.09a2.22,2.22,0,0,1-.37,0c-.59-.09-1.95-.89-2.48-.93-.93-.07-2.38.05-3.14.07-.49,0-2.55.15-3.14.07a24.87,24.87,0,0,1-2.49-.93,25.41,25.41,0,0,0-2.47-.93c-.68-.08-2.59.06-3.14.07-.77,0-2.22.15-3.15.07-.53,0-1.88-.84-2.48-.93a5.27,5.27,0,0,0-1.06,0h0a13,13,0,0,1-2.06.36c-.93,0-2.19.5-3.11.48s-1.62-.58-2.57-.6-2.16.5-3.11.48-1.64-.55-2.58-.6c.07,0,.84-.11,1.6-.22l1-.17.47-.09a1.89,1.89,0,0,0-.37-.11l-.85-.2c-.62-.15-1.27-.29-1.35-.29-.6,0-2.6.41-3.11.48s-2.57.49-3.11.48-2.22-.63-2.58-.6a22.09,22.09,0,0,0-2.25.34h0L413.9,4l-2.83,1.35c-.46.22-2.25,1.18-2.84,1.35-.09,0-.74.08-1.38.12s-1.25.07-1.27,0,2.81-1.19,2.84-1.36a23.48,23.48,0,0,0-2.64.17c-.34.06-2.38,1.23-2.84,1.36-.91.25-1.73-.09-2.64.16s-1.93,1.1-2.84,1.35c-.75.21-1.93-.06-2.65.17s-2.28,1.09-2.83,1.35l-1.25.63h0a14.78,14.78,0,0,1-1.73-.23c-.4-.07-1.87-1.11-2.34-1.26s-2.75-.31-3.12-.35l-3.12-.36c-1-.36-1.31-.91-2.33-1.25-.71-.24-2.36-.13-3.13-.36s-1.42-1-2.33-1.26-2.19-.12-3.12-.35c-.75-.2-1.57-1-2.33-1.26L366.81,4h-.06l-.8.31h0L354.76,6l0,0a9.52,9.52,0,0,0-1.48,0c-.51.1-2.52,1-2.92,1.15-.69.27-2.57.9-2.93,1.14-.19.13,2.56-.06,2.65,0s-.39.21-.94.4h0l-6,.33-7.49-.87A20.22,20.22,0,0,1,333.37,7c.07-.08,3.26.51,3.12.39a22,22,0,0,0-2.32-1.28,20.09,20.09,0,0,0-2.32-1.29c-.44-.17-2.56-.22-3.12-.38-.93-.34-1.35-1-2.32-1.28-.39-.13-2.75-.34-3.12-.39l-3.12-.39-1.23-.15-.13,0,0,0-1.63,1c-.42.25-2.14,1.39-2.7,1.62-.82.33-1.78.09-2.61.41-.56.21-2.22,1.48-2.7,1.62a21.63,21.63,0,0,1-2.61.41l-2.62.42a20.2,20.2,0,0,0-2.62.42c-.84.31-1.85,1.29-2.69,1.61-.66.25-2,.15-2.62.42a13.33,13.33,0,0,0-1.44.82l.52,0-.58.08.06,0c-.34,0-.66.06-.89.06-.48,0-2.6.23-3.14.16-.76-.09-1.77-.8-2.5-.86-1.12-.09-2,.25-3.14.15-.78-.06-1.72-.76-2.51-.86s-2.22.22-3.14.16c-1.11-.08-2,.25-3.14.15-.77-.06-1.71-.76-2.51-.86a16.26,16.26,0,0,0-2.56.17h0a3.66,3.66,0,0,1-.57,0c-.86,0-1.74-.51-2.59-.54s-2.3.54-3.09.54-1.71-.5-2.58-.55c-1.07-.06-1.5-.5-2.59-.54-.74,0-2.3.54-3.1.54s-1.62-.54-2.58-.54-2.16.54-3.09.54c-.6,0-2.05-.58-2.58-.55-.92.1-2.35.34-3.1.43-.58.07-2.39.37-3.1.36s-1.77-.66-2.57-.71-2.16.41-3.11.36S234.7,8,233.75,7.9s-2.16.41-3.11.36a22.43,22.43,0,0,1-2.56-.71,20.8,20.8,0,0,0-2.55-.7,17.36,17.36,0,0,0-2.39.3h-.25a6.22,6.22,0,0,1-.71.16c-1,.08-1.67-.4-2.63-.33-.46,0-2.63.71-3,.81s-2.5.76-3,.8c-1,.09-1.66-.39-2.62-.32s-1.64-.37-2.64-.33c-.74,0-2.24.74-3,.81s-2-.42-2.64-.32-2.41.64-3,.8l-.6.16h.17l-2.5.44c-1,.17-2,.41-3.09.55-.59.08-2.46.55-3.1.55s-2.06-.58-2.59-.54a16.67,16.67,0,0,0-1.88.31h0l-4.61-.5h0l-1.79-.34-2.59-.54-1.8.32.68.1-.69-.1h0l-.62-.09c-.41-.06-2.65-.3-3.11-.46a22,22,0,0,1-2.29-1.33,19.89,19.89,0,0,0-2.29-1.34c-.47-.2-2.52-.26-3.11-.46s-1.77-1.2-2.28-1.33c-.91-.23-2.35-.35-3.11-.46l-3.11-.46c-1-.39-1.28-1-2.29-1.33a4.22,4.22,0,0,0-1-.19L151,2.1h0a11.53,11.53,0,0,1-2,.62c-.94.11-1.69-.35-2.63-.24s-2.06.75-3,.89c-.76.12-1.84-.33-2.63-.24-.3,0-2.85.82-3,.9s2.68.13,2.64.24a10.85,10.85,0,0,1-1.56.46h0L126.27,6.06,124,5l-2.41-1.11a22.09,22.09,0,0,0-2.4-1.1c-.6-.17-2.47,0-3.15-.15s-1.88-1-2.4-1.11c-.93-.14-2.38-.12-3.14-.15-.43,0-2.67,0-3.14-.16-.93-.21-1.48-.89-2.41-1.1a4.81,4.81,0,0,0-1.1-.09L103,0a9.67,9.67,0,0,1-2,.6c-.94.11-1.69-.36-2.64-.26s-2,.75-3,.88S93.62.86,92.74,1s-2.07.73-3,.88-1.91.71-3,.88c-.76.11-1.84-.35-2.63-.27-.95.11-2.08.78-3,.88a13,13,0,0,1-2-.18l.24,0L78.67,3a20.26,20.26,0,0,0-2.59-.53c-.49,0-2.49.55-3.09.56-1,0-1.63-.53-2.59-.54S68.23,3,67.3,3s-1.64-.53-2.59-.53-2.14.56-3.09.56S60,2.53,59,2.54s-2.15.56-3.09.56-1.65-.55-2.6-.56-2.14.54-3.09.53-1.63-.55-2.59-.56S45.51,3,44.57,3,42.92,2.48,42,2.48,39.83,3,38.89,3s-1.64-.54-2.59-.56S34.13,3,33.2,3c1,0,1.62.54,2.59.56A22.41,22.41,0,0,1,38.38,4.09Zm470.08,7.64c-.52-.2-1.09-.55-1.6-.74l.59-.6Z" />
</g>
</g>
</svg>