<svg xmlns="http://www.w3.org/2000/svg" viewBox="0 0 513.93 124.51"><g id="f66208a6-940f-4294-a3bf-3e25733c010b" data-name="Ebene 2"><g id="f499471f-e336-4862-98f6-4c9f25255c45" data-name="Ebene 1"><path d="M4.21,3.9c-.07,1,.18,2.55.1,3.49s-.58,1.43-.64,2.23c-.07,1.09.23,2.4.16,3.46-.07.89-.62,1.4-.71,2.33s.29,2.42.21,3.39-.65,1.47-.74,2.44.33,2.38.25,3.33-.67,1.56-.76,2.55c-.05.68.37,2.68.29,3.24-.07.31-.63,2.6-.68,2.58a5.67,5.67,0,0,1-.22-1.49,10.07,10.07,0,0,0-.15-1.71c.05-1-.36-2.33-.27-3.35s.69-1.63.78-2.62-.32-2.41-.22-3.44.68-1.52.77-2.51-.26-2.49-.15-3.49.65-1.43.74-2.4-.2-2.55-.08-3.54S3.46,7,3.58,6.1Z" style="fill:#1d1d1b;fill-rule:evenodd"/><path d="M62.29,85.6c.78-.56,1.49-1.65,2.27-2.18s1.67-.46,2.45-1,1.49-1.66,2.28-2.19,1.67-.51,2.44-1,1.68-.48,2.46-1,1.68-1.73,2.33-2.1c.93-.54,1.58-.43,2.49-.92l2.49-.92c-.29.27-1.92,1.86-2.32,2.11s-2.07.6-2.5.91c-.74.55-1.76,1.59-2.32,2.11-.32.31-1.84,1.89-2.27,2.18a22.47,22.47,0,0,1-2.45,1,21.32,21.32,0,0,0-2.45,1c-.28.18-2.11,2.1-2.27,2.17a21.65,21.65,0,0,1-2.45,1c0-.17,2.42-2.11,2.27-2.18S62.63,85.63,62.29,85.6Z" style="fill:#1d1d1b;fill-rule:evenodd"/><path d="M88.66,69.23l-5,1.83,4.67-4.21c.8-.54,1.53-1.6,2.34-2.11A4.86,4.86,0,0,1,92,64.29l.44-.22a4,4,0,0,0,1.29-.16c.51-.18,2.34-1.37,2.76-1.48a20,20,0,0,1,2.64-.29c.29,0,2.3-.18,2.63-.3.64-.23,2.28-1.22,2.77-1.48l2.77-1.49c.68-.37,1.91-1.13,2.77-1.49.49-.2,2.07-.11,2.63-.29a7,7,0,0,0,1.3-.67l-.2.08a9.16,9.16,0,0,1,1.39-1c.85-.42,1.76-1.38,2.61-1.76s1.9-.21,2.59-.55c.49-.24,2.2-1.6,2.61-1.75a21.32,21.32,0,0,1,2.59-.55l2.59-.55-5.22,3.51c-.86.42-1.74,1.37-2.6,1.75s-1.91.21-2.6.55c-.94.46-1.66,1.31-2.6,1.75a2.78,2.78,0,0,1-.6.19l0,0a9.73,9.73,0,0,0-2,.17c-.92.3-1.85,1.16-2.77,1.49S107.9,61,107,61.26s-1.73,0-2.64.29-1.86,1.19-2.76,1.49c-.56.18-2.15.09-2.64.29-.86.36-2.09,1.12-2.77,1.49L93.41,66.3l-.2.11.09,0a27.94,27.94,0,0,1-2.16,2C90.76,68.6,89.12,69,88.66,69.23Z" style="fill:#1d1d1b;fill-rule:evenodd"/><path d="M138.83,49l1.75-1.26,4.83-3.45L139,45.67l-.48.11c-.31.06-2.64.65-2.6.55.1-.26,2.28-1.39,2.58-1.73l2.95,4,0,0-1.69,2.65c-.2.32-1.4,2.36-1.69,2.66-.7.73-1.44.84-2.15,1.54.05-.33,1.77-2.47,1.69-2.65s-2.25,1.79-2.15,1.54c.16-.44,1.28-2,1.68-2.65Z" style="fill:#1d1d1b;fill-rule:evenodd"/><path d="M129,59l4.3-3.09-3.37,5.31-1.69,2.65c-.29.45-1.26,2.16-1.69,2.65-.25.29-1.91,1.37-2.15,1.55a21.36,21.36,0,0,0-2.15,1.54c-.11.11-1.2,1.81-1.51,2.37l.44-.72a1.31,1.31,0,0,0-.07.32,1.86,1.86,0,0,0,.2-.27l-.47.76c.53-.35,1.8-1.27,1.87-1.35a14.24,14.24,0,0,0-1.19,1.95l.63-1a4.91,4.91,0,0,1-.23.82,25,25,0,0,1-1.51,2.18,24.55,24.55,0,0,0-1.51,2.18c-.31.78-1.18,1.39-1.51,2.17s-.51,2.43-.7,3.07c-.31,1-.5,2.17-.7,3.07-.16.7-.41,2.22-.7,3.05-.19.56-1.26,1.59-1.51,2.18s-.38,2.39-.7,3.07c-.23.5-1.35,1.71-1.51,2.17a10.6,10.6,0,0,0-.35,1.38l-.14.28-.53,1.65-1,3c-.15.45-.77,2.47-1,3a25.31,25.31,0,0,1-1.75,2,20.59,20.59,0,0,0-1.74,2c-.28.41-.75,2.44-1,3-.44.78-1.27,1.25-1.74,2-.35.54-.7,2.36-1.05,3a21.79,21.79,0,0,1-1.75,2l-.5.59-2.2-3.76,1.82.45c.28-.17,3-.26,3.11-.44s-2.79-.49-2.58-.63,2.54-.36,3.12-.44c.43-.06,2.61-.46,3.11-.44.8,0,1.8.63,2.57.63s2.45-.49,3.12-.44c1.07.07,1.54.52,2.57.63l-3.11.44c-.5.07-3,.33-3.11.44a1.62,1.62,0,0,0,.36.11l.84.22c.63.15,1.28.3,1.37.3.8,0,2.36-.49,3.11-.44a3.66,3.66,0,0,1,.91.18l.62.09a7.54,7.54,0,0,0,1.47.9c1,.11,2.16.33,3.11.43-.15,0,2.35,1.27,2.31,1.32s-2.68-.38-3.12-.43l-3.11-.43-1.16-.16-.15,0-2,.27c-.66.09-2.29.43-3.11.44-.66,0-1.86-.61-2.57-.63s-2.62.5-3.12.44a22.53,22.53,0,0,1-2.57-.63,22.47,22.47,0,0,0-2.57-.63,9.75,9.75,0,0,0-1.31.14l.76,1.29.56-1.73,1-3c.17-.49.74-2.39,1-3a25,25,0,0,1,1.75-2,23.72,23.72,0,0,1,1.75-2s-.06.2-.15.47l-.34,1c-.25.71-.51,1.44-.56,1.52.48-.83,1.28-1.15,1.75-2,.34-.61.78-2.35,1-3,.42-1,.74-2.1,1-3,.24-.68.67-2.18,1-3,.26-.53,1.42-1.42,1.75-2a3.64,3.64,0,0,0,.25-.61l0-.09A17.15,17.15,0,0,1,110,93.8c.22-.48,1.36-1.73,1.51-2.18.29-.86.53-2.33.7-3.07.08-.37.52-2.65.7-3a20.12,20.12,0,0,1,1.51-2.18c.16-.24,1.37-1.84,1.51-2.18.24-.62.57-2.53.7-3.06.08-.37.53-2.7.69-3.07.39-.86,1.15-1.29,1.51-2.18a14,14,0,0,0,.5-2.37l-.08.12a3.63,3.63,0,0,1,.43-.58c.48-.52,1.72-1,2.15-1.54s1.33-2.09,1.69-2.65l1.68-2.65c.63-.74,1-2,1.69-2.65S128.34,59.62,129,59Z" style="fill:#1d1d1b;fill-rule:evenodd"/><path d="M126.81,120.59l3.11.43c.91.12,2.07.21,3.12.43l.48.07-2.34.38a21.57,21.57,0,0,1,1.89-1.86c.44-.3,2.1-.74,2.45-1,.77-.64,1.65-1.62,2.24-2.21.41-.4,1.68-1.78,2.24-2.19a25,25,0,0,1,2.45-1,24.47,24.47,0,0,0,2.44-1c.81-.58,1.45-1.66,2.25-2.2s1.66-.49,2.44-1c.45-.31,1.9-1.88,2.25-2.21l.54-.54.51-.29c.74-.48,1.86-1.22,2-1.27a24.73,24.73,0,0,1,2.6-.49c0,.17-2.78,1.59-2.65,1.69s2.28-.57,2.61-.49l-2.65,1.69-1.12.71-.15.09-1.3,1.27c-.35.35-1.75,1.86-2.24,2.21a25.33,25.33,0,0,1-2.44,1l-2.45,1a22.24,22.24,0,0,0-2.45,1c-.31.2-2,2-2.24,2.2l-2.24,2.21c-.55.53-1.52,1.62-2.24,2.2-.42.33-2,.68-2.45,1a7,7,0,0,0-1.15,1.11l.61-.1a8.73,8.73,0,0,1-1.53-.2c-.9-.26-2.26-.15-3.12-.44-.09,0-.67-.35-1.23-.66l-.74-.44a1.66,1.66,0,0,1-.32-.21c.11-.12,3.14.59,3.11.43S127,120.86,126.81,120.59Z" style="fill:#1d1d1b;fill-rule:evenodd"/><path d="M165.26,104.29l-5.21,1,2.65-1.69c.4-.26,2.61-1.56,2.65-1.69a25,25,0,0,0-2.6.49l-2.61.49a20.94,20.94,0,0,1-2.6.49s.14-.11.38-.26l.87-.57c.65-.41,1.32-.83,1.4-.86.87-.36,1.73-.17,2.6-.49s1.78-1.33,2.65-1.69c.55-.23,2.13-.25,2.61-.49.83-.42,2-1.28,2.64-1.69.24-.15,2.42-1.61,2.65-1.69s.54-.13,1-.23l-.73.4c.68-.27,1.49-.59,1.49-.56A5.51,5.51,0,0,1,174,96.32l.61-.34a7.91,7.91,0,0,0-1.33.84,6.65,6.65,0,0,0,1.56-.32l-.52.29c.52-.25,1-.46,1-.37s-.31.38-.73.74l.44-.24a12.48,12.48,0,0,0-1.79,1.1c-.18.27-2.64,1.49-2.65,1.69s2.79-.64,2.61-.49c-.5.41-1.91,1.22-2.65,1.69l-2.65,1.69Z" style="fill:#1d1d1b;fill-rule:evenodd"/><path d="M180.07,93.26c.34,0,2.24-1.08,2.46-1s-2.3,2-2.28,2.17,2.6-1.22,2.46-1c-.23.42-1.94,1.7-2.27,2.17l-4.92,2c.12-.3,2.31-2,2.27-2.17s-2.6,1.13-2.46,1,2-2,2.28-2.17C178.39,93.73,179.27,93.75,180.07,93.26Z" style="fill:#1d1d1b;fill-rule:evenodd"/><path d="M187.63,91.5c-.19-.09-2.42,1.18-2.46,1s2.31-2,2.28-2.17S185,91.5,185,91.3s2.39-2.06,2.27-2.17-2.43,1.18-2.46,1,2.46-2.17,2.28-2.17a22.26,22.26,0,0,0-2.47,1c-.19.08-2.52,1.07-2.46,1s2-2,2.28-2.17a20,20,0,0,1,2.46-1l2.45-1c.2.09,2.44-1.18,2.47-1S189.35,87,189.53,87A20,20,0,0,0,192,86a25.69,25.69,0,0,1,2.46-1c0,.23-1.93,1.77-2.27,2.17s-1.62,1.55-2.27,2.17Z" style="fill:#1d1d1b;fill-rule:evenodd"/><path d="M196.54,81.64l.6-.57,7.73-7.38-3.28,11.16-1.54,5.25c-.49.86-1.17,1.17-1.64,2.07-.19.36-.78,2.66-.89,3s-.66,2.58-.88,3a23.6,23.6,0,0,1-1.64,2.08,19.7,19.7,0,0,0-1.64,2.07c-.26.43-.63,2.49-.89,3a4.26,4.26,0,0,1-.68.87l-.41.67a5.87,5.87,0,0,0-1.22,1,30.52,30.52,0,0,0-1.56,2.73L187,113.32c-.53.91-1,1.82-1.57,2.73-.27.47-1.15,2.2-1.56,2.72,0,.06-.56.48-1.07.88l-.69.54a3.74,3.74,0,0,1-.32.23,3,3,0,0,1,.24-.45l.54-.93.78-1.35c-.45.43-1.62,1.1-2.08,1.64s-1.19,2.17-1.56,2.73l-.17.26-3-6.2c1-.11,2-.34,2.79-.47.41-.07,2.63-.52,3.11-.51a21.06,21.06,0,0,1,2.58.57l2.59.58c.94-.19,2.19-.32,3.1-.52-.18,0,2.62.51,2.59.58s-2.67.39-3.11.51c-.69.18-2.18.36-3.09.51s-2,.37-3.11.51c-.52.07-2.52.52-3.1.51s-2.06-.6-2.58-.57a14.16,14.16,0,0,0-1.76.26l1.46,3c.25-.47.49-.9.66-1.21a30.9,30.9,0,0,1,1.56-2.73c.57-.7,1.5-.94,2.08-1.64.38-.46,1.22-2.37,1.56-2.73a21,21,0,0,1,2.08-1.64c.24-.19,1.83-1.33,2.08-1.64.39-.49,1.3-2.28,1.56-2.73l.5-.86.21-.35.61-2.06c.18-.6.58-2.31.89-3,.12-.28,1.48-1.88,1.64-2.08s1.46-1.71,1.64-2.09c.32-.68.55-2.4.88-3,.45-.81,1.23-1.24,1.65-2.08s.52-2.36.88-3c.52-1,1.12-1.18,1.64-2.08l1.12-1.42L207,77.44l-9.72,3.89Z" style="fill:#1d1d1b;fill-rule:evenodd"/><path d="M192.83,117.43c1-.18,2.14-.32,3.11-.51.43-.08,3-.4,3.1-.51a22,22,0,0,0-2.59-.57c-.18,0-2.44-.59-2.59-.58.77-.06,2.32-.52,3.1-.51a23.8,23.8,0,0,1,2.59.57l.88.23.92.09a10.4,10.4,0,0,0,1.59.72c.93.24,1.46.9,2.4,1.12.52.12,2.66.14,3.14.17.74.06,2.27,0,3.13.18.65.11,1.72,1,2.41,1.12s2.32,0,3.13.18a19.33,19.33,0,0,1,2.4,1.12c.29.13,2,1,2.4,1.12s2.64.06,3.09.16l-.88-.07h.05a21.37,21.37,0,0,1,2.6.48,26.24,26.24,0,0,0,2.6.48c.6,0,2.57-.53,3.08-.63s2.54-.61,3.07-.62c.3,0,2.45.51,2.61.48.41-.08,3-.53,3.07-.62a2.09,2.09,0,0,0-.38-.1l-.86-.16a13.68,13.68,0,0,0-1.37-.22c1,0,2.11-.6,3.08-.63a24.53,24.53,0,0,1,2.6.48c1,.09,1.84.34,2.6.48a17.73,17.73,0,0,0,2.61.44c.46,0,2.67-.61,3.06-.7l3-.71c.49-.11,2.46-.66,3.06-.7a24.61,24.61,0,0,1,2.61.41,19.94,19.94,0,0,0,2.6.42c.5,0,2.46-.68,3.06-.71.9,0,1.71.47,2.61.42a27.21,27.21,0,0,0,3.05-.73c.36-.09,2.64-.76,3-.78s2.3.4,2.62.34c1-.19,2.17-.56,3-.78l3-.78c.48-.13,2.44-.73,3-.79.42,0,2.31.31,2.63.35a22.32,22.32,0,0,0,2.61.34c1-.09,1.89-.61,2.84-.75l.38-.06.67.1.2,0c1,.18,2.19-.12,3.14.07.78.15,1.67.92,2.44,1,.59.09,2.65-.06,3.14.07a19.22,19.22,0,0,1,2.44,1l2.44,1a24.65,24.65,0,0,0,2.43,1c.64.11,2.61.06,3.14.07s3.13.14,3.15.06-.15-.07-.37-.17l-.81-.36c-.6-.25-1.21-.5-1.26-.51.9.13,2.25-.11,3.14.07a2.79,2.79,0,0,1,.72.25l-1.32,0a6.76,6.76,0,0,0,1.87.25c.94-.1,2.08-.77,3-.87s1.71.33,2.64.27c.74,0,2.23-.78,3-.86a22.89,22.89,0,0,1,2.63.27c.34,0,2.22.32,2.64.27.63-.08,2.52-.72,3-.87l3-.86a25.89,25.89,0,0,1,3-.85c.5-.09,2.06.37,2.64.32.79-.07,2.29-.78,3-.82.56,0,2.15.39,2.64.32.89-.14,2.34-.63,3-.81l3-.82c.46-.12,2.47-.75,3-.81a23,23,0,0,1,2.64.32,24.58,24.58,0,0,1,2.63.31l-.47.15-1,.27c-.74.2-1.49.39-1.56.4.94,0,1.68.4,2.63.32a4.24,4.24,0,0,0,.67-.14l.29,0a15.35,15.35,0,0,1,2.41-.46c.53,0,2.12.59,2.59.55.9-.06,2.35-.4,3.09-.53s2.14-.47,3.07-.54c.51,0,2,.55,2.59.56s2.42-.47,3.09-.54c1.05-.11,2.17-.38,3.06-.54.42-.07,2.6-.54,3.08-.53s2.22.4,2.59.47l2.6.43a19.27,19.27,0,0,0,2.59.44c.49,0,2.47-.65,3.07-.68.94,0,1.67.44,2.59.44.92-.24,2.18-.44,3.07-.68-.18,0,2.63.37,2.6.44s-2.63.57-3.06.68c-1,.23-2.17.43-3.07.67s-2.08.46-3.08.68l-3.07.68c-.73.16-2.16.57-3.07.67-.22,0-2.39-.4-2.6-.43s-2.19-.56-2.6-.54-2.72.57-3.08.53a22.09,22.09,0,0,1-2.6-.55c-.26-.06-2.29-.57-2.6-.55-.75,0-2.47.43-3.08.53l-3.09.54c-.28,0-2.85.55-3.09.54a21.76,21.76,0,0,1-2.59-.56l-1.39-.3h-.16l-1.22-.14-5.27-.64c-.26.21-3,.62-3,.81s2.84.16,2.64.32-2.46.62-3,.81c-.77.27-2.09.57-3,.82s-2,.61-3,.81c-.12,0-2.44-.29-2.63-.32a22,22,0,0,0-2.64-.31c-.44,0-2.66.7-3,.82l-3,.86c-.26.08-2.82.86-3,.87a25.86,25.86,0,0,1-2.64-.27c0-.12,3.19-.79,3-.87a22.35,22.35,0,0,0-2.64-.27l-2.63-.27-2.64-.27c-1,.13-2.08.76-3,.86-.39,0-2.38-.33-2.64-.27s-3,.79-3,.87,2.83.1,2.63.27-2.44.66-3,.87c-.21.07-.45.15-.77.23h.5c-.71,0-1.63,0-2.35-.06a30.88,30.88,0,0,1-3.14-.07c-.25,0-2.21-.94-2.43-1a24.52,24.52,0,0,0-2.44-1c-.49-.1-2.71-.06-3.15-.07s-2.85,0-3.13-.06a20.09,20.09,0,0,1-2.44-1l-2.44-1c-.52-.23-1.37-.68-2.13-1h0l-.72,0h-.32c-.49,0-2.44.74-3,.78s-1.92-.43-2.62-.34-2.42.62-3,.78c-.36.09-3.05.71-3,.78s2.83.26,2.62.35c-.54.22-2.23.57-3,.78s-2,.59-3.05.78c-.11,0-2.43-.32-2.63-.34a22.66,22.66,0,0,0-2.61-.35c-.44,0-2.67.69-3.05.78l-3.05.71c-.51.11-2.43.65-3.06.7a24.81,24.81,0,0,1-2.62-.41,22.46,22.46,0,0,1-2.62-.41c-.16-.09,3-.59,3.06-.71s-2.5-.23-2.62-.41l-3.06.7c-.35.09-3.06.63-3.05.71l.41.08.9.14,1.3.19c-.64.11-2.39.67-3.07.7s-1.84-.48-2.61-.41c-1.11.1-1.95.6-3.07.71-.74.07-1.82-.5-2.6-.47-.54,0-2.61.54-3.08.62s-2.46.6-3.07.63c-.92,0-1.7-.51-2.61-.48s-2.34.63-3.08.62c-1,0-1.6-.49-2.61-.48s-1.64-.5-2.6-.48c-.54,0-2.61.54-3.08.63l-1.58.35h.11a13.14,13.14,0,0,1-1.53-.12,20.7,20.7,0,0,1-2.39-1.12,19.5,19.5,0,0,0-2.4-1.12c-.47-.15-2.56,0-3.14-.18-.94-.22-1.47-.88-2.4-1.12s-1.46-.91-2.4-1.12c-.53-.13-2.66-.15-3.14-.18s-2.78-.08-3.14-.17a21.77,21.77,0,0,1-2.4-1.13l-.6-.3-.41,0a11.89,11.89,0,0,0-1.93-.4c-.8,0-2.26.5-3.1.51-1,0-2,.5-3.1.51-.08,0-.73-.13-1.36-.27l-.85-.2-.38-.1C189.82,117.76,192.55,117.61,192.83,117.43Z" style="fill:#1d1d1b;fill-rule:evenodd"/><path d="M417.57,116.64c.31-.09,3,.6,3.11.46a1.69,1.69,0,0,0-.33-.22l-.75-.44c-.56-.33-1.14-.66-1.21-.68-.38-.11-2.13-.34-2.78-.4l-.65-.08a2.52,2.52,0,0,0-.32.07c.19-.06-2.65-.35-2.61-.44s2.17-.48,2.87-.63l.11,0,.9.15.19,0c.35,0,2.73.32,3.11.45a20.71,20.71,0,0,1,2.29,1.34c.21.12,2,1.26,2.29,1.33.78.21,2.46.36,3.11.45.37.06,2.73.32,3.11.46s1.9,1.24,2.29,1.33c1,.22,2.28.33,3.11.45.44.06,2.62.29,3.11.45a10,10,0,0,1,1.36.76l-1.52-.1,1.1.09a24.69,24.69,0,0,0,2.64.13c.75-.13,2.29-.94,3-1,.92-.11,1.71.28,2.65.13.78-.12,2.23-.93,3-1s1.84.28,2.65.14c.6-.11,2.49-.86,3-1l3-1,2.85-1h1.31c.79,0,2.19-.1,3.14,0,.5,0,1.9.89,2.46,1,.92.16,2.25-.17,3.14,0s1.52.81,2.47,1c.78.14,2.41-.17,3.14,0,.89.19,1.72.76,2.46,1,.93.29,1.72.69,2.46,1l2.46,1,1.71.68-.31,0,.8.16-.79.15h.25l-5.48,0c-.91-.2-1.53-.82-2.46-1-.6-.1-2.67.13-3.15,0a21.7,21.7,0,0,1-2.46-1,22.51,22.51,0,0,0-2.46-1c-.58-.09-2.65,0-3.14,0h-3.14l-1.69.05h-.19a13.75,13.75,0,0,1-1.39.43c-.81.15-1.82-.27-2.64-.14s-2.24.94-3,1c-1,.12-1.63-.28-2.64-.13s-2.1.88-3,1-1.7-.28-2.64-.14-2.06.87-3,1-1.71-.29-2.64-.14-2,.87-3,1h0l.37,0c-.81-.28-1.46-1.08-2.27-1.33-.61-.18-2.59-.38-3.11-.45-.36,0-2.73-.32-3.11-.45-.89-.32-1.38-1-2.29-1.34s-2.2-.15-3.11-.45c-.72-.24-1.6-1.14-2.29-1.33s-2.5-.37-3.11-.46a30.68,30.68,0,0,1-3.11-.45,8.1,8.1,0,0,1-1.53-.91l-.18,0a3.65,3.65,0,0,0-.86-.13c-1,.05-2.09.62-3.07.68-.08,0-.73-.09-1.37-.2l-.86-.15-.38-.08c.08-.19,2.8-.49,3.06-.68l3.08-.68.33.06.61.07Z" style="fill:#1d1d1b;fill-rule:evenodd"/><path d="M509,11l-1.79,5c-.14-.29.05-3-.12-3.14s-.83,2.76-.89,2.49c-.11-.45-.09-2.37-.12-3.13,0-.58-.19-2.45-.12-3.15a2.73,2.73,0,0,1,.13-.51l2.39,3.17a14.18,14.18,0,0,0-2-.85c-.35-.28-2.22-.73-2.45-1s3.06.12,3.14,0-2.72-.93-2.46-1c.46-.09,2.38,0,3.14,0h1Z" style="fill:#1d1d1b;fill-rule:evenodd"/><path d="M498.44,8.89H495.3c-.76,0-2.21.09-3.14,0-.53-.05-1.87-.88-2.46-1s-2.64.13-3.14,0l-.43-.13.56,0c-.76-.09-1.65-.31-2.17-.39A22.87,22.87,0,0,1,481.9,7c0-.1,2.64-.61,3.07-.7l1.59-.37h1.37c.43,0,2.65-.09,3.15,0a23.75,23.75,0,0,1,2.46,1Z" style="fill:#1d1d1b;fill-rule:evenodd"/><path d="M380.42,8.52l3.12.36c.37,0,2.74.23,3.12.35s1.94,1.19,2.34,1.26a14.78,14.78,0,0,0,1.73.23h0l1.25-.63c.55-.26,2.13-1.12,2.83-1.35s1.9,0,2.65-.17c.91-.25,1.92-1.1,2.84-1.35s1.73.09,2.64-.16c.46-.13,2.5-1.3,2.84-1.36a23.48,23.48,0,0,1,2.64-.17c0,.17-3,1.24-2.84,1.36s.64,0,1.27,0,1.29-.09,1.38-.12c.59-.17,2.38-1.13,2.84-1.35L413.9,4l.78-.38h0a22.09,22.09,0,0,1,2.25-.34c.36,0,2.13.59,2.58.6s2.63-.41,3.11-.48,2.51-.49,3.11-.48c.08,0,.73.14,1.35.29l.85.2a1.89,1.89,0,0,1,.37.11l-.47.09-1,.17c-.76.11-1.53.23-1.6.22.94.05,1.62.58,2.58.6s2.16-.5,3.11-.48,1.63.58,2.57.6,2.18-.45,3.11-.48a13,13,0,0,0,2.06-.36h0a5.27,5.27,0,0,1,1.06,0c.6.09,1.95.89,2.48.93.93.08,2.38,0,3.15-.07.55,0,2.46-.15,3.14-.07a25.41,25.41,0,0,1,2.47.93,24.87,24.87,0,0,0,2.49.93c.59.08,2.65-.06,3.14-.07.76,0,2.21-.14,3.14-.07.53,0,1.89.84,2.48.93a2.22,2.22,0,0,0,.37,0h.09c.87-.15,1.84-.59,2.7-.67s2.1-.65,3.06-.7,1.68.43,2.61.42,1.68.46,2.62.41,2.3-.69,3.07-.7c.12,0,.78.09,1.4.19l.84.14a1.73,1.73,0,0,1,.37.08c-.07.19-2.8.51-3.06.71s-3,.51-3.06.7a2,2,0,0,0,.38.08l.87.14c.63.1,1.29.2,1.37.19-1,.07-2.11.65-3.07.7s-1.67-.46-2.62-.41-2.12.65-3.06.7S465.32,9,464.41,9a7.69,7.69,0,0,1-1.72-.33h-.34a3.45,3.45,0,0,0-.86-.27c-.79-.12-2.41.22-3.14.08s-1.66-.82-2.48-.94c-.6-.08-2.65.06-3.15.08s-2.74.14-3.14.07-2.07-.91-2.48-.93c-1-.07-2.3,0-3.14.07-.62,0-2.37.15-3.14.07s-1.74-.82-2.48-.93h0l.29,0c-.95,0-2.16.5-3.1.48s-1.63-.59-2.58-.6-2.14.46-3.11.48c-.76,0-1.79-.59-2.58-.61-.54,0-2.63.42-3.11.48s-2.58.5-3.1.48a20.89,20.89,0,0,1-2.58-.6,25.75,25.75,0,0,0-2.58-.6,6.68,6.68,0,0,0-1.21.18l.58-.08a10.37,10.37,0,0,1-1.73.83c-.9.21-1.74-.09-2.65.17s-2.1,1.18-2.83,1.35-1.81-.08-2.65.16c-.54.16-2.41,1.15-2.83,1.36-.7.33-2,1-2.84,1.35-.5.18-2.07,0-2.65.17-.93.25-1.9,1.07-2.83,1.35s-1.81,0-2.65.16c.31-.28,2.69-1.1,2.83-1.35h-.37l-.87,0c-.64,0-1.31.09-1.39.12a4.77,4.77,0,0,0-.8.32l-.09.05-.42,0a16.21,16.21,0,0,1-2.28-.21c.43.13,1.44.84,2,1.13l.17.09.87-.09a1.4,1.4,0,0,0,.33-.07l-.31.13-.25.12-.83-.11a22.51,22.51,0,0,1-2.79-.3c-.76-.22-1.58-1.07-2.33-1.26-1-.26-2.11-.07-3.12-.35-.86-.24-1.47-1-2.33-1.26s-2.2-.09-3.12-.36-1.44-1-2.33-1.26-2.22-.08-3.13-.35-1.42-1-2.33-1.26A15.76,15.76,0,0,0,366.25,6l.94,0a4.65,4.65,0,0,1-.63.21c-.14-.16-2.7.17-2.65,0s3-1,2.93-1.15-2.83.07-2.66,0,1.89-.79,2.57-1h.06l.37.08c.76.22,1.58,1.06,2.33,1.25.93.24,2.21.09,3.12.36s1.42,1,2.33,1.26,2.42.12,3.13.36C379.11,7.61,379.45,8.16,380.42,8.52Z" style="fill:#1d1d1b;fill-rule:evenodd"/><path d="M358.61,6.12c-.24.24-2.88,1-2.93,1.15s2.88-.12,2.65,0-2.64,1.09-2.92,1.15c-.78.16-1.9-.2-2.65,0-.42.1-2.65,1.12-2.93,1.15a24.78,24.78,0,0,1-2.65,0c0-.16,3-1,2.93-1.14s-2.84.1-2.65,0c.36-.24,2.24-.87,2.93-1.14.4-.16,2.41-1.05,2.92-1.15a23.19,23.19,0,0,1,2.65,0Z" style="fill:#1d1d1b;fill-rule:evenodd"/><path d="M338,9.54l-6.25-.77-2.32-1.28a20.62,20.62,0,0,0-2.31-1.28C326.67,6,324.58,6,324,5.82c-.92-.28-1.4-1-2.32-1.28s-2.23-.11-3.12-.38l-.17-.07,1.1,0a22.33,22.33,0,0,0-2.44.36c-.83.35-1.87,1.31-2.7,1.62s-1.71.07-2.61.41-1.81,1.28-2.7,1.62-1.73.07-2.61.41-1.84,1.3-2.7,1.62-1.72.07-2.62.42c-.74.28-2,1.37-2.69,1.61-.52.18-2.18.21-2.62.42-.18.08-.38.19-.6.31l-.07,0h-.31c-.84,0-1.89.14-2.46.17l-3.14.15-3.14.16c-.45,0-2.6.22-3.14.16a25,25,0,0,1-2.5-.87l-2.51-.86a20.06,20.06,0,0,0-2.5-.87c-.93-.15-1.56-.74-2.5-.86a9.78,9.78,0,0,0-2.05.13H271a4.87,4.87,0,0,1-1.09.16c-.95,0-1.65-.55-2.6-.55s-2.15.5-3.1.54-2.16.55-3.1.55-1.81-.58-2.59-.55c-1,0-2.09.54-3.1.55s-1.67-.55-2.59-.55-2.16.54-3.11.54-1.63-.54-2.58-.54-2.28.43-3.11.36-1.61-.65-2.57-.71c-.59,0-2.63.43-3.12.36a21.51,21.51,0,0,1-2.56-.7A25.72,25.72,0,0,0,233.2,9c-.67,0-2.57.29-3.12.36L227,9.67l-3.12.36-.83.11h.18a19.25,19.25,0,0,1-2.24.58,25,25,0,0,1-2.62-.33l-2.63-.32a25.36,25.36,0,0,0-2.64-.33c-.9.09-1.72-.4-2.63-.32-.08,0-.85.2-1.58.4l-1,.27a4.45,4.45,0,0,0-.45.14c0,.08,2.84.24,2.63.32-.6.24-2.17.58-3,.8-.66.18-2.21.69-3,.81-.25,0-2.39-.29-2.63-.32-.54-.07-1.41-.26-2.19-.31h0a3.71,3.71,0,0,0-.44,0c-.49,0-2.5.55-3.09.55-1,0-1.64-.54-2.6-.54s-2.16.55-3.09.55-1.83-.57-2.6-.54c-1.08,0-2,.52-3.09.55-.82,0-1.77-.53-2.59-.54l3.09-.55c.75-.14,2.17-.49,3.09-.56.53,0,2,.55,2.59.54s2.51-.47,3.1-.55c1.09-.14,2.13-.38,3.09-.55l2.5-.44h-.17l.6-.16c.62-.16,2.25-.7,3-.8s1.91.38,2.64.32,2.29-.77,3-.81c1,0,1.62.4,2.64.33s1.66.41,2.62.32c.54,0,2.57-.69,3-.8s2.58-.78,3-.81c1-.07,1.66.41,2.63.33a6.22,6.22,0,0,0,.71-.16h.25a17.36,17.36,0,0,1,2.39-.3,20.8,20.8,0,0,1,2.55.7,22.43,22.43,0,0,0,2.56.71c1,.05,2.16-.42,3.11-.36s1.61.65,2.56.71,2.17-.42,3.11-.36,1.79.69,2.57.71,2.52-.29,3.1-.36c.75-.09,2.18-.33,3.1-.43.53,0,2,.55,2.58.55.93,0,2.16-.55,3.09-.54s1.63.54,2.58.54,2.36-.57,3.1-.54c1.09,0,1.52.48,2.59.54.87,0,1.67.55,2.58.55s2.35-.57,3.09-.54,1.73.56,2.59.54a3.66,3.66,0,0,0,.57,0h0a16.26,16.26,0,0,1,2.56-.17c.8.1,1.74.8,2.51.86,1.12.1,2-.23,3.14-.15.92.06,2.24-.27,3.14-.16s1.73.8,2.51.86c1.12.1,2-.24,3.14-.15.73.06,1.74.77,2.5.86.54.07,2.66-.14,3.14-.16s.86-.06,1.41-.1l-.58.08a13,13,0,0,1,1.5-.86c.6-.27,2-.17,2.62-.42.84-.32,1.85-1.3,2.69-1.61a20.2,20.2,0,0,1,2.62-.42l2.62-.42a21.63,21.63,0,0,0,2.61-.41c.48-.14,2.14-1.41,2.7-1.62.83-.32,1.79-.08,2.61-.41.56-.23,2.28-1.37,2.7-1.62l1.63-1,0,0,.13,0,1.23.15,3.12.39c.37,0,2.73.26,3.12.39,1,.31,1.39.94,2.32,1.28.56.16,2.68.21,3.12.38a20.09,20.09,0,0,1,2.32,1.29,22,22,0,0,1,2.32,1.28c.14.12-3.05-.47-3.12-.39a20.22,20.22,0,0,0,2.32,1.28C336.4,8.68,337.28,9.12,338,9.54Z" style="fill:#1d1d1b;fill-rule:evenodd"/><path d="M176.93,9.32l2.59.54c.31.07,2.67.47,2.59.54s-2.73.36-3.09.56-3,.36-3.09.55,2.84.44,2.59.54c-.43.17-2.34.42-3.09.55l-.25,0-.27,0a25.54,25.54,0,0,1-2.86-.42,26.44,26.44,0,0,1-2.29-1.33,21.38,21.38,0,0,0-2.29-1.34c-.91-.32-1.37-1-2.29-1.33-.51-.17-2.64-.38-3.11-.46s-2.53-.27-3.1-.46a23.08,23.08,0,0,1-2.29-1.33,26.06,26.06,0,0,0-2.29-1.34c-.92-.28-2.21-.15-3.11-.46h-.09c-.95.1-1.68-.35-2.63-.24-.68.07-2.4.86-3,.89-.86.05-1.75-.34-2.64-.24s-2.27.84-3,.89a19,19,0,0,1-2.64-.24c-.17,0,3-.81,3-.9s-2.87-.13-2.64-.24,2.72-.87,3-.9c.79-.09,1.87.36,2.63.24,1-.14,2.08-.78,3-.89s1.69.35,2.63.24a11.53,11.53,0,0,0,2-.62h0l.92.09a4.22,4.22,0,0,1,1,.19c1,.38,1.33.94,2.29,1.33l3.11.46c.76.11,2.2.23,3.11.46.51.13,1.72,1.15,2.28,1.33s2.64.26,3.11.46a19.89,19.89,0,0,1,2.29,1.34,22,22,0,0,0,2.29,1.33c.46.16,2.7.4,3.11.46l1.3.19-.69-.1Z" style="fill:#1d1d1b;fill-rule:evenodd"/><path d="M2.17.91c1,0,2.07-.45,3.15-.46A32.05,32.05,0,0,1,8.54.9a28,28,0,0,1,3.18.51c0,.16-3,.26-3.19.41-1,0-2,.4-3.07.38-.4,0-2.87-.42-3.15-.47s3.06-.33,3.07-.4S2.41,1,2.17.91Z" style="fill:#1d1d1b;fill-rule:evenodd"/><path d="M1.88,41.76c0,1,.46,2.17.42,3.12,0,.79-.65,1.79-.65,2.56,0,1,.46,2.17.42,3.12s-.61,1.62-.65,2.57c0,.79.48,2.38.42,3.11v.12L1.71,57.5l1.23-.41a24.37,24.37,0,0,0,2.49-.49c.9-.41,1.74-1.35,2.63-1.73.72-.32,1.89-.2,2.59-.53,1-.49,1.62-1.24,2.62-1.74.83-.41,1.79-1.37,2.62-1.73s1.9-.2,2.6-.53c1-.47,1.65-1.29,2.62-1.74.78-.36,1.8-.18,2.6-.53s1.92-1.46,2.62-1.74,1.9-.2,2.59-.53,2.17-1.43,2.62-1.73,2.25-1.58,2.62-1.73c.72-.3,1.64-.21,2.38-.45l-1.15-1.14a2.12,2.12,0,0,0-.11.21c-.39.9-.4,2.16-.81,3-.33.72-1.29,1.41-1.59,2.12-.4,1-.39,2.08-.81,3s-1.21,1.31-1.59,2.12-.43,2.27-.81,3c-.05.1-.44.64-.82,1.15l-.52.68a2.14,2.14,0,0,1-.25.29c-.13-.15.86-2.71.81-3,.38-.89.41-2.17.81-3,.3-.65,1.34-1.5,1.59-2.12s.64-2.4.82-3,.48-2.17.81-3a19.93,19.93,0,0,1,1.44-1.87L37,42.92a1.54,1.54,0,0,0-.28.09c-.67.29-2,1.5-2.62,1.73a20.6,20.6,0,0,1-2.59.53,21.47,21.47,0,0,0-2.6.53c-.51.19-2,1.47-2.62,1.74S24.12,49,23.68,49.27c-.64.42-1.8,1.3-2.62,1.73-.47.25-2,.3-2.6.54-.88.38-1.73,1.34-2.62,1.73s-1.74.16-2.59.53-1.93,1.47-2.62,1.74c-.85.32-1.76.16-2.6.53S6.28,57.42,5.4,57.8a9.7,9.7,0,0,1-2,.35L0,58.78l.67-2.44a2.56,2.56,0,0,0,.1-.64c0-1-.45-2.18-.42-3.12S1,51,1,50c0-.8-.48-2.38-.42-3.12.09-1.07.54-1.54.65-2.57S.79,42.25.81,41.19c0-.07.16-.72.31-1.34L1.34,39a2.3,2.3,0,0,1,.12-.37C1.64,38.73,1.71,41.47,1.88,41.76Z" style="fill:#1d1d1b;fill-rule:evenodd"/><path d="M24.05,67.62c-.5.79-1.31,1.15-1.79,2-.27.46-.93,2.5-1.1,2.94-.3.75-.68,2.1-1.11,2.94-.26.52-1.46,1.41-1.79,2s-.93,2.49-1.1,2.94-.76,2.31-1.11,2.94a24.39,24.39,0,0,1-1.79,2,23.29,23.29,0,0,0-1.79,1.95c-.25.43-1,2.54-1.1,3l-.71,2,0-.07c0,.36,0,.71,0,1,0,.54-.79,1.92-.87,2.51-.12,1,.27,2.18.16,3.14s-.75,1.58-.87,2.51c-.1.78.28,2.4.16,3.13s-.81,1.85-.87,2.51.13,2.54.16,3.14l.15,3.14c0,.53.22,2.5.16,3.14-.09.84-.76,1.65-.87,2.5s.28,2.2.16,3.14a3.14,3.14,0,0,1-.28.93L7,122.13a5.51,5.51,0,0,0,1.68.08c.92-.18,2-.9,2.94-1.11.75-.17,1.87.2,2.64.06.54-.1,2.5-1,2.95-1.11l1.93-.77-.52.27a8.06,8.06,0,0,1,.67-.82,22.92,22.92,0,0,1,2.26-1.38A22.64,22.64,0,0,0,23.85,116c.39-.31,1.44-2.11,1.88-2.52.71-.66,1.55-.73,2.26-1.38.32-.3,1.65-2.21,1.88-2.52s1.52-2.18,1.88-2.52A22.19,22.19,0,0,1,34,105.65c.23-.14,1.86-1.05,2.21-1.33l0,0,.07,0c.59-.41,1.89-1.73,2.32-2.12l2.32-2.11c.65-.59,1.51-1.48,2.32-2.12.57-.44,1.7-1.72,2.32-2.11s1.89-.51,2.49-.93c.77-.54,1.53-1.61,2.31-2.11s1.69-.42,2.49-.93,1.53-1.59,2.31-2.13,1.65-.5,2.45-1c.26,0,2.33-1.15,2.45-1S58,89.71,57.75,90l-2.28,2.18c-.81.47-1.68.42-2.49.93s-1.67,1.74-2.32,2.11-1.85.5-2.49.93-1.92,1.75-2.32,2.12-2,1.9-2.32,2.11c-.72.43-1.8.47-2.48.92s-1.51,1.61-2.33,2.12-1.84.49-2.48.93l-.06,0,0,0c-.69.73-1.1,1.76-1.82,2.46s-1.18,1.86-1.88,2.52a23,23,0,0,1-2.27,1.38c-.21.14-2.08,1.19-2.26,1.38-.59.63-1.45,2-1.88,2.52l-1.87,2.52-1.88,2.51c-.26.35-1,1.5-1.55,2.14l-.23.29-.78.25c-.21.07-.37.11-.49.14a25.59,25.59,0,0,1-2.65-.06l-2.65,0a20.74,20.74,0,0,0-2.65-.06c-.93.17-2,.93-2.94,1.1a6.33,6.33,0,0,1-1.13,0l-.86,0,.21-.55a10,10,0,0,0,.5-1.44c0-.38-.09-3.09-.16-3.13s-.06.14-.14.37l-.3.84c-.21.62-.42,1.25-.42,1.29.06-.89-.27-2.26-.16-3.14s.8-1.74.87-2.5c.09-1-.27-2.11-.16-3.14s.76-1.62.87-2.5-.28-2.32-.16-3.15.75-1.54.87-2.5c.07-.59-.26-2.66-.16-3.14A21.07,21.07,0,0,1,9,98.12c.09-.28.82-2.14.86-2.51.06-.66-.13-2.59-.15-3.14l0-.48v0l.11-.3.93-2.48c.19-.5.8-2.39,1.11-3a26.39,26.39,0,0,1,1.79-2,21.26,21.26,0,0,0,1.79-2c.28-.4.8-2.42,1.1-2.94s1.52-1.42,1.79-2c.4-.78.86-2.28,1.11-2.94.37-1,.73-2,1.1-3l1.11-2.94,1.58-1.72-.07.12.19-.25a23.76,23.76,0,0,1,1.59-2.11,27.77,27.77,0,0,1-.78,2.81v0A1.49,1.49,0,0,0,24.05,67.62Z" style="fill:#1d1d1b;fill-rule:evenodd"/><path d="M504.94,121.33c-.1-.18-2.68-.35-2.6-.53s2.66-.47,3.1-.56l3.09-.56c.11.18,2.69.36,2.6.54s-3.18.41-3.1.56a21.34,21.34,0,0,0,2.6.53c.13,0,2.86-.51,3.09-.55h.06l-2.69,2.68c-.07-.47-.44-2.57-.42-3.06a24.66,24.66,0,0,1,.65-2.57,25.33,25.33,0,0,0,.66-2.57c0-.65-.35-2.58-.42-3.11-.05-.37-.45-2.71-.42-3.11s.67-2.17.65-2.57c-.05-1-.31-2.29-.42-3.12-.06-.42-.44-2.61-.42-3.12,0-.94.61-1.62.65-2.56,0-.1,0-.2,0-.31l0,.4c-.18-.88-.72-1.88-.8-2.72s.38-1.69.29-2.63-.77-2.13-.84-3a19.91,19.91,0,0,1,.29-2.64,22.44,22.44,0,0,0,.29-2.64c-.05-.49-.73-2.6-.85-3s-.83-2.77-.84-3,0-.8.12-1.43a8.53,8.53,0,0,1,.17-1.21c.16,0,.71,3.12.84,3a19.6,19.6,0,0,0,.29-2.65c0-.31-.88-2.55-.93-3-.1-.68.31-2,.18-2.62,0-.15-.26-.89-.48-1.6l-.32-1a1.91,1.91,0,0,0-.17-.43c-.16-.05,0,2.83-.18,2.63s-.74-2.42-1-3c-.3-.76-.67-2.06-1-3l-1-3,.19-2.64a24.11,24.11,0,0,1,.18-2.63,4.13,4.13,0,0,1,.17.47l.33,1c.23.72.46,1.46.47,1.52-.08-.9.31-1.73.18-2.64-.07-.53-.82-2.53-1-3l-.1-.29,0-.15c-.23-.94-.44-1.8-.68-2.75s-.5-2-.75-3c-.14-.59-.67-2.32-.75-3.05,0-.31.33-2.37.37-2.63l.37-2.62a20.4,20.4,0,0,0,.37-2.62c0-.38-.66-2.71-.75-3.05L503.73,30v-.89c0-.91-.15-2.09-.12-3.14,0-.36.83-2,.9-2.49s-.11-2.67-.12-3.15c0-.68-.19-2.32-.12-3.14,0-.05.22-.68.44-1.29.11-.31.22-.61.31-.83a2,2,0,0,1,.15-.37c.17.1,0,2.84.11,3.14l.24,6.28c0,.88,0,2.51.12,3.14.05.3,0,1.61,0,2.43v.14a1.94,1.94,0,0,0,.22.69,5,5,0,0,0,.06-.71v-.09c.12-.24.29-.69.43-1.08l.26-.73c0,.45.06,1.21.11,1.91v-.08A6.66,6.66,0,0,1,507,31c.05.79-.45,1.85-.37,2.62.06.55.75,2.61.75,3.05a21.07,21.07,0,0,1-.37,2.63,20.4,20.4,0,0,0-.37,2.62c0,.4.66,2.7.75,3s.72,2.55.75,3.06a21.46,21.46,0,0,1-.37,2.62c0,.18-.18,1.08-.29,1.78v.06a4.15,4.15,0,0,0,0,.84c.11.68.79,2.46,1,3,.33,1,.65,2,1,3,.27.84.72,2,1,3,.09.37-.26,2.16-.19,2.64s.83,2.53,1,3c.22.71.8,2.14,1,3,.12.65-.28,1.95-.19,2.64.15.93.77,2.06.9,3-.1.89-.2,1.77-.29,2.64a21.4,21.4,0,0,1-.29,2.64c-.08.18-.73-3-.84-3a26.51,26.51,0,0,0-.29,2.64c-.18.47-.14,2.08-.29,2.63.21,1.14.65,1.86.84,3,.15.88.65,2.32.84,3s.69,2.1.85,3c.09.53-.35,2-.29,2.64a8.5,8.5,0,0,0,.47,1.71v-.12a7.86,7.86,0,0,1,.18,1.35c0,.67-.62,1.86-.65,2.57,0,.54.36,2.64.42,3.11.07.62.43,2.38.42,3.12s-.62,1.73-.65,2.56.48,2.37.42,3.12c-.08,1-.59,1.55-.65,2.57s.45,2.22.42,3.11-.64,1.72-.66,2.57a11.53,11.53,0,0,0,.31,2l.7-.7a4.87,4.87,0,0,1-1.1.16c-.59,0-2.06-.58-2.59-.53-.92.07-2.34.42-3.09.55-.29.06-2.84.58-3.1.56a23.81,23.81,0,0,1-2.59-.53c.07-.16,3.18-.42,3.09-.56s-2.8-.43-2.59-.54C502.27,121.67,504.4,121.55,504.94,121.33Z" style="fill:#1d1d1b;fill-rule:evenodd"/><path d="M125.63,7.06l-6.27-.31c-.07-.2-2.53-.94-2.41-1.1s3.19.31,3.14.15a24.32,24.32,0,0,0-2.41-1.11c-.94-.22-1.47-.89-2.41-1.1s-2.19,0-3.14-.15-2.21.05-3.14-.16c-.67-.15-1.77-1-2.4-1.1-.82-.14-2.47-.12-3.14-.15h-.21c-.74.22-2.07.7-3,.86-.52.1-2-.32-2.64-.26-.95.11-2,.76-3,.88S92.89,3.14,92,3.24s-2.26.82-3,.88c-1.08.07-1.58-.32-2.64-.26-.87,0-1.73-.36-2.64-.27s-2.27.83-3,.88a5.19,5.19,0,0,1-1.48-.17h.13a3.81,3.81,0,0,0-1.15-.21c-.85,0-2.21.56-3.09.56s-1.82-.56-2.59-.53c-1,0-2.15.56-3.09.56s-1.65-.54-2.6-.53c-.79,0-2.34.58-3.09.56-1,0-1.61-.53-2.59-.53s-1.63-.54-2.59-.54-2.13.52-3.1.56-2.14.54-3.09.53-1.73-.57-2.59-.56S48,3.6,47.16,3.6c-.54,0-2.63.45-3.1.53s-2.61.53-3.1.52a20.32,20.32,0,0,1-2.58-.56,22.41,22.41,0,0,0-2.59-.56c-1,0-1.62-.55-2.59-.56a13.19,13.19,0,0,0-1.76.27h.24l-1.46.15c-.79.05-2.39.31-3.32.29-.69,0-2.06-.69-2.84-.73s-2.4.4-3.26.32c-.13,0-.85-.17-1.56-.33l-1-.22c-.25-.07-.42-.11-.42-.12,0-.17,3-.2,3.27-.36l3.37-.34c.4,0,3-.36,3.45-.32,1.16.1,1.75.65,2.88.76a3.88,3.88,0,0,1,.89.2h-.28A6.13,6.13,0,0,0,33.2,3c.93,0,2.17-.54,3.1-.53S37.92,3,38.89,3,41,2.47,42,2.48,43.62,3,44.57,3s2.16-.54,3.09-.53,1.64.56,2.59.56,2.15-.53,3.09-.53,1.65.57,2.6.56,2.14-.56,3.09-.56,1.64.54,2.59.53,2.14-.56,3.09-.56,1.65.54,2.59.53,2.18-.56,3.1-.56S72,3,73,3c.6,0,2.6-.6,3.09-.56A20.26,20.26,0,0,1,78.67,3l.62.14-.24,0a13,13,0,0,0,2,.18c.94-.1,2.07-.77,3-.88.79-.08,1.87.38,2.63.27,1.11-.17,1.92-.71,3-.88s2.09-.78,3-.88,1.77.37,2.64.26,2.05-.77,3-.88,1.7.37,2.64.26a9.67,9.67,0,0,0,2-.6l.82,0a4.81,4.81,0,0,1,1.1.09c.93.21,1.48.89,2.41,1.1.47.11,2.71.14,3.14.16.76,0,2.21,0,3.14.15.52.08,1.82,1,2.4,1.11s2.55,0,3.15.15a22.09,22.09,0,0,1,2.4,1.1L124,5l3.48,1.6h-.3l1.46.14-1.39.41h.12Z" style="fill:#1d1d1b;fill-rule:evenodd"/></g></g></svg>