<svg xmlns="http://www.w3.org/2000/svg" viewBox="0 0 198.32 129.48">
  <path d="M0,59.07C9.29,48.6,21.49,41.17,33.87,34.64a351.24,351.24,0,0,1,89-32.38.74.74,0,0,1,.65,1.28C94.22,29.35,64.77,55.78,44,88.78,32.84,79.47,13.09,65.41,0,59.07Z"/>
  <path d="M55.54,95.54C68.82,76.23,88,61.81,107.21,48.46,135.1,29.13,164.36,11.1,196.4,0a.75.75,0,0,1,.69,1.3A274.37,274.37,0,0,0,109.39,110c-.47,1-1,2.2-2.15,2.53a3.88,3.88,0,0,1-2.25-.21C87.47,107.12,73.05,100.7,55.54,95.54Z"/>
  <path d="M124.07,129.48c-.95-10.5,5-20.29,11.26-28.79a266,266,0,0,1,55.72-56A23,23,0,0,1,197.36,41a.74.74,0,0,1,.93.94l-4.64,14.33c-6.92,21.4-13.89,43-16.09,65.39C159.91,121.75,141.58,127.19,124.07,129.48Z"/>
</svg>